<?xml version="1.0" encoding="UTF-8"?>
<svg xmlns="http://www.w3.org/2000/svg" xmlns:xlink="http://www.w3.org/1999/xlink" width="720pt" height="432pt" viewBox="0 0 720 432">
<defs>
<g>
<g id="glyph-0-0">
<path d="M 0.507812 -3.4375 L 0.507812 -4.851562 L 4.828125 -4.851562 L 4.828125 -3.4375 Z M 0.507812 -3.4375 "/>
</g>
<g id="glyph-0-1">
<path d="M 8.054688 -1.351562 L 8.054688 0 L 0.484375 0 C 0.472656 -0.339844 0.527344 -0.664062 0.648438 -0.976562 C 0.839844 -1.492188 1.148438 -2 1.574219 -2.5 C 2 -3 2.613281 -3.578125 3.414062 -4.234375 C 4.660156 -5.253906 5.5 -6.0625 5.9375 -6.660156 C 6.375 -7.257812 6.59375 -7.820312 6.59375 -8.351562 C 6.59375 -8.910156 6.394531 -9.378906 5.996094 -9.761719 C 5.597656 -10.144531 5.078125 -10.335938 4.4375 -10.335938 C 3.761719 -10.335938 3.21875 -10.132812 2.8125 -9.726562 C 2.40625 -9.320312 2.199219 -8.757812 2.195312 -8.039062 L 0.75 -8.1875 C 0.847656 -9.265625 1.222656 -10.085938 1.867188 -10.652344 C 2.511719 -11.21875 3.378906 -11.5 4.46875 -11.5 C 5.566406 -11.5 6.4375 -11.195312 7.078125 -10.585938 C 7.71875 -9.976562 8.039062 -9.222656 8.039062 -8.320312 C 8.039062 -7.863281 7.945312 -7.410156 7.757812 -6.96875 C 7.570312 -6.527344 7.257812 -6.058594 6.824219 -5.570312 C 6.390625 -5.082031 5.667969 -4.410156 4.65625 -3.554688 C 3.8125 -2.847656 3.269531 -2.367188 3.03125 -2.113281 C 2.792969 -1.859375 2.59375 -1.605469 2.4375 -1.351562 Z M 8.054688 -1.351562 "/>
</g>
<g id="glyph-0-2">
<path d="M 0.664062 -3 L 2.140625 -3.125 C 2.25 -2.40625 2.503906 -1.867188 2.902344 -1.503906 C 3.300781 -1.140625 3.78125 -0.960938 4.34375 -0.960938 C 5.019531 -0.960938 5.59375 -1.214844 6.0625 -1.726562 C 6.53125 -2.238281 6.765625 -2.914062 6.765625 -3.757812 C 6.765625 -4.558594 6.539062 -5.191406 6.089844 -5.65625 C 5.640625 -6.121094 5.050781 -6.351562 4.320312 -6.351562 C 3.867188 -6.351562 3.457031 -6.25 3.09375 -6.042969 C 2.730469 -5.835938 2.441406 -5.570312 2.234375 -5.242188 L 0.914062 -5.414062 L 2.023438 -11.296875 L 7.71875 -11.296875 L 7.71875 -9.953125 L 3.148438 -9.953125 L 2.53125 -6.875 C 3.21875 -7.355469 3.941406 -7.59375 4.695312 -7.59375 C 5.695312 -7.59375 6.539062 -7.246094 7.226562 -6.554688 C 7.914062 -5.863281 8.257812 -4.972656 8.257812 -3.882812 C 8.257812 -2.847656 7.957031 -1.949219 7.351562 -1.195312 C 6.617188 -0.269531 5.613281 0.195312 4.34375 0.195312 C 3.300781 0.195312 2.453125 -0.0976562 1.792969 -0.679688 C 1.132812 -1.261719 0.757812 -2.035156 0.664062 -3 Z M 0.664062 -3 "/>
</g>
<g id="glyph-0-3">
<path d="M 0.664062 -5.648438 C 0.664062 -7.003906 0.804688 -8.09375 1.082031 -8.917969 C 1.359375 -9.742188 1.773438 -10.378906 2.324219 -10.828125 C 2.875 -11.277344 3.566406 -11.5 4.398438 -11.5 C 5.011719 -11.5 5.550781 -11.375 6.015625 -11.128906 C 6.480469 -10.882812 6.863281 -10.523438 7.164062 -10.058594 C 7.464844 -9.59375 7.703125 -9.023438 7.875 -8.355469 C 8.046875 -7.6875 8.132812 -6.785156 8.132812 -5.648438 C 8.132812 -4.304688 7.996094 -3.21875 7.71875 -2.394531 C 7.441406 -1.570312 7.03125 -0.929688 6.480469 -0.480469 C 5.929688 -0.03125 5.238281 0.195312 4.398438 0.195312 C 3.292969 0.195312 2.425781 -0.199219 1.796875 -0.992188 C 1.042969 -1.945312 0.664062 -3.496094 0.664062 -5.648438 M 2.109375 -5.648438 C 2.109375 -3.769531 2.328125 -2.515625 2.769531 -1.894531 C 3.210938 -1.273438 3.753906 -0.960938 4.398438 -0.960938 C 5.042969 -0.960938 5.585938 -1.273438 6.027344 -1.898438 C 6.46875 -2.523438 6.6875 -3.773438 6.6875 -5.648438 C 6.6875 -7.535156 6.46875 -8.785156 6.027344 -9.40625 C 5.585938 -10.027344 5.039062 -10.335938 4.382812 -10.335938 C 3.738281 -10.335938 3.222656 -10.0625 2.835938 -9.515625 C 2.351562 -8.816406 2.109375 -7.527344 2.109375 -5.648438 Z M 2.109375 -5.648438 "/>
</g>
<g id="glyph-0-4">
<path d="M 5.171875 0 L 5.171875 -2.742188 L 0.203125 -2.742188 L 0.203125 -4.03125 L 5.429688 -11.453125 L 6.578125 -11.453125 L 6.578125 -4.03125 L 8.125 -4.03125 L 8.125 -2.742188 L 6.578125 -2.742188 L 6.578125 0 L 5.171875 0 M 5.171875 -4.03125 L 5.171875 -9.195312 L 1.585938 -4.03125 Z M 5.171875 -4.03125 "/>
</g>
<g id="glyph-1-0">
<path d="M 1.640625 0 L 1.640625 -14.316406 L 11.296875 -14.316406 L 11.296875 -12.625 L 3.535156 -12.625 L 3.535156 -8.195312 L 10.253906 -8.195312 L 10.253906 -6.503906 L 3.535156 -6.503906 L 3.535156 0 Z M 1.640625 0 "/>
</g>
<g id="glyph-1-1">
<path d="M 5.1875 0 L 5.1875 -12.625 L 0.46875 -12.625 L 0.46875 -14.316406 L 11.816406 -14.316406 L 11.816406 -12.625 L 7.078125 -12.625 L 7.078125 0 Z M 5.1875 0 "/>
</g>
<g id="glyph-1-2">
<path d="M 0.898438 -4.601562 L 2.6875 -4.757812 C 2.769531 -4.039062 2.96875 -3.453125 3.277344 -2.992188 C 3.585938 -2.535156 4.066406 -2.164062 4.71875 -1.878906 C 5.367188 -1.597656 6.101562 -1.453125 6.914062 -1.453125 C 7.636719 -1.453125 8.273438 -1.5625 8.828125 -1.777344 C 9.382812 -1.992188 9.792969 -2.285156 10.0625 -2.660156 C 10.332031 -3.035156 10.46875 -3.445312 10.46875 -3.886719 C 10.46875 -4.335938 10.339844 -4.726562 10.078125 -5.0625 C 9.816406 -5.398438 9.386719 -5.679688 8.789062 -5.90625 C 8.40625 -6.058594 7.554688 -6.289062 6.242188 -6.605469 C 4.925781 -6.921875 4.003906 -7.21875 3.476562 -7.5 C 2.792969 -7.859375 2.285156 -8.300781 1.949219 -8.832031 C 1.613281 -9.363281 1.445312 -9.957031 1.445312 -10.617188 C 1.445312 -11.335938 1.648438 -12.011719 2.0625 -12.640625 C 2.46875 -13.269531 3.070312 -13.746094 3.859375 -14.070312 C 4.644531 -14.398438 5.519531 -14.5625 6.484375 -14.5625 C 7.546875 -14.5625 8.480469 -14.390625 9.292969 -14.046875 C 10.101562 -13.707031 10.726562 -13.203125 11.164062 -12.539062 C 11.597656 -11.875 11.832031 -11.125 11.867188 -10.28125 L 10.046875 -10.148438 C 9.949219 -11.050781 9.621094 -11.734375 9.058594 -12.195312 C 8.496094 -12.660156 7.664062 -12.890625 6.5625 -12.890625 C 5.417969 -12.890625 4.582031 -12.679688 4.058594 -12.261719 C 3.535156 -11.839844 3.273438 -11.335938 3.273438 -10.742188 C 3.273438 -10.226562 3.457031 -9.804688 3.828125 -9.472656 C 4.191406 -9.140625 5.144531 -8.800781 6.683594 -8.453125 C 8.222656 -8.105469 9.28125 -7.800781 9.851562 -7.539062 C 10.6875 -7.15625 11.300781 -6.667969 11.699219 -6.078125 C 12.097656 -5.488281 12.296875 -4.8125 12.296875 -4.042969 C 12.296875 -3.28125 12.078125 -2.5625 11.640625 -1.890625 C 11.203125 -1.214844 10.578125 -0.691406 9.761719 -0.316406 C 8.945312 0.0585938 8.023438 0.242188 7 0.242188 C 5.707031 0.242188 4.621094 0.0546875 3.746094 -0.320312 C 2.871094 -0.699219 2.183594 -1.269531 1.683594 -2.027344 C 1.1875 -2.785156 0.925781 -3.640625 0.898438 -4.601562 Z M 0.898438 -4.601562 "/>
</g>
<g id="glyph-1-3">
<path d="M 1.582031 0 L 1.582031 -14.316406 L 11.933594 -14.316406 L 11.933594 -12.625 L 3.476562 -12.625 L 3.476562 -8.242188 L 11.398438 -8.242188 L 11.398438 -6.5625 L 3.476562 -6.5625 L 3.476562 -1.6875 L 12.265625 -1.6875 L 12.265625 0 Z M 1.582031 0 "/>
</g>
<g id="glyph-1-4">
</g>
<g id="glyph-1-5">
<path d="M 1.296875 0 L 1.296875 -10.371094 L 2.882812 -10.371094 L 2.882812 -8.796875 C 3.285156 -9.535156 3.65625 -10.019531 4 -10.253906 C 4.339844 -10.488281 4.714844 -10.605469 5.125 -10.605469 C 5.71875 -10.605469 6.320312 -10.417969 6.933594 -10.039062 L 6.328125 -8.40625 C 5.898438 -8.660156 5.46875 -8.789062 5.039062 -8.789062 C 4.65625 -8.789062 4.308594 -8.671875 4.003906 -8.441406 C 3.699219 -8.210938 3.480469 -7.890625 3.351562 -7.480469 C 3.15625 -6.855469 3.054688 -6.171875 3.054688 -5.429688 L 3.054688 0 Z M 1.296875 0 "/>
</g>
<g id="glyph-1-6">
<path d="M 8.417969 -3.339844 L 10.234375 -3.117188 C 9.949219 -2.054688 9.417969 -1.230469 8.640625 -0.644531 C 7.867188 -0.0585938 6.878906 0.234375 5.671875 0.234375 C 4.15625 0.234375 2.953125 -0.234375 2.066406 -1.167969 C 1.175781 -2.101562 0.734375 -3.410156 0.734375 -5.097656 C 0.734375 -6.84375 1.179688 -8.195312 2.078125 -9.160156 C 2.976562 -10.125 4.144531 -10.605469 5.578125 -10.605469 C 6.960938 -10.605469 8.09375 -10.132812 8.976562 -9.1875 C 9.851562 -8.246094 10.292969 -6.917969 10.292969 -5.203125 C 10.292969 -5.101562 10.289062 -4.945312 10.28125 -4.734375 L 2.546875 -4.734375 C 2.613281 -3.597656 2.9375 -2.726562 3.515625 -2.117188 C 4.09375 -1.515625 4.816406 -1.210938 5.683594 -1.210938 C 6.328125 -1.210938 6.878906 -1.378906 7.335938 -1.71875 C 7.789062 -2.058594 8.152344 -2.597656 8.417969 -3.339844 M 2.648438 -6.179688 L 8.4375 -6.179688 C 8.359375 -7.054688 8.136719 -7.707031 7.773438 -8.144531 C 7.214844 -8.820312 6.488281 -9.160156 5.59375 -9.160156 C 4.789062 -9.160156 4.109375 -8.890625 3.558594 -8.351562 C 3.007812 -7.808594 2.703125 -7.085938 2.648438 -6.179688 Z M 2.648438 -6.179688 "/>
</g>
<g id="glyph-1-7">
<path d="M 5.15625 -1.570312 L 5.410156 -0.0195312 C 4.914062 0.0859375 4.472656 0.136719 4.082031 0.136719 C 3.445312 0.136719 2.949219 0.0351562 2.597656 -0.164062 C 2.246094 -0.367188 2 -0.632812 1.855469 -0.960938 C 1.710938 -1.289062 1.640625 -1.984375 1.640625 -3.039062 L 1.640625 -9.003906 L 0.351562 -9.003906 L 0.351562 -10.371094 L 1.640625 -10.371094 L 1.640625 -12.9375 L 3.390625 -13.992188 L 3.390625 -10.371094 L 5.15625 -10.371094 L 5.15625 -9.003906 L 3.390625 -9.003906 L 3.390625 -2.9375 C 3.390625 -2.4375 3.417969 -2.117188 3.480469 -1.972656 C 3.542969 -1.828125 3.644531 -1.714844 3.785156 -1.632812 C 3.925781 -1.546875 4.125 -1.503906 4.382812 -1.503906 C 4.578125 -1.503906 4.835938 -1.527344 5.15625 -1.570312 Z M 5.15625 -1.570312 "/>
</g>
<g id="glyph-1-8">
<path d="M 8.117188 0 L 8.117188 -1.523438 C 7.308594 -0.351562 6.210938 0.234375 4.824219 0.234375 C 4.210938 0.234375 3.640625 0.117188 3.109375 -0.117188 C 2.578125 -0.351562 2.1875 -0.644531 1.929688 -1 C 1.671875 -1.355469 1.492188 -1.789062 1.386719 -2.304688 C 1.316406 -2.648438 1.28125 -3.195312 1.28125 -3.945312 L 1.28125 -10.371094 L 3.039062 -10.371094 L 3.039062 -4.617188 C 3.039062 -3.703125 3.074219 -3.082031 3.144531 -2.765625 C 3.253906 -2.300781 3.488281 -1.9375 3.847656 -1.675781 C 4.207031 -1.410156 4.648438 -1.28125 5.175781 -1.28125 C 5.703125 -1.28125 6.199219 -1.414062 6.660156 -1.683594 C 7.121094 -1.953125 7.449219 -2.324219 7.640625 -2.789062 C 7.832031 -3.253906 7.929688 -3.929688 7.929688 -4.8125 L 7.929688 -10.371094 L 9.6875 -10.371094 L 9.6875 0 Z M 8.117188 0 "/>
</g>
<g id="glyph-1-9">
<path d="M 1.320312 0 L 1.320312 -10.371094 L 2.898438 -10.371094 L 2.898438 -8.898438 C 3.660156 -10.035156 4.761719 -10.605469 6.203125 -10.605469 C 6.828125 -10.605469 7.402344 -10.492188 7.925781 -10.269531 C 8.449219 -10.042969 8.839844 -9.75 9.101562 -9.382812 C 9.363281 -9.019531 9.542969 -8.585938 9.648438 -8.085938 C 9.714844 -7.761719 9.746094 -7.191406 9.746094 -6.375 L 9.746094 0 L 7.988281 0 L 7.988281 -6.308594 C 7.988281 -7.023438 7.921875 -7.558594 7.78125 -7.914062 C 7.648438 -8.269531 7.402344 -8.554688 7.054688 -8.765625 C 6.707031 -8.976562 6.296875 -9.082031 5.828125 -9.082031 C 5.082031 -9.082031 4.433594 -8.84375 3.890625 -8.367188 C 3.347656 -7.894531 3.078125 -6.992188 3.078125 -5.664062 L 3.078125 0 Z M 1.320312 0 "/>
</g>
<g id="glyph-1-10">
<path d="M 2.9375 0 L 1.308594 0 L 1.308594 -14.316406 L 3.066406 -14.316406 L 3.066406 -9.210938 C 3.808594 -10.140625 4.757812 -10.605469 5.90625 -10.605469 C 6.546875 -10.605469 7.148438 -10.476562 7.71875 -10.21875 C 8.289062 -9.960938 8.757812 -9.601562 9.125 -9.136719 C 9.492188 -8.671875 9.78125 -8.109375 9.992188 -7.453125 C 10.199219 -6.792969 10.304688 -6.089844 10.304688 -5.34375 C 10.304688 -3.5625 9.863281 -2.191406 8.984375 -1.21875 C 8.105469 -0.25 7.050781 0.234375 5.820312 0.234375 C 4.597656 0.234375 3.636719 -0.277344 2.9375 -1.296875 L 2.9375 0 M 2.921875 -5.265625 C 2.921875 -4.019531 3.089844 -3.121094 3.429688 -2.570312 C 3.980469 -1.664062 4.730469 -1.210938 5.671875 -1.210938 C 6.441406 -1.210938 7.105469 -1.542969 7.664062 -2.210938 C 8.226562 -2.878906 8.507812 -3.875 8.507812 -5.195312 C 8.507812 -6.550781 8.238281 -7.546875 7.699219 -8.195312 C 7.164062 -8.835938 6.515625 -9.160156 5.75 -9.160156 C 4.984375 -9.160156 4.320312 -8.828125 3.757812 -8.160156 C 3.199219 -7.492188 2.921875 -6.527344 2.921875 -5.265625 Z M 2.921875 -5.265625 "/>
</g>
<g id="glyph-1-11">
<path d="M 1.328125 -12.296875 L 1.328125 -14.316406 L 3.085938 -14.316406 L 3.085938 -12.296875 L 1.328125 -12.296875 M 1.328125 0 L 1.328125 -10.371094 L 3.085938 -10.371094 L 3.085938 0 Z M 1.328125 0 "/>
</g>
<g id="glyph-1-12">
<path d="M 4.679688 4.210938 C 3.707031 2.984375 2.886719 1.550781 2.21875 -0.0859375 C 1.546875 -1.726562 1.210938 -3.429688 1.210938 -5.1875 C 1.210938 -6.734375 1.460938 -8.21875 1.960938 -9.640625 C 2.546875 -11.285156 3.453125 -12.925781 4.679688 -14.5625 L 5.9375 -14.5625 C 5.148438 -13.207031 4.628906 -12.238281 4.375 -11.660156 C 3.976562 -10.761719 3.664062 -9.824219 3.4375 -8.847656 C 3.15625 -7.628906 3.015625 -6.40625 3.015625 -5.175781 C 3.015625 -2.042969 3.992188 1.085938 5.9375 4.210938 Z M 4.679688 4.210938 "/>
</g>
<g id="glyph-1-13">
<path d="M 1.320312 3.976562 L 1.320312 -10.371094 L 2.921875 -10.371094 L 2.921875 -9.023438 C 3.296875 -9.550781 3.722656 -9.945312 4.199219 -10.210938 C 4.675781 -10.472656 5.25 -10.605469 5.929688 -10.605469 C 6.8125 -10.605469 7.59375 -10.378906 8.273438 -9.921875 C 8.949219 -9.464844 9.460938 -8.824219 9.804688 -7.992188 C 10.148438 -7.164062 10.320312 -6.253906 10.320312 -5.265625 C 10.320312 -4.203125 10.132812 -3.246094 9.75 -2.398438 C 9.371094 -1.546875 8.816406 -0.898438 8.089844 -0.445312 C 7.363281 0.0078125 6.601562 0.234375 5.800781 0.234375 C 5.214844 0.234375 4.6875 0.109375 4.222656 -0.136719 C 3.757812 -0.382812 3.375 -0.695312 3.078125 -1.074219 L 3.078125 3.976562 L 1.320312 3.976562 M 2.910156 -5.125 C 2.910156 -3.792969 3.179688 -2.804688 3.71875 -2.167969 C 4.261719 -1.53125 4.914062 -1.210938 5.683594 -1.210938 C 6.464844 -1.210938 7.132812 -1.542969 7.691406 -2.203125 C 8.246094 -2.863281 8.523438 -3.886719 8.523438 -5.273438 C 8.523438 -6.59375 8.253906 -7.585938 7.710938 -8.242188 C 7.167969 -8.898438 6.515625 -9.226562 5.761719 -9.226562 C 5.011719 -9.226562 4.351562 -8.878906 3.773438 -8.179688 C 3.199219 -7.480469 2.910156 -6.460938 2.910156 -5.125 Z M 2.910156 -5.125 "/>
</g>
<g id="glyph-1-14">
<path d="M 2.46875 4.210938 L 1.210938 4.210938 C 3.15625 1.085938 4.128906 -2.042969 4.132812 -5.175781 C 4.128906 -6.398438 3.992188 -7.613281 3.710938 -8.820312 C 3.488281 -9.792969 3.179688 -10.734375 2.78125 -11.632812 C 2.53125 -12.21875 2.003906 -13.195312 1.210938 -14.5625 L 2.46875 -14.5625 C 3.695312 -12.925781 4.597656 -11.285156 5.1875 -9.640625 C 5.6875 -8.21875 5.9375 -6.734375 5.9375 -5.1875 C 5.9375 -3.429688 5.601562 -1.726562 4.925781 -0.0859375 C 4.253906 1.550781 3.433594 2.984375 2.46875 4.210938 Z M 2.46875 4.210938 "/>
</g>
<g id="glyph-2-0">
<path d="M 0 0.03125 L -14.316406 -5.46875 L -14.316406 -7.511719 L 0 -13.367188 L 0 -11.210938 L -4.335938 -9.539062 L -4.335938 -3.554688 L 0 -1.984375 L 0 0.03125 M -5.878906 -4.101562 L -5.878906 -8.953125 L -9.84375 -7.460938 C -11.046875 -7.003906 -12.039062 -6.667969 -12.8125 -6.445312 C -11.894531 -6.261719 -10.984375 -6.007812 -10.078125 -5.675781 Z M -5.878906 -4.101562 "/>
</g>
<g id="glyph-2-1">
<path d="M 0 -4.199219 L -10.371094 -0.253906 L -10.371094 -2.109375 L -4.160156 -4.335938 C -3.488281 -4.578125 -2.792969 -4.796875 -2.070312 -5 C -2.617188 -5.15625 -3.273438 -5.375 -4.042969 -5.65625 L -10.371094 -7.960938 L -10.371094 -9.765625 L 0 -5.839844 Z M 0 -4.199219 "/>
</g>
<g id="glyph-2-2">
<path d="M -3.339844 -8.417969 L -3.113281 -10.234375 C -2.054688 -9.949219 -1.230469 -9.417969 -0.644531 -8.640625 C -0.0585938 -7.867188 0.234375 -6.878906 0.234375 -5.671875 C 0.234375 -4.15625 -0.234375 -2.953125 -1.167969 -2.066406 C -2.101562 -1.175781 -3.410156 -0.734375 -5.097656 -0.734375 C -6.84375 -0.734375 -8.195312 -1.183594 -9.160156 -2.082031 C -10.125 -2.980469 -10.605469 -4.144531 -10.605469 -5.578125 C -10.605469 -6.964844 -10.132812 -8.09375 -9.1875 -8.976562 C -8.246094 -9.851562 -6.917969 -10.292969 -5.203125 -10.292969 C -5.101562 -10.292969 -4.945312 -10.289062 -4.734375 -10.28125 L -4.734375 -2.550781 C -3.597656 -2.613281 -2.726562 -2.9375 -2.117188 -3.515625 C -1.511719 -4.09375 -1.210938 -4.816406 -1.210938 -5.683594 C -1.210938 -6.328125 -1.378906 -6.878906 -1.71875 -7.335938 C -2.058594 -7.789062 -2.597656 -8.152344 -3.339844 -8.417969 M -6.179688 -2.648438 L -6.179688 -8.4375 C -7.054688 -8.359375 -7.707031 -8.136719 -8.144531 -7.773438 C -8.820312 -7.214844 -9.160156 -6.488281 -9.160156 -5.597656 C -9.160156 -4.789062 -8.890625 -4.109375 -8.351562 -3.558594 C -7.808594 -3.007812 -7.085938 -2.707031 -6.179688 -2.648438 Z M -6.179688 -2.648438 "/>
</g>
<g id="glyph-2-3">
<path d="M 0 -1.296875 L -10.371094 -1.300781 L -10.371094 -2.882812 L -8.796875 -2.882812 C -9.535156 -3.285156 -10.019531 -3.65625 -10.253906 -4 C -10.488281 -4.339844 -10.605469 -4.714844 -10.605469 -5.128906 C -10.605469 -5.71875 -10.417969 -6.320312 -10.039062 -6.933594 L -8.40625 -6.328125 C -8.660156 -5.898438 -8.789062 -5.46875 -8.789062 -5.039062 C -8.789062 -4.65625 -8.671875 -4.308594 -8.441406 -4.003906 C -8.210938 -3.699219 -7.890625 -3.480469 -7.480469 -3.351562 C -6.855469 -3.15625 -6.171875 -3.058594 -5.429688 -3.058594 L 0 -3.054688 Z M 0 -1.296875 "/>
</g>
<g id="glyph-2-4">
<path d="M -1.277344 -8.085938 C -0.726562 -7.433594 -0.335938 -6.808594 -0.105469 -6.207031 C 0.121094 -5.605469 0.234375 -4.957031 0.234375 -4.265625 C 0.234375 -3.128906 -0.0429688 -2.253906 -0.601562 -1.640625 C -1.15625 -1.027344 -1.867188 -0.722656 -2.734375 -0.722656 C -3.242188 -0.722656 -3.707031 -0.839844 -4.125 -1.070312 C -4.546875 -1.300781 -4.882812 -1.601562 -5.136719 -1.976562 C -5.390625 -2.351562 -5.582031 -2.773438 -5.710938 -3.242188 C -5.804688 -3.585938 -5.890625 -4.109375 -5.976562 -4.804688 C -6.144531 -6.222656 -6.347656 -7.269531 -6.582031 -7.9375 C -6.824219 -7.945312 -6.976562 -7.949219 -7.039062 -7.949219 C -7.757812 -7.949219 -8.261719 -7.785156 -8.554688 -7.453125 C -8.953125 -7.003906 -9.148438 -6.335938 -9.148438 -5.449219 C -9.148438 -4.621094 -9.003906 -4.011719 -8.714844 -3.617188 C -8.425781 -3.222656 -7.914062 -2.933594 -7.179688 -2.746094 L -7.414062 -1.027344 C -8.148438 -1.179688 -8.742188 -1.4375 -9.195312 -1.796875 C -9.648438 -2.15625 -9.996094 -2.671875 -10.238281 -3.351562 C -10.484375 -4.027344 -10.605469 -4.8125 -10.605469 -5.703125 C -10.605469 -6.589844 -10.5 -7.308594 -10.292969 -7.863281 C -10.085938 -8.414062 -9.824219 -8.820312 -9.507812 -9.082031 C -9.191406 -9.34375 -8.792969 -9.523438 -8.3125 -9.628906 C -8.011719 -9.6875 -7.46875 -9.71875 -6.6875 -9.71875 L -4.34375 -9.71875 C -2.710938 -9.71875 -1.679688 -9.753906 -1.246094 -9.828125 C -0.8125 -9.902344 -0.398438 -10.050781 0 -10.273438 L 0 -8.4375 C -0.363281 -8.253906 -0.789062 -8.136719 -1.277344 -8.085938 M -5.203125 -7.9375 C -4.945312 -7.300781 -4.722656 -6.34375 -4.539062 -5.070312 C -4.4375 -4.34375 -4.320312 -3.835938 -4.1875 -3.535156 C -4.058594 -3.234375 -3.867188 -3.003906 -3.617188 -2.84375 C -3.367188 -2.679688 -3.089844 -2.597656 -2.78125 -2.597656 C -2.3125 -2.597656 -1.921875 -2.773438 -1.609375 -3.128906 C -1.296875 -3.484375 -1.140625 -4.003906 -1.140625 -4.6875 C -1.140625 -5.363281 -1.289062 -5.96875 -1.585938 -6.492188 C -1.882812 -7.023438 -2.289062 -7.410156 -2.800781 -7.65625 C -3.199219 -7.84375 -3.785156 -7.9375 -4.558594 -7.9375 Z M -5.203125 -7.9375 "/>
</g>
<g id="glyph-2-5">
<path d="M 0.859375 -0.996094 L 1.113281 -2.703125 C 1.640625 -2.777344 2.023438 -2.976562 2.265625 -3.300781 C 2.589844 -3.738281 2.753906 -4.332031 2.753906 -5.085938 C 2.753906 -5.902344 2.589844 -6.53125 2.265625 -6.972656 C 1.941406 -7.414062 1.484375 -7.714844 0.898438 -7.871094 C 0.539062 -7.960938 -0.210938 -8.003906 -1.355469 -8 C -0.453125 -7.230469 0 -6.273438 0 -5.125 C 0 -3.703125 -0.515625 -2.597656 -1.542969 -1.816406 C -2.570312 -1.035156 -3.804688 -0.644531 -5.242188 -0.644531 C -6.234375 -0.644531 -7.148438 -0.824219 -7.984375 -1.183594 C -8.820312 -1.539062 -9.464844 -2.058594 -9.921875 -2.738281 C -10.378906 -3.417969 -10.605469 -4.21875 -10.605469 -5.136719 C -10.605469 -6.359375 -10.109375 -7.371094 -9.121094 -8.164062 L -10.371094 -8.164062 L -10.371094 -9.785156 L -1.40625 -9.785156 C 0.207031 -9.785156 1.351562 -9.621094 2.027344 -9.292969 C 2.699219 -8.964844 3.234375 -8.441406 3.625 -7.730469 C 4.015625 -7.015625 4.210938 -6.140625 4.210938 -5.097656 C 4.210938 -3.859375 3.929688 -2.859375 3.375 -2.101562 C 2.816406 -1.335938 1.980469 -0.96875 0.859375 -0.996094 M -5.371094 -2.453125 C -4.011719 -2.453125 -3.015625 -2.722656 -2.390625 -3.261719 C -1.765625 -3.800781 -1.453125 -4.480469 -1.453125 -5.292969 C -1.453125 -6.101562 -1.765625 -6.777344 -2.386719 -7.324219 C -3.007812 -7.871094 -3.984375 -8.144531 -5.3125 -8.144531 C -6.582031 -8.144531 -7.539062 -7.863281 -8.183594 -7.300781 C -8.828125 -6.738281 -9.148438 -6.058594 -9.148438 -5.265625 C -9.148438 -4.484375 -8.832031 -3.820312 -8.199219 -3.273438 C -7.5625 -2.726562 -6.621094 -2.453125 -5.371094 -2.453125 Z M -5.371094 -2.453125 "/>
</g>
<g id="glyph-2-6">
</g>
<g id="glyph-2-7">
<path d="M -1.570312 -5.15625 L -0.0195312 -5.410156 C 0.0859375 -4.914062 0.136719 -4.472656 0.136719 -4.082031 C 0.136719 -3.445312 0.0351562 -2.949219 -0.164062 -2.597656 C -0.367188 -2.246094 -0.632812 -2 -0.960938 -1.855469 C -1.289062 -1.710938 -1.984375 -1.640625 -3.039062 -1.640625 L -9.003906 -1.640625 L -9.003906 -0.351562 L -10.371094 -0.351562 L -10.371094 -1.640625 L -12.9375 -1.640625 L -13.992188 -3.390625 L -10.371094 -3.390625 L -10.371094 -5.15625 L -9.003906 -5.15625 L -9.003906 -3.390625 L -2.9375 -3.390625 C -2.4375 -3.390625 -2.117188 -3.417969 -1.972656 -3.480469 C -1.828125 -3.542969 -1.714844 -3.644531 -1.628906 -3.785156 C -1.546875 -3.925781 -1.503906 -4.125 -1.503906 -4.382812 C -1.503906 -4.578125 -1.527344 -4.835938 -1.570312 -5.15625 Z M -1.570312 -5.15625 "/>
</g>
<g id="glyph-2-8">
<path d="M 0 -8.117188 L -1.523438 -8.117188 C -0.351562 -7.308594 0.234375 -6.210938 0.234375 -4.824219 C 0.234375 -4.210938 0.117188 -3.640625 -0.117188 -3.109375 C -0.351562 -2.578125 -0.644531 -2.1875 -1 -1.929688 C -1.355469 -1.671875 -1.789062 -1.492188 -2.304688 -1.386719 C -2.648438 -1.316406 -3.195312 -1.28125 -3.945312 -1.28125 L -10.371094 -1.28125 L -10.371094 -3.039062 L -4.617188 -3.039062 C -3.703125 -3.039062 -3.082031 -3.074219 -2.765625 -3.144531 C -2.300781 -3.253906 -1.9375 -3.488281 -1.675781 -3.847656 C -1.410156 -4.207031 -1.277344 -4.648438 -1.277344 -5.175781 C -1.277344 -5.703125 -1.414062 -6.199219 -1.683594 -6.660156 C -1.953125 -7.121094 -2.324219 -7.449219 -2.789062 -7.640625 C -3.253906 -7.832031 -3.929688 -7.929688 -4.8125 -7.929688 L -10.371094 -7.929688 L -10.371094 -9.6875 L 0 -9.6875 Z M 0 -8.117188 "/>
</g>
<g id="glyph-2-9">
<path d="M 0 -1.320312 L -10.371094 -1.320312 L -10.371094 -2.902344 L -8.898438 -2.902344 C -10.035156 -3.660156 -10.605469 -4.761719 -10.605469 -6.203125 C -10.605469 -6.828125 -10.492188 -7.402344 -10.269531 -7.925781 C -10.042969 -8.449219 -9.75 -8.839844 -9.382812 -9.101562 C -9.019531 -9.363281 -8.585938 -9.542969 -8.085938 -9.648438 C -7.761719 -9.714844 -7.191406 -9.746094 -6.375 -9.746094 L 0 -9.746094 L 0 -7.988281 L -6.308594 -7.988281 C -7.023438 -7.988281 -7.558594 -7.921875 -7.914062 -7.785156 C -8.269531 -7.648438 -8.554688 -7.402344 -8.765625 -7.054688 C -8.976562 -6.707031 -9.082031 -6.300781 -9.082031 -5.832031 C -9.082031 -5.082031 -8.84375 -4.433594 -8.367188 -3.890625 C -7.894531 -3.347656 -6.992188 -3.078125 -5.664062 -3.078125 L 0 -3.078125 Z M 0 -1.320312 "/>
</g>
<g id="glyph-2-10">
<path d="M 4.210938 -4.679688 C 2.984375 -3.707031 1.550781 -2.886719 -0.0859375 -2.21875 C -1.726562 -1.546875 -3.429688 -1.210938 -5.1875 -1.210938 C -6.734375 -1.210938 -8.21875 -1.460938 -9.640625 -1.964844 C -11.285156 -2.550781 -12.925781 -3.453125 -14.5625 -4.679688 L -14.5625 -5.9375 C -13.207031 -5.148438 -12.238281 -4.628906 -11.660156 -4.375 C -10.761719 -3.976562 -9.824219 -3.664062 -8.847656 -3.4375 C -7.628906 -3.15625 -6.40625 -3.019531 -5.175781 -3.019531 C -2.042969 -3.015625 1.085938 -3.992188 4.210938 -5.9375 Z M 4.210938 -4.679688 "/>
</g>
<g id="glyph-2-11">
<path d="M 0 -2.9375 L 0 -1.308594 L -14.316406 -1.308594 L -14.316406 -3.066406 L -9.210938 -3.066406 C -10.140625 -3.808594 -10.605469 -4.757812 -10.605469 -5.910156 C -10.605469 -6.546875 -10.476562 -7.148438 -10.21875 -7.71875 C -9.960938 -8.289062 -9.601562 -8.757812 -9.136719 -9.125 C -8.671875 -9.492188 -8.109375 -9.78125 -7.449219 -9.992188 C -6.792969 -10.199219 -6.089844 -10.304688 -5.339844 -10.304688 C -3.5625 -10.304688 -2.191406 -9.863281 -1.21875 -8.984375 C -0.25 -8.105469 0.234375 -7.050781 0.234375 -5.820312 C 0.234375 -4.597656 -0.277344 -3.636719 -1.296875 -2.9375 L 0 -2.9375 M -5.265625 -2.921875 C -4.019531 -2.921875 -3.121094 -3.089844 -2.570312 -3.429688 C -1.664062 -3.980469 -1.210938 -4.730469 -1.210938 -5.671875 C -1.210938 -6.441406 -1.542969 -7.105469 -2.210938 -7.664062 C -2.878906 -8.226562 -3.875 -8.507812 -5.195312 -8.507812 C -6.550781 -8.507812 -7.546875 -8.238281 -8.195312 -7.699219 C -8.835938 -7.164062 -9.160156 -6.515625 -9.160156 -5.753906 C -9.160156 -4.984375 -8.828125 -4.320312 -8.160156 -3.761719 C -7.492188 -3.199219 -6.527344 -2.921875 -5.265625 -2.921875 Z M -5.265625 -2.921875 "/>
</g>
<g id="glyph-2-12">
<path d="M 3.976562 -1.316406 L -10.371094 -1.320312 L -10.371094 -2.921875 L -9.023438 -2.921875 C -9.550781 -3.296875 -9.945312 -3.722656 -10.210938 -4.199219 C -10.472656 -4.675781 -10.605469 -5.25 -10.605469 -5.929688 C -10.605469 -6.8125 -10.378906 -7.59375 -9.921875 -8.273438 C -9.464844 -8.949219 -8.824219 -9.460938 -7.992188 -9.804688 C -7.164062 -10.148438 -6.253906 -10.320312 -5.261719 -10.320312 C -4.203125 -10.320312 -3.246094 -10.132812 -2.398438 -9.75 C -1.546875 -9.371094 -0.898438 -8.816406 -0.445312 -8.089844 C 0.0078125 -7.363281 0.234375 -6.601562 0.234375 -5.800781 C 0.234375 -5.214844 0.109375 -4.6875 -0.136719 -4.222656 C -0.382812 -3.757812 -0.695312 -3.375 -1.074219 -3.078125 L 3.976562 -3.074219 L 3.976562 -1.316406 M -5.125 -2.910156 C -3.792969 -2.910156 -2.804688 -3.179688 -2.167969 -3.71875 C -1.53125 -4.261719 -1.210938 -4.914062 -1.210938 -5.683594 C -1.210938 -6.464844 -1.542969 -7.132812 -2.203125 -7.691406 C -2.863281 -8.246094 -3.886719 -8.523438 -5.273438 -8.523438 C -6.59375 -8.523438 -7.585938 -8.253906 -8.242188 -7.710938 C -8.898438 -7.167969 -9.226562 -6.515625 -9.226562 -5.761719 C -9.226562 -5.011719 -8.878906 -4.351562 -8.179688 -3.773438 C -7.480469 -3.199219 -6.460938 -2.910156 -5.125 -2.910156 Z M -5.125 -2.910156 "/>
</g>
<g id="glyph-2-13">
<path d="M 4.210938 -2.46875 L 4.210938 -1.210938 C 1.085938 -3.15625 -2.042969 -4.128906 -5.175781 -4.132812 C -6.398438 -4.128906 -7.613281 -3.992188 -8.820312 -3.710938 C -9.792969 -3.488281 -10.734375 -3.179688 -11.632812 -2.785156 C -12.21875 -2.53125 -13.195312 -2.003906 -14.5625 -1.210938 L -14.5625 -2.472656 C -12.925781 -3.695312 -11.285156 -4.597656 -9.640625 -5.1875 C -8.21875 -5.6875 -6.734375 -5.9375 -5.1875 -5.9375 C -3.425781 -5.9375 -1.726562 -5.601562 -0.0859375 -4.925781 C 1.550781 -4.253906 2.984375 -3.433594 4.210938 -2.46875 Z M 4.210938 -2.46875 "/>
</g>
<g id="glyph-3-0">
<path d="M 1.851562 0 L 1.851562 -17.179688 L 7.769531 -17.179688 C 9.105469 -17.179688 10.125 -17.097656 10.828125 -16.933594 C 11.8125 -16.707031 12.652344 -16.296875 13.347656 -15.703125 C 14.253906 -14.9375 14.929688 -13.957031 15.382812 -12.765625 C 15.828125 -11.574219 16.054688 -10.214844 16.054688 -8.683594 C 16.054688 -7.378906 15.902344 -6.222656 15.597656 -5.214844 C 15.292969 -4.207031 14.902344 -3.371094 14.425781 -2.710938 C 13.949219 -2.050781 13.425781 -1.53125 12.859375 -1.15625 C 12.292969 -0.777344 11.609375 -0.488281 10.8125 -0.292969 C 10.007812 -0.0976562 9.089844 0 8.050781 0 L 1.851562 0 M 4.125 -2.027344 L 7.792969 -2.027344 C 8.925781 -2.027344 9.8125 -2.132812 10.460938 -2.34375 C 11.101562 -2.554688 11.617188 -2.851562 12 -3.234375 C 12.539062 -3.773438 12.957031 -4.496094 13.257812 -5.40625 C 13.558594 -6.316406 13.710938 -7.421875 13.710938 -8.71875 C 13.710938 -10.515625 13.414062 -11.894531 12.828125 -12.859375 C 12.234375 -13.824219 11.519531 -14.472656 10.675781 -14.800781 C 10.066406 -15.035156 9.085938 -15.152344 7.734375 -15.152344 L 4.125 -15.152344 Z M 4.125 -2.027344 "/>
</g>
<g id="glyph-3-1">
<path d="M -0.0351562 0 L 6.5625 -17.179688 L 9.011719 -17.179688 L 16.042969 0 L 13.453125 0 L 11.449219 -5.203125 L 4.265625 -5.203125 L 2.378906 0 L -0.0351562 0 M 4.921875 -7.054688 L 10.746094 -7.054688 L 8.953125 -11.8125 C 8.40625 -13.257812 8 -14.445312 7.734375 -15.375 C 7.515625 -14.273438 7.207031 -13.179688 6.808594 -12.09375 Z M 4.921875 -7.054688 "/>
</g>
<g id="glyph-3-2">
<path d="M 0.105469 0 L 6.75 -8.953125 L 0.890625 -17.179688 L 3.597656 -17.179688 L 6.714844 -12.773438 C 7.363281 -11.859375 7.824219 -11.15625 8.097656 -10.664062 C 8.480469 -11.289062 8.933594 -11.941406 9.457031 -12.621094 L 12.914062 -17.179688 L 15.386719 -17.179688 L 9.351562 -9.082031 L 15.855469 0 L 13.042969 0 L 8.71875 -6.128906 C 8.476562 -6.480469 8.226562 -6.863281 7.96875 -7.277344 C 7.585938 -6.652344 7.3125 -6.222656 7.148438 -5.988281 L 2.835938 0 Z M 0.105469 0 "/>
</g>
</g>
<clipPath id="clip-0">
<path clip-rule="nonzero" d="M 76.460938 44.15625 L 710.039062 44.15625 L 710.039062 370.746094 L 76.460938 370.746094 Z M 76.460938 44.15625 "/>
</clipPath>
<clipPath id="clip-1">
<path clip-rule="nonzero" d="M 76.460938 330 L 710.039062 330 L 710.039062 332 L 76.460938 332 Z M 76.460938 330 "/>
</clipPath>
<clipPath id="clip-2">
<path clip-rule="nonzero" d="M 76.460938 248 L 710.039062 248 L 710.039062 250 L 76.460938 250 Z M 76.460938 248 "/>
</clipPath>
<clipPath id="clip-3">
<path clip-rule="nonzero" d="M 76.460938 165 L 710.039062 165 L 710.039062 167 L 76.460938 167 Z M 76.460938 165 "/>
</clipPath>
<clipPath id="clip-4">
<path clip-rule="nonzero" d="M 76.460938 83 L 710.039062 83 L 710.039062 85 L 76.460938 85 Z M 76.460938 83 "/>
</clipPath>
<clipPath id="clip-5">
<path clip-rule="nonzero" d="M 176 44.15625 L 178 44.15625 L 178 370.746094 L 176 370.746094 Z M 176 44.15625 "/>
</clipPath>
<clipPath id="clip-6">
<path clip-rule="nonzero" d="M 320 44.15625 L 322 44.15625 L 322 370.746094 L 320 370.746094 Z M 320 44.15625 "/>
</clipPath>
<clipPath id="clip-7">
<path clip-rule="nonzero" d="M 464 44.15625 L 466 44.15625 L 466 370.746094 L 464 370.746094 Z M 464 44.15625 "/>
</clipPath>
<clipPath id="clip-8">
<path clip-rule="nonzero" d="M 608 44.15625 L 610 44.15625 L 610 370.746094 L 608 370.746094 Z M 608 44.15625 "/>
</clipPath>
<clipPath id="clip-9">
<path clip-rule="nonzero" d="M 76.460938 288 L 710.039062 288 L 710.039062 291 L 76.460938 291 Z M 76.460938 288 "/>
</clipPath>
<clipPath id="clip-10">
<path clip-rule="nonzero" d="M 76.460938 206 L 710.039062 206 L 710.039062 209 L 76.460938 209 Z M 76.460938 206 "/>
</clipPath>
<clipPath id="clip-11">
<path clip-rule="nonzero" d="M 76.460938 124 L 710.039062 124 L 710.039062 126 L 76.460938 126 Z M 76.460938 124 "/>
</clipPath>
<clipPath id="clip-12">
<path clip-rule="nonzero" d="M 104 44.15625 L 107 44.15625 L 107 370.746094 L 104 370.746094 Z M 104 44.15625 "/>
</clipPath>
<clipPath id="clip-13">
<path clip-rule="nonzero" d="M 248 44.15625 L 251 44.15625 L 251 370.746094 L 248 370.746094 Z M 248 44.15625 "/>
</clipPath>
<clipPath id="clip-14">
<path clip-rule="nonzero" d="M 392 44.15625 L 395 44.15625 L 395 370.746094 L 392 370.746094 Z M 392 44.15625 "/>
</clipPath>
<clipPath id="clip-15">
<path clip-rule="nonzero" d="M 536 44.15625 L 539 44.15625 L 539 370.746094 L 536 370.746094 Z M 536 44.15625 "/>
</clipPath>
<clipPath id="clip-16">
<path clip-rule="nonzero" d="M 680 44.15625 L 683 44.15625 L 683 370.746094 L 680 370.746094 Z M 680 44.15625 "/>
</clipPath>
<clipPath id="clip-17">
<path clip-rule="nonzero" d="M 76.460938 44.15625 L 710.039062 44.15625 L 710.039062 370.746094 L 76.460938 370.746094 Z M 76.460938 44.15625 "/>
</clipPath>
</defs>
<rect x="-72" y="-43.2" width="864" height="518.4" fill="rgb(100%, 100%, 100%)" fill-opacity="1"/>
<rect x="-72" y="-43.2" width="864" height="518.4" fill="rgb(100%, 100%, 100%)" fill-opacity="1"/>
<path fill="none" stroke-width="1.939961" stroke-linecap="round" stroke-linejoin="round" stroke="rgb(100%, 100%, 100%)" stroke-opacity="1" stroke-miterlimit="10" d="M 0 432 L 720 432 L 720 0 L 0 0 Z M 0 432 "/>
<g clip-path="url(#clip-0)">
<path fill-rule="nonzero" fill="rgb(100%, 100%, 100%)" fill-opacity="1" d="M 76.460938 370.742188 L 710.039062 370.742188 L 710.039062 44.152344 L 76.460938 44.152344 Z M 76.460938 370.742188 "/>
</g>
<g clip-path="url(#clip-1)">
<path fill="none" stroke-width="0.96998" stroke-linecap="butt" stroke-linejoin="round" stroke="rgb(92.156863%, 92.156863%, 92.156863%)" stroke-opacity="1" stroke-miterlimit="10" d="M 76.460938 331.15625 L 710.039062 331.15625 "/>
</g>
<g clip-path="url(#clip-2)">
<path fill="none" stroke-width="0.96998" stroke-linecap="butt" stroke-linejoin="round" stroke="rgb(92.156863%, 92.156863%, 92.156863%)" stroke-opacity="1" stroke-miterlimit="10" d="M 76.460938 248.6875 L 710.039062 248.6875 "/>
</g>
<g clip-path="url(#clip-3)">
<path fill="none" stroke-width="0.96998" stroke-linecap="butt" stroke-linejoin="round" stroke="rgb(92.156863%, 92.156863%, 92.156863%)" stroke-opacity="1" stroke-miterlimit="10" d="M 76.460938 166.214844 L 710.039062 166.214844 "/>
</g>
<g clip-path="url(#clip-4)">
<path fill="none" stroke-width="0.96998" stroke-linecap="butt" stroke-linejoin="round" stroke="rgb(92.156863%, 92.156863%, 92.156863%)" stroke-opacity="1" stroke-miterlimit="10" d="M 76.460938 83.742188 L 710.039062 83.742188 "/>
</g>
<g clip-path="url(#clip-5)">
<path fill="none" stroke-width="0.96998" stroke-linecap="butt" stroke-linejoin="round" stroke="rgb(92.156863%, 92.156863%, 92.156863%)" stroke-opacity="1" stroke-miterlimit="10" d="M 177.253906 370.742188 L 177.253906 44.15625 "/>
</g>
<g clip-path="url(#clip-6)">
<path fill="none" stroke-width="0.96998" stroke-linecap="butt" stroke-linejoin="round" stroke="rgb(92.156863%, 92.156863%, 92.156863%)" stroke-opacity="1" stroke-miterlimit="10" d="M 321.25 370.742188 L 321.25 44.15625 "/>
</g>
<g clip-path="url(#clip-7)">
<path fill="none" stroke-width="0.96998" stroke-linecap="butt" stroke-linejoin="round" stroke="rgb(92.156863%, 92.156863%, 92.156863%)" stroke-opacity="1" stroke-miterlimit="10" d="M 465.246094 370.742188 L 465.246094 44.15625 "/>
</g>
<g clip-path="url(#clip-8)">
<path fill="none" stroke-width="0.96998" stroke-linecap="butt" stroke-linejoin="round" stroke="rgb(92.156863%, 92.156863%, 92.156863%)" stroke-opacity="1" stroke-miterlimit="10" d="M 609.242188 370.742188 L 609.242188 44.15625 "/>
</g>
<g clip-path="url(#clip-9)">
<path fill="none" stroke-width="1.939961" stroke-linecap="butt" stroke-linejoin="round" stroke="rgb(92.156863%, 92.156863%, 92.156863%)" stroke-opacity="1" stroke-miterlimit="10" d="M 76.460938 289.921875 L 710.039062 289.921875 "/>
</g>
<g clip-path="url(#clip-10)">
<path fill="none" stroke-width="1.939961" stroke-linecap="butt" stroke-linejoin="round" stroke="rgb(92.156863%, 92.156863%, 92.156863%)" stroke-opacity="1" stroke-miterlimit="10" d="M 76.460938 207.449219 L 710.039062 207.449219 "/>
</g>
<g clip-path="url(#clip-11)">
<path fill="none" stroke-width="1.939961" stroke-linecap="butt" stroke-linejoin="round" stroke="rgb(92.156863%, 92.156863%, 92.156863%)" stroke-opacity="1" stroke-miterlimit="10" d="M 76.460938 124.976562 L 710.039062 124.976562 "/>
</g>
<g clip-path="url(#clip-12)">
<path fill="none" stroke-width="1.939961" stroke-linecap="butt" stroke-linejoin="round" stroke="rgb(92.156863%, 92.156863%, 92.156863%)" stroke-opacity="1" stroke-miterlimit="10" d="M 105.257812 370.742188 L 105.257812 44.15625 "/>
</g>
<g clip-path="url(#clip-13)">
<path fill="none" stroke-width="1.939961" stroke-linecap="butt" stroke-linejoin="round" stroke="rgb(92.156863%, 92.156863%, 92.156863%)" stroke-opacity="1" stroke-miterlimit="10" d="M 249.253906 370.742188 L 249.253906 44.15625 "/>
</g>
<g clip-path="url(#clip-14)">
<path fill="none" stroke-width="1.939961" stroke-linecap="butt" stroke-linejoin="round" stroke="rgb(92.156863%, 92.156863%, 92.156863%)" stroke-opacity="1" stroke-miterlimit="10" d="M 393.25 370.742188 L 393.25 44.15625 "/>
</g>
<g clip-path="url(#clip-15)">
<path fill="none" stroke-width="1.939961" stroke-linecap="butt" stroke-linejoin="round" stroke="rgb(92.156863%, 92.156863%, 92.156863%)" stroke-opacity="1" stroke-miterlimit="10" d="M 537.242188 370.742188 L 537.242188 44.15625 "/>
</g>
<g clip-path="url(#clip-16)">
<path fill="none" stroke-width="1.939961" stroke-linecap="butt" stroke-linejoin="round" stroke="rgb(92.156863%, 92.156863%, 92.156863%)" stroke-opacity="1" stroke-miterlimit="10" d="M 681.238281 370.742188 L 681.238281 44.15625 "/>
</g>
<path fill-rule="nonzero" fill="rgb(0%, 0%, 0%)" fill-opacity="1" stroke-width="1.288475" stroke-linecap="round" stroke-linejoin="round" stroke="rgb(0%, 0%, 0%)" stroke-opacity="1" stroke-miterlimit="10" d="M 187.234375 293.8125 C 187.234375 297.519531 181.675781 297.519531 181.675781 293.8125 C 181.675781 290.109375 187.234375 290.109375 187.234375 293.8125 "/>
<path fill-rule="nonzero" fill="rgb(0%, 0%, 0%)" fill-opacity="1" stroke-width="1.288475" stroke-linecap="round" stroke-linejoin="round" stroke="rgb(0%, 0%, 0%)" stroke-opacity="1" stroke-miterlimit="10" d="M 194.433594 314.6875 C 194.433594 318.390625 188.878906 318.390625 188.878906 314.6875 C 188.878906 310.984375 194.433594 310.984375 194.433594 314.6875 "/>
<path fill-rule="nonzero" fill="rgb(0%, 0%, 0%)" fill-opacity="1" stroke-width="1.288475" stroke-linecap="round" stroke-linejoin="round" stroke="rgb(0%, 0%, 0%)" stroke-opacity="1" stroke-miterlimit="10" d="M 208.832031 299.917969 C 208.832031 303.621094 203.277344 303.621094 203.277344 299.917969 C 203.277344 296.210938 208.832031 296.210938 208.832031 299.917969 "/>
<path fill-rule="nonzero" fill="rgb(0%, 0%, 0%)" fill-opacity="1" stroke-width="1.288475" stroke-linecap="round" stroke-linejoin="round" stroke="rgb(0%, 0%, 0%)" stroke-opacity="1" stroke-miterlimit="10" d="M 216.03125 301.511719 C 216.03125 305.214844 210.476562 305.214844 210.476562 301.511719 C 210.476562 297.808594 216.03125 297.808594 216.03125 301.511719 "/>
<path fill-rule="nonzero" fill="rgb(0%, 0%, 0%)" fill-opacity="1" stroke-width="1.288475" stroke-linecap="round" stroke-linejoin="round" stroke="rgb(0%, 0%, 0%)" stroke-opacity="1" stroke-miterlimit="10" d="M 223.230469 281.222656 C 223.230469 284.929688 217.675781 284.929688 217.675781 281.222656 C 217.675781 277.519531 223.230469 277.519531 223.230469 281.222656 "/>
<path fill-rule="nonzero" fill="rgb(0%, 0%, 0%)" fill-opacity="1" stroke-width="1.288475" stroke-linecap="round" stroke-linejoin="round" stroke="rgb(0%, 0%, 0%)" stroke-opacity="1" stroke-miterlimit="10" d="M 230.433594 265.71875 C 230.433594 269.421875 224.875 269.421875 224.875 265.71875 C 224.875 262.011719 230.433594 262.011719 230.433594 265.71875 "/>
<path fill-rule="nonzero" fill="rgb(0%, 0%, 0%)" fill-opacity="1" stroke-width="1.288475" stroke-linecap="round" stroke-linejoin="round" stroke="rgb(0%, 0%, 0%)" stroke-opacity="1" stroke-miterlimit="10" d="M 237.632812 271.535156 C 237.632812 275.238281 232.074219 275.238281 232.074219 271.535156 C 232.074219 267.828125 237.632812 267.828125 237.632812 271.535156 "/>
<path fill-rule="nonzero" fill="rgb(0%, 0%, 0%)" fill-opacity="1" stroke-width="1.288475" stroke-linecap="round" stroke-linejoin="round" stroke="rgb(0%, 0%, 0%)" stroke-opacity="1" stroke-miterlimit="10" d="M 244.832031 253.28125 C 244.832031 256.984375 239.273438 256.984375 239.273438 253.28125 C 239.273438 249.578125 244.832031 249.578125 244.832031 253.28125 "/>
<path fill-rule="nonzero" fill="rgb(0%, 0%, 0%)" fill-opacity="1" stroke-width="1.288475" stroke-linecap="round" stroke-linejoin="round" stroke="rgb(0%, 0%, 0%)" stroke-opacity="1" stroke-miterlimit="10" d="M 252.03125 277.875 C 252.03125 281.578125 246.476562 281.578125 246.476562 277.875 C 246.476562 274.171875 252.03125 274.171875 252.03125 277.875 "/>
<path fill-rule="nonzero" fill="rgb(0%, 0%, 0%)" fill-opacity="1" stroke-width="1.288475" stroke-linecap="round" stroke-linejoin="round" stroke="rgb(0%, 0%, 0%)" stroke-opacity="1" stroke-miterlimit="10" d="M 259.230469 269.621094 C 259.230469 273.328125 253.675781 273.328125 253.675781 269.621094 C 253.675781 265.917969 259.230469 265.917969 259.230469 269.621094 "/>
<path fill-rule="nonzero" fill="rgb(0%, 0%, 0%)" fill-opacity="1" stroke-width="1.288475" stroke-linecap="round" stroke-linejoin="round" stroke="rgb(0%, 0%, 0%)" stroke-opacity="1" stroke-miterlimit="10" d="M 266.429688 302.21875 C 266.429688 305.921875 260.875 305.921875 260.875 302.21875 C 260.875 298.515625 266.429688 298.515625 266.429688 302.21875 "/>
<path fill-rule="nonzero" fill="rgb(0%, 0%, 0%)" fill-opacity="1" stroke-width="1.288475" stroke-linecap="round" stroke-linejoin="round" stroke="rgb(0%, 0%, 0%)" stroke-opacity="1" stroke-miterlimit="10" d="M 273.628906 275.140625 C 273.628906 278.84375 268.074219 278.84375 268.074219 275.140625 C 268.074219 271.433594 273.628906 271.433594 273.628906 275.140625 "/>
<path fill-rule="nonzero" fill="rgb(0%, 0%, 0%)" fill-opacity="1" stroke-width="1.288475" stroke-linecap="round" stroke-linejoin="round" stroke="rgb(0%, 0%, 0%)" stroke-opacity="1" stroke-miterlimit="10" d="M 280.832031 272.640625 C 280.832031 276.34375 275.273438 276.34375 275.273438 272.640625 C 275.273438 268.933594 280.832031 268.933594 280.832031 272.640625 "/>
<path fill-rule="nonzero" fill="rgb(0%, 0%, 0%)" fill-opacity="1" stroke-width="1.288475" stroke-linecap="round" stroke-linejoin="round" stroke="rgb(0%, 0%, 0%)" stroke-opacity="1" stroke-miterlimit="10" d="M 288.03125 252.410156 C 288.03125 256.113281 282.472656 256.113281 282.472656 252.410156 C 282.472656 248.707031 288.03125 248.707031 288.03125 252.410156 "/>
<path fill-rule="nonzero" fill="rgb(0%, 0%, 0%)" fill-opacity="1" stroke-width="1.288475" stroke-linecap="round" stroke-linejoin="round" stroke="rgb(0%, 0%, 0%)" stroke-opacity="1" stroke-miterlimit="10" d="M 295.230469 247.417969 C 295.230469 251.121094 289.671875 251.121094 289.671875 247.417969 C 289.671875 243.710938 295.230469 243.710938 295.230469 247.417969 "/>
<path fill-rule="nonzero" fill="rgb(0%, 0%, 0%)" fill-opacity="1" stroke-width="1.288475" stroke-linecap="round" stroke-linejoin="round" stroke="rgb(0%, 0%, 0%)" stroke-opacity="1" stroke-miterlimit="10" d="M 302.429688 241.710938 C 302.429688 245.417969 296.875 245.417969 296.875 241.710938 C 296.875 238.007812 302.429688 238.007812 302.429688 241.710938 "/>
<path fill-rule="nonzero" fill="rgb(0%, 0%, 0%)" fill-opacity="1" stroke-width="1.288475" stroke-linecap="round" stroke-linejoin="round" stroke="rgb(0%, 0%, 0%)" stroke-opacity="1" stroke-miterlimit="10" d="M 309.628906 247.476562 C 309.628906 251.179688 304.074219 251.179688 304.074219 247.476562 C 304.074219 243.773438 309.628906 243.773438 309.628906 247.476562 "/>
<path fill-rule="nonzero" fill="rgb(0%, 0%, 0%)" fill-opacity="1" stroke-width="1.288475" stroke-linecap="round" stroke-linejoin="round" stroke="rgb(0%, 0%, 0%)" stroke-opacity="1" stroke-miterlimit="10" d="M 316.828125 228.796875 C 316.828125 232.5 311.273438 232.5 311.273438 228.796875 C 311.273438 225.09375 316.828125 225.09375 316.828125 228.796875 "/>
<path fill-rule="nonzero" fill="rgb(0%, 0%, 0%)" fill-opacity="1" stroke-width="1.288475" stroke-linecap="round" stroke-linejoin="round" stroke="rgb(0%, 0%, 0%)" stroke-opacity="1" stroke-miterlimit="10" d="M 324.027344 233.414062 C 324.027344 237.121094 318.472656 237.121094 318.472656 233.414062 C 318.472656 229.710938 324.027344 229.710938 324.027344 233.414062 "/>
<path fill-rule="nonzero" fill="rgb(0%, 0%, 0%)" fill-opacity="1" stroke-width="1.288475" stroke-linecap="round" stroke-linejoin="round" stroke="rgb(0%, 0%, 0%)" stroke-opacity="1" stroke-miterlimit="10" d="M 331.230469 235.226562 C 331.230469 238.929688 325.671875 238.929688 325.671875 235.226562 C 325.671875 231.519531 331.230469 231.519531 331.230469 235.226562 "/>
<path fill-rule="nonzero" fill="rgb(0%, 0%, 0%)" fill-opacity="1" stroke-width="1.288475" stroke-linecap="round" stroke-linejoin="round" stroke="rgb(0%, 0%, 0%)" stroke-opacity="1" stroke-miterlimit="10" d="M 338.429688 226.195312 C 338.429688 229.898438 332.871094 229.898438 332.871094 226.195312 C 332.871094 222.492188 338.429688 222.492188 338.429688 226.195312 "/>
<path fill-rule="nonzero" fill="rgb(0%, 0%, 0%)" fill-opacity="1" stroke-width="1.288475" stroke-linecap="round" stroke-linejoin="round" stroke="rgb(0%, 0%, 0%)" stroke-opacity="1" stroke-miterlimit="10" d="M 345.628906 218.796875 C 345.628906 222.5 340.070312 222.5 340.070312 218.796875 C 340.070312 215.089844 345.628906 215.089844 345.628906 218.796875 "/>
<path fill-rule="nonzero" fill="rgb(0%, 0%, 0%)" fill-opacity="1" stroke-width="1.288475" stroke-linecap="round" stroke-linejoin="round" stroke="rgb(0%, 0%, 0%)" stroke-opacity="1" stroke-miterlimit="10" d="M 352.828125 219.613281 C 352.828125 223.316406 347.273438 223.316406 347.273438 219.613281 C 347.273438 215.910156 352.828125 215.910156 352.828125 219.613281 "/>
<path fill-rule="nonzero" fill="rgb(0%, 0%, 0%)" fill-opacity="1" stroke-width="1.288475" stroke-linecap="round" stroke-linejoin="round" stroke="rgb(0%, 0%, 0%)" stroke-opacity="1" stroke-miterlimit="10" d="M 360.027344 219.171875 C 360.027344 222.878906 354.472656 222.878906 354.472656 219.171875 C 354.472656 215.46875 360.027344 215.46875 360.027344 219.171875 "/>
<path fill-rule="nonzero" fill="rgb(0%, 0%, 0%)" fill-opacity="1" stroke-width="1.288475" stroke-linecap="round" stroke-linejoin="round" stroke="rgb(0%, 0%, 0%)" stroke-opacity="1" stroke-miterlimit="10" d="M 367.226562 218.746094 C 367.226562 222.449219 361.671875 222.449219 361.671875 218.746094 C 361.671875 215.042969 367.226562 215.042969 367.226562 218.746094 "/>
<path fill-rule="nonzero" fill="rgb(0%, 0%, 0%)" fill-opacity="1" stroke-width="1.288475" stroke-linecap="round" stroke-linejoin="round" stroke="rgb(0%, 0%, 0%)" stroke-opacity="1" stroke-miterlimit="10" d="M 374.425781 216.203125 C 374.425781 219.90625 368.871094 219.90625 368.871094 216.203125 C 368.871094 212.496094 374.425781 212.496094 374.425781 216.203125 "/>
<path fill-rule="nonzero" fill="rgb(0%, 0%, 0%)" fill-opacity="1" stroke-width="1.288475" stroke-linecap="round" stroke-linejoin="round" stroke="rgb(0%, 0%, 0%)" stroke-opacity="1" stroke-miterlimit="10" d="M 381.625 212.34375 C 381.625 216.050781 376.070312 216.050781 376.070312 212.34375 C 376.070312 208.640625 381.625 208.640625 381.625 212.34375 "/>
<path fill-rule="nonzero" fill="rgb(0%, 0%, 0%)" fill-opacity="1" stroke-width="1.288475" stroke-linecap="round" stroke-linejoin="round" stroke="rgb(0%, 0%, 0%)" stroke-opacity="1" stroke-miterlimit="10" d="M 388.828125 209.117188 C 388.828125 212.820312 383.269531 212.820312 383.269531 209.117188 C 383.269531 205.414062 388.828125 205.414062 388.828125 209.117188 "/>
<path fill-rule="nonzero" fill="rgb(0%, 0%, 0%)" fill-opacity="1" stroke-width="1.288475" stroke-linecap="round" stroke-linejoin="round" stroke="rgb(0%, 0%, 0%)" stroke-opacity="1" stroke-miterlimit="10" d="M 396.027344 199.863281 C 396.027344 203.566406 390.46875 203.566406 390.46875 199.863281 C 390.46875 196.15625 396.027344 196.15625 396.027344 199.863281 "/>
<path fill-rule="nonzero" fill="rgb(0%, 0%, 0%)" fill-opacity="1" stroke-width="1.288475" stroke-linecap="round" stroke-linejoin="round" stroke="rgb(0%, 0%, 0%)" stroke-opacity="1" stroke-miterlimit="10" d="M 403.226562 201.832031 C 403.226562 205.535156 397.667969 205.535156 397.667969 201.832031 C 397.667969 198.128906 403.226562 198.128906 403.226562 201.832031 "/>
<path fill-rule="nonzero" fill="rgb(0%, 0%, 0%)" fill-opacity="1" stroke-width="1.288475" stroke-linecap="round" stroke-linejoin="round" stroke="rgb(0%, 0%, 0%)" stroke-opacity="1" stroke-miterlimit="10" d="M 410.425781 198.332031 C 410.425781 202.035156 404.871094 202.035156 404.871094 198.332031 C 404.871094 194.628906 410.425781 194.628906 410.425781 198.332031 "/>
<path fill-rule="nonzero" fill="rgb(0%, 0%, 0%)" fill-opacity="1" stroke-width="1.288475" stroke-linecap="round" stroke-linejoin="round" stroke="rgb(0%, 0%, 0%)" stroke-opacity="1" stroke-miterlimit="10" d="M 417.625 196.519531 C 417.625 200.226562 412.070312 200.226562 412.070312 196.519531 C 412.070312 192.816406 417.625 192.816406 417.625 196.519531 "/>
<path fill-rule="nonzero" fill="rgb(0%, 0%, 0%)" fill-opacity="1" stroke-width="1.288475" stroke-linecap="round" stroke-linejoin="round" stroke="rgb(0%, 0%, 0%)" stroke-opacity="1" stroke-miterlimit="10" d="M 424.824219 202.105469 C 424.824219 205.808594 419.269531 205.808594 419.269531 202.105469 C 419.269531 198.398438 424.824219 198.398438 424.824219 202.105469 "/>
<path fill-rule="nonzero" fill="rgb(0%, 0%, 0%)" fill-opacity="1" stroke-width="1.288475" stroke-linecap="round" stroke-linejoin="round" stroke="rgb(0%, 0%, 0%)" stroke-opacity="1" stroke-miterlimit="10" d="M 432.023438 193.144531 C 432.023438 196.851562 426.46875 196.851562 426.46875 193.144531 C 426.46875 189.441406 432.023438 189.441406 432.023438 193.144531 "/>
<path fill-rule="nonzero" fill="rgb(0%, 0%, 0%)" fill-opacity="1" stroke-width="1.288475" stroke-linecap="round" stroke-linejoin="round" stroke="rgb(0%, 0%, 0%)" stroke-opacity="1" stroke-miterlimit="10" d="M 439.226562 188.164062 C 439.226562 191.867188 433.667969 191.867188 433.667969 188.164062 C 433.667969 184.460938 439.226562 184.460938 439.226562 188.164062 "/>
<path fill-rule="nonzero" fill="rgb(0%, 0%, 0%)" fill-opacity="1" stroke-width="1.288475" stroke-linecap="round" stroke-linejoin="round" stroke="rgb(0%, 0%, 0%)" stroke-opacity="1" stroke-miterlimit="10" d="M 446.425781 187.445312 C 446.425781 191.152344 440.867188 191.152344 440.867188 187.445312 C 440.867188 183.742188 446.425781 183.742188 446.425781 187.445312 "/>
<path fill-rule="nonzero" fill="rgb(0%, 0%, 0%)" fill-opacity="1" stroke-width="1.288475" stroke-linecap="round" stroke-linejoin="round" stroke="rgb(0%, 0%, 0%)" stroke-opacity="1" stroke-miterlimit="10" d="M 453.625 178.832031 C 453.625 182.535156 448.066406 182.535156 448.066406 178.832031 C 448.066406 175.128906 453.625 175.128906 453.625 178.832031 "/>
<path fill-rule="nonzero" fill="rgb(0%, 0%, 0%)" fill-opacity="1" stroke-width="1.288475" stroke-linecap="round" stroke-linejoin="round" stroke="rgb(0%, 0%, 0%)" stroke-opacity="1" stroke-miterlimit="10" d="M 460.824219 186.917969 C 460.824219 190.621094 455.269531 190.621094 455.269531 186.917969 C 455.269531 183.210938 460.824219 183.210938 460.824219 186.917969 "/>
<path fill-rule="nonzero" fill="rgb(0%, 0%, 0%)" fill-opacity="1" stroke-width="1.288475" stroke-linecap="round" stroke-linejoin="round" stroke="rgb(0%, 0%, 0%)" stroke-opacity="1" stroke-miterlimit="10" d="M 468.023438 178.414062 C 468.023438 182.121094 462.46875 182.121094 462.46875 178.414062 C 462.46875 174.710938 468.023438 174.710938 468.023438 178.414062 "/>
<path fill-rule="nonzero" fill="rgb(0%, 0%, 0%)" fill-opacity="1" stroke-width="1.288475" stroke-linecap="round" stroke-linejoin="round" stroke="rgb(0%, 0%, 0%)" stroke-opacity="1" stroke-miterlimit="10" d="M 475.222656 181.847656 C 475.222656 185.554688 469.667969 185.554688 469.667969 181.847656 C 469.667969 178.144531 475.222656 178.144531 475.222656 181.847656 "/>
<path fill-rule="nonzero" fill="rgb(0%, 0%, 0%)" fill-opacity="1" stroke-width="1.288475" stroke-linecap="round" stroke-linejoin="round" stroke="rgb(0%, 0%, 0%)" stroke-opacity="1" stroke-miterlimit="10" d="M 482.421875 174.921875 C 482.421875 178.625 476.867188 178.625 476.867188 174.921875 C 476.867188 171.214844 482.421875 171.214844 482.421875 174.921875 "/>
<path fill-rule="nonzero" fill="rgb(0%, 0%, 0%)" fill-opacity="1" stroke-width="1.288475" stroke-linecap="round" stroke-linejoin="round" stroke="rgb(0%, 0%, 0%)" stroke-opacity="1" stroke-miterlimit="10" d="M 489.625 169.488281 C 489.625 173.191406 484.066406 173.191406 484.066406 169.488281 C 484.066406 165.785156 489.625 165.785156 489.625 169.488281 "/>
<path fill-rule="nonzero" fill="rgb(0%, 0%, 0%)" fill-opacity="1" stroke-width="1.288475" stroke-linecap="round" stroke-linejoin="round" stroke="rgb(0%, 0%, 0%)" stroke-opacity="1" stroke-miterlimit="10" d="M 496.824219 180.394531 C 496.824219 184.097656 491.265625 184.097656 491.265625 180.394531 C 491.265625 176.691406 496.824219 176.691406 496.824219 180.394531 "/>
<path fill-rule="nonzero" fill="rgb(0%, 0%, 0%)" fill-opacity="1" stroke-width="1.288475" stroke-linecap="round" stroke-linejoin="round" stroke="rgb(0%, 0%, 0%)" stroke-opacity="1" stroke-miterlimit="10" d="M 504.023438 167.570312 C 504.023438 171.273438 498.464844 171.273438 498.464844 167.570312 C 498.464844 163.867188 504.023438 163.867188 504.023438 167.570312 "/>
<path fill-rule="nonzero" fill="rgb(0%, 0%, 0%)" fill-opacity="1" stroke-width="1.288475" stroke-linecap="round" stroke-linejoin="round" stroke="rgb(0%, 0%, 0%)" stroke-opacity="1" stroke-miterlimit="10" d="M 511.222656 167.476562 C 511.222656 171.179688 505.667969 171.179688 505.667969 167.476562 C 505.667969 163.773438 511.222656 163.773438 511.222656 167.476562 "/>
<path fill-rule="nonzero" fill="rgb(0%, 0%, 0%)" fill-opacity="1" stroke-width="1.288475" stroke-linecap="round" stroke-linejoin="round" stroke="rgb(0%, 0%, 0%)" stroke-opacity="1" stroke-miterlimit="10" d="M 518.421875 161.652344 C 518.421875 165.355469 512.867188 165.355469 512.867188 161.652344 C 512.867188 157.945312 518.421875 157.945312 518.421875 161.652344 "/>
<path fill-rule="nonzero" fill="rgb(0%, 0%, 0%)" fill-opacity="1" stroke-width="1.288475" stroke-linecap="round" stroke-linejoin="round" stroke="rgb(0%, 0%, 0%)" stroke-opacity="1" stroke-miterlimit="10" d="M 525.621094 134.910156 C 525.621094 138.613281 520.066406 138.613281 520.066406 134.910156 C 520.066406 131.207031 525.621094 131.207031 525.621094 134.910156 "/>
<path fill-rule="nonzero" fill="rgb(0%, 0%, 0%)" fill-opacity="1" stroke-width="1.288475" stroke-linecap="round" stroke-linejoin="round" stroke="rgb(0%, 0%, 0%)" stroke-opacity="1" stroke-miterlimit="10" d="M 532.820312 136.328125 C 532.820312 140.03125 527.265625 140.03125 527.265625 136.328125 C 527.265625 132.625 532.820312 132.625 532.820312 136.328125 "/>
<path fill-rule="nonzero" fill="rgb(0%, 0%, 0%)" fill-opacity="1" stroke-width="1.288475" stroke-linecap="round" stroke-linejoin="round" stroke="rgb(0%, 0%, 0%)" stroke-opacity="1" stroke-miterlimit="10" d="M 547.222656 130.875 C 547.222656 134.582031 541.664062 134.582031 541.664062 130.875 C 541.664062 127.171875 547.222656 127.171875 547.222656 130.875 "/>
<path fill-rule="nonzero" fill="rgb(0%, 0%, 0%)" fill-opacity="1" stroke-width="1.288475" stroke-linecap="round" stroke-linejoin="round" stroke="rgb(0%, 0%, 0%)" stroke-opacity="1" stroke-miterlimit="10" d="M 554.421875 133.179688 C 554.421875 136.886719 548.863281 136.886719 548.863281 133.179688 C 548.863281 129.476562 554.421875 129.476562 554.421875 133.179688 "/>
<path fill-rule="nonzero" fill="rgb(0%, 0%, 0%)" fill-opacity="1" stroke-width="1.288475" stroke-linecap="round" stroke-linejoin="round" stroke="rgb(0%, 0%, 0%)" stroke-opacity="1" stroke-miterlimit="10" d="M 561.621094 198.414062 C 561.621094 202.117188 556.0625 202.117188 556.0625 198.414062 C 556.0625 194.710938 561.621094 194.710938 561.621094 198.414062 "/>
<path fill-rule="nonzero" fill="rgb(0%, 0%, 0%)" fill-opacity="1" stroke-width="1.288475" stroke-linecap="round" stroke-linejoin="round" stroke="rgb(0%, 0%, 0%)" stroke-opacity="1" stroke-miterlimit="10" d="M 568.820312 114.800781 C 568.820312 118.503906 563.265625 118.503906 563.265625 114.800781 C 563.265625 111.097656 568.820312 111.097656 568.820312 114.800781 "/>
<path fill-rule="nonzero" fill="rgb(0%, 0%, 0%)" fill-opacity="1" stroke-width="1.288475" stroke-linecap="round" stroke-linejoin="round" stroke="rgb(0%, 0%, 0%)" stroke-opacity="1" stroke-miterlimit="10" d="M 576.019531 143.214844 C 576.019531 146.921875 570.464844 146.921875 570.464844 143.214844 C 570.464844 139.511719 576.019531 139.511719 576.019531 143.214844 "/>
<path fill-rule="nonzero" fill="rgb(0%, 0%, 0%)" fill-opacity="1" stroke-width="1.288475" stroke-linecap="round" stroke-linejoin="round" stroke="rgb(0%, 0%, 0%)" stroke-opacity="1" stroke-miterlimit="10" d="M 583.21875 84.117188 C 583.21875 87.820312 577.664062 87.820312 577.664062 84.117188 C 577.664062 80.410156 583.21875 80.410156 583.21875 84.117188 "/>
<path fill-rule="nonzero" fill="rgb(0%, 0%, 0%)" fill-opacity="1" stroke-width="1.288475" stroke-linecap="round" stroke-linejoin="round" stroke="rgb(0%, 0%, 0%)" stroke-opacity="1" stroke-miterlimit="10" d="M 590.417969 148.472656 C 590.417969 152.175781 584.863281 152.175781 584.863281 148.472656 C 584.863281 144.769531 590.417969 144.769531 590.417969 148.472656 "/>
<path fill-rule="nonzero" fill="rgb(0%, 0%, 0%)" fill-opacity="1" stroke-width="1.288475" stroke-linecap="round" stroke-linejoin="round" stroke="rgb(0%, 0%, 0%)" stroke-opacity="1" stroke-miterlimit="10" d="M 604.820312 146.289062 C 604.820312 149.992188 599.261719 149.992188 599.261719 146.289062 C 599.261719 142.585938 604.820312 142.585938 604.820312 146.289062 "/>
<path fill-rule="nonzero" fill="rgb(0%, 0%, 0%)" fill-opacity="1" stroke-width="1.288475" stroke-linecap="round" stroke-linejoin="round" stroke="rgb(0%, 0%, 0%)" stroke-opacity="1" stroke-miterlimit="10" d="M 612.019531 207.449219 C 612.019531 211.152344 606.460938 211.152344 606.460938 207.449219 C 606.460938 203.746094 612.019531 203.746094 612.019531 207.449219 "/>
<path fill-rule="nonzero" fill="rgb(0%, 0%, 0%)" fill-opacity="1" stroke-width="1.288475" stroke-linecap="round" stroke-linejoin="round" stroke="rgb(0%, 0%, 0%)" stroke-opacity="1" stroke-miterlimit="10" d="M 619.21875 183.300781 C 619.21875 187.003906 613.664062 187.003906 613.664062 183.300781 C 613.664062 179.597656 619.21875 179.597656 619.21875 183.300781 "/>
<path fill-rule="nonzero" fill="rgb(0%, 0%, 0%)" fill-opacity="1" stroke-width="1.288475" stroke-linecap="round" stroke-linejoin="round" stroke="rgb(0%, 0%, 0%)" stroke-opacity="1" stroke-miterlimit="10" d="M 633.617188 163.632812 C 633.617188 167.335938 628.0625 167.335938 628.0625 163.632812 C 628.0625 159.925781 633.617188 159.925781 633.617188 163.632812 "/>
<g clip-path="url(#clip-17)">
<path fill="none" stroke-width="1.939961" stroke-linecap="round" stroke-linejoin="round" stroke="rgb(20%, 20%, 20%)" stroke-opacity="1" stroke-miterlimit="10" d="M 76.460938 370.742188 L 710.039062 370.742188 L 710.039062 44.152344 L 76.460938 44.152344 Z M 76.460938 370.742188 "/>
</g>
<g fill="rgb(30.196078%, 30.196078%, 30.196078%)" fill-opacity="1">
<use xlink:href="#glyph-0-0" x="35.46875" y="296.148438"/>
<use xlink:href="#glyph-0-1" x="40.796875" y="296.148438"/>
<use xlink:href="#glyph-0-2" x="49.695312" y="296.148438"/>
<use xlink:href="#glyph-0-3" x="58.59375" y="296.148438"/>
</g>
<g fill="rgb(30.196078%, 30.196078%, 30.196078%)" fill-opacity="1">
<use xlink:href="#glyph-0-3" x="58.59375" y="213.675781"/>
</g>
<g fill="rgb(30.196078%, 30.196078%, 30.196078%)" fill-opacity="1">
<use xlink:href="#glyph-0-1" x="40.796875" y="131.203125"/>
<use xlink:href="#glyph-0-2" x="49.695312" y="131.203125"/>
<use xlink:href="#glyph-0-3" x="58.59375" y="131.203125"/>
</g>
<path fill="none" stroke-width="1.939961" stroke-linecap="butt" stroke-linejoin="round" stroke="rgb(20%, 20%, 20%)" stroke-opacity="1" stroke-miterlimit="10" d="M 71.476562 289.921875 L 76.460938 289.921875 "/>
<path fill="none" stroke-width="1.939961" stroke-linecap="butt" stroke-linejoin="round" stroke="rgb(20%, 20%, 20%)" stroke-opacity="1" stroke-miterlimit="10" d="M 71.476562 207.449219 L 76.460938 207.449219 "/>
<path fill="none" stroke-width="1.939961" stroke-linecap="butt" stroke-linejoin="round" stroke="rgb(20%, 20%, 20%)" stroke-opacity="1" stroke-miterlimit="10" d="M 71.476562 124.976562 L 76.460938 124.976562 "/>
<path fill="none" stroke-width="1.939961" stroke-linecap="butt" stroke-linejoin="round" stroke="rgb(20%, 20%, 20%)" stroke-opacity="1" stroke-miterlimit="10" d="M 105.257812 375.726562 L 105.257812 370.742188 "/>
<path fill="none" stroke-width="1.939961" stroke-linecap="butt" stroke-linejoin="round" stroke="rgb(20%, 20%, 20%)" stroke-opacity="1" stroke-miterlimit="10" d="M 249.253906 375.726562 L 249.253906 370.742188 "/>
<path fill="none" stroke-width="1.939961" stroke-linecap="butt" stroke-linejoin="round" stroke="rgb(20%, 20%, 20%)" stroke-opacity="1" stroke-miterlimit="10" d="M 393.25 375.726562 L 393.25 370.742188 "/>
<path fill="none" stroke-width="1.939961" stroke-linecap="butt" stroke-linejoin="round" stroke="rgb(20%, 20%, 20%)" stroke-opacity="1" stroke-miterlimit="10" d="M 537.242188 375.726562 L 537.242188 370.742188 "/>
<path fill="none" stroke-width="1.939961" stroke-linecap="butt" stroke-linejoin="round" stroke="rgb(20%, 20%, 20%)" stroke-opacity="1" stroke-miterlimit="10" d="M 681.238281 375.726562 L 681.238281 370.742188 "/>
<g fill="rgb(30.196078%, 30.196078%, 30.196078%)" fill-opacity="1">
<use xlink:href="#glyph-0-0" x="89.246094" y="392.164062"/>
<use xlink:href="#glyph-0-4" x="94.574219" y="392.164062"/>
<use xlink:href="#glyph-0-3" x="103.472656" y="392.164062"/>
<use xlink:href="#glyph-0-3" x="112.371094" y="392.164062"/>
</g>
<g fill="rgb(30.196078%, 30.196078%, 30.196078%)" fill-opacity="1">
<use xlink:href="#glyph-0-0" x="233.242188" y="392.164062"/>
<use xlink:href="#glyph-0-1" x="238.570312" y="392.164062"/>
<use xlink:href="#glyph-0-3" x="247.46875" y="392.164062"/>
<use xlink:href="#glyph-0-3" x="256.367188" y="392.164062"/>
</g>
<g fill="rgb(30.196078%, 30.196078%, 30.196078%)" fill-opacity="1">
<use xlink:href="#glyph-0-3" x="388.800781" y="392.164062"/>
</g>
<g fill="rgb(30.196078%, 30.196078%, 30.196078%)" fill-opacity="1">
<use xlink:href="#glyph-0-1" x="523.894531" y="392.164062"/>
<use xlink:href="#glyph-0-3" x="532.792969" y="392.164062"/>
<use xlink:href="#glyph-0-3" x="541.691406" y="392.164062"/>
</g>
<g fill="rgb(30.196078%, 30.196078%, 30.196078%)" fill-opacity="1">
<use xlink:href="#glyph-0-4" x="667.890625" y="392.164062"/>
<use xlink:href="#glyph-0-3" x="676.789062" y="392.164062"/>
<use xlink:href="#glyph-0-3" x="685.6875" y="392.164062"/>
</g>
<g fill="rgb(0%, 0%, 0%)" fill-opacity="1">
<use xlink:href="#glyph-1-0" x="302.109375" y="416.828125"/>
<use xlink:href="#glyph-1-1" x="314.326172" y="416.828125"/>
<use xlink:href="#glyph-1-2" x="326.542969" y="416.828125"/>
<use xlink:href="#glyph-1-3" x="339.882812" y="416.828125"/>
<use xlink:href="#glyph-1-4" x="353.222656" y="416.828125"/>
<use xlink:href="#glyph-1-5" x="358.779297" y="416.828125"/>
<use xlink:href="#glyph-1-6" x="365.439453" y="416.828125"/>
<use xlink:href="#glyph-1-7" x="376.5625" y="416.828125"/>
<use xlink:href="#glyph-1-8" x="382.119141" y="416.828125"/>
<use xlink:href="#glyph-1-5" x="393.242188" y="416.828125"/>
<use xlink:href="#glyph-1-9" x="399.902344" y="416.828125"/>
<use xlink:href="#glyph-1-4" x="411.025391" y="416.828125"/>
<use xlink:href="#glyph-1-10" x="416.582031" y="416.828125"/>
<use xlink:href="#glyph-1-11" x="427.705078" y="416.828125"/>
<use xlink:href="#glyph-1-9" x="432.148438" y="416.828125"/>
<use xlink:href="#glyph-1-4" x="443.271484" y="416.828125"/>
<use xlink:href="#glyph-1-12" x="448.828125" y="416.828125"/>
<use xlink:href="#glyph-1-10" x="455.488281" y="416.828125"/>
<use xlink:href="#glyph-1-13" x="466.611328" y="416.828125"/>
<use xlink:href="#glyph-1-14" x="477.734375" y="416.828125"/>
</g>
<g fill="rgb(0%, 0%, 0%)" fill-opacity="1">
<use xlink:href="#glyph-2-0" x="25.277344" y="294.160156"/>
<use xlink:href="#glyph-2-1" x="25.277344" y="280.820312"/>
<use xlink:href="#glyph-2-2" x="25.277344" y="270.820312"/>
<use xlink:href="#glyph-2-3" x="25.277344" y="259.697266"/>
<use xlink:href="#glyph-2-4" x="25.277344" y="253.037109"/>
<use xlink:href="#glyph-2-5" x="25.277344" y="241.914062"/>
<use xlink:href="#glyph-2-2" x="25.277344" y="230.791016"/>
<use xlink:href="#glyph-2-6" x="25.277344" y="219.667969"/>
<use xlink:href="#glyph-2-3" x="25.277344" y="214.111328"/>
<use xlink:href="#glyph-2-2" x="25.277344" y="207.451172"/>
<use xlink:href="#glyph-2-7" x="25.277344" y="196.328125"/>
<use xlink:href="#glyph-2-8" x="25.277344" y="190.771484"/>
<use xlink:href="#glyph-2-3" x="25.277344" y="179.648438"/>
<use xlink:href="#glyph-2-9" x="25.277344" y="172.988281"/>
<use xlink:href="#glyph-2-6" x="25.277344" y="161.865234"/>
<use xlink:href="#glyph-2-10" x="25.277344" y="156.308594"/>
<use xlink:href="#glyph-2-11" x="25.277344" y="149.648438"/>
<use xlink:href="#glyph-2-12" x="25.277344" y="138.525391"/>
<use xlink:href="#glyph-2-13" x="25.277344" y="127.402344"/>
</g>
<g fill="rgb(0%, 0%, 0%)" fill-opacity="1">
<use xlink:href="#glyph-3-0" x="76.460938" y="28.140625"/>
<use xlink:href="#glyph-3-1" x="93.792969" y="28.140625"/>
<use xlink:href="#glyph-3-2" x="109.800781" y="28.140625"/>
</g>
</svg>
