<?xml version="1.0" encoding="UTF-8"?>
<svg xmlns="http://www.w3.org/2000/svg" xmlns:xlink="http://www.w3.org/1999/xlink" width="720pt" height="396pt" viewBox="0 0 720 396">
<defs>
<g>
<g id="glyph-0-0">
<path d="M 0.464844 -3.953125 C 0.464844 -4.902344 0.5625 -5.664062 0.757812 -6.242188 C 0.953125 -6.820312 1.242188 -7.265625 1.628906 -7.578125 C 2.011719 -7.894531 2.496094 -8.050781 3.078125 -8.050781 C 3.507812 -8.050781 3.886719 -7.964844 4.210938 -7.789062 C 4.535156 -7.617188 4.804688 -7.367188 5.015625 -7.042969 C 5.226562 -6.714844 5.390625 -6.316406 5.511719 -5.847656 C 5.632812 -5.378906 5.691406 -4.75 5.691406 -3.953125 C 5.691406 -3.011719 5.597656 -2.253906 5.402344 -1.675781 C 5.210938 -1.097656 4.921875 -0.652344 4.535156 -0.335938 C 4.152344 -0.0195312 3.664062 0.136719 3.078125 0.136719 C 2.304688 0.136719 1.699219 -0.140625 1.257812 -0.695312 C 0.730469 -1.363281 0.464844 -2.449219 0.464844 -3.953125 M 1.476562 -3.953125 C 1.476562 -2.636719 1.628906 -1.761719 1.9375 -1.328125 C 2.246094 -0.890625 2.625 -0.671875 3.078125 -0.671875 C 3.53125 -0.671875 3.910156 -0.890625 4.21875 -1.328125 C 4.527344 -1.765625 4.679688 -2.640625 4.679688 -3.953125 C 4.679688 -5.273438 4.527344 -6.152344 4.21875 -6.585938 C 3.910156 -7.019531 3.527344 -7.234375 3.066406 -7.234375 C 2.617188 -7.234375 2.253906 -7.042969 1.984375 -6.660156 C 1.644531 -6.171875 1.476562 -5.269531 1.476562 -3.953125 Z M 1.476562 -3.953125 "/>
</g>
<g id="glyph-0-1">
<path d="M 0.464844 -2.101562 L 1.5 -2.1875 C 1.574219 -1.683594 1.753906 -1.304688 2.03125 -1.054688 C 2.3125 -0.800781 2.648438 -0.671875 3.039062 -0.671875 C 3.515625 -0.671875 3.914062 -0.851562 4.242188 -1.207031 C 4.570312 -1.566406 4.734375 -2.039062 4.734375 -2.628906 C 4.734375 -3.191406 4.578125 -3.636719 4.261719 -3.960938 C 3.949219 -4.285156 3.535156 -4.445312 3.023438 -4.445312 C 2.707031 -4.445312 2.421875 -4.375 2.164062 -4.230469 C 1.910156 -4.085938 1.710938 -3.898438 1.5625 -3.667969 L 0.640625 -3.789062 L 1.417969 -7.90625 L 5.402344 -7.90625 L 5.402344 -6.96875 L 2.203125 -6.96875 L 1.773438 -4.8125 C 2.253906 -5.148438 2.757812 -5.316406 3.285156 -5.316406 C 3.988281 -5.316406 4.578125 -5.074219 5.058594 -4.589844 C 5.539062 -4.101562 5.78125 -3.480469 5.78125 -2.71875 C 5.78125 -1.992188 5.570312 -1.367188 5.144531 -0.835938 C 4.632812 -0.1875 3.929688 0.136719 3.039062 0.136719 C 2.3125 0.136719 1.714844 -0.0664062 1.253906 -0.476562 C 0.792969 -0.882812 0.53125 -1.425781 0.464844 -2.101562 Z M 0.464844 -2.101562 "/>
</g>
<g id="glyph-0-2">
<path d="M 4.171875 0 L 3.1875 0 L 3.1875 -6.273438 C 2.953125 -6.046875 2.640625 -5.820312 2.257812 -5.59375 C 1.871094 -5.367188 1.527344 -5.199219 1.21875 -5.085938 L 1.21875 -6.039062 C 1.769531 -6.296875 2.25 -6.609375 2.664062 -6.976562 C 3.074219 -7.347656 3.367188 -7.703125 3.539062 -8.050781 L 4.171875 -8.050781 Z M 4.171875 0 "/>
</g>
<g id="glyph-0-3">
<path d="M 5.574219 -6.054688 L 4.59375 -5.976562 C 4.507812 -6.363281 4.382812 -6.644531 4.222656 -6.820312 C 3.957031 -7.101562 3.628906 -7.242188 3.238281 -7.242188 C 2.925781 -7.242188 2.648438 -7.152344 2.410156 -6.976562 C 2.101562 -6.753906 1.859375 -6.421875 1.679688 -5.988281 C 1.5 -5.554688 1.40625 -4.9375 1.398438 -4.132812 C 1.636719 -4.496094 1.925781 -4.761719 2.269531 -4.9375 C 2.613281 -5.113281 2.972656 -5.199219 3.347656 -5.199219 C 4.003906 -5.199219 4.5625 -4.960938 5.023438 -4.476562 C 5.484375 -3.992188 5.714844 -3.367188 5.714844 -2.601562 C 5.714844 -2.101562 5.605469 -1.632812 5.390625 -1.199219 C 5.171875 -0.769531 4.875 -0.4375 4.496094 -0.207031 C 4.117188 0.0234375 3.6875 0.136719 3.203125 0.136719 C 2.382812 0.136719 1.714844 -0.164062 1.199219 -0.769531 C 0.679688 -1.371094 0.421875 -2.367188 0.421875 -3.75 C 0.421875 -5.300781 0.707031 -6.425781 1.28125 -7.132812 C 1.777344 -7.742188 2.453125 -8.050781 3.296875 -8.050781 C 3.929688 -8.050781 4.445312 -7.875 4.847656 -7.519531 C 5.25 -7.164062 5.492188 -6.675781 5.574219 -6.054688 M 1.554688 -2.597656 C 1.554688 -2.257812 1.625 -1.933594 1.769531 -1.625 C 1.914062 -1.3125 2.113281 -1.078125 2.375 -0.917969 C 2.632812 -0.753906 2.902344 -0.671875 3.1875 -0.671875 C 3.605469 -0.671875 3.960938 -0.839844 4.261719 -1.175781 C 4.558594 -1.511719 4.707031 -1.96875 4.707031 -2.542969 C 4.707031 -3.097656 4.5625 -3.535156 4.265625 -3.851562 C 3.96875 -4.171875 3.597656 -4.332031 3.148438 -4.332031 C 2.707031 -4.332031 2.328125 -4.171875 2.019531 -3.851562 C 1.707031 -3.535156 1.554688 -3.117188 1.554688 -2.597656 Z M 1.554688 -2.597656 "/>
</g>
<g id="glyph-0-4">
<path d="M 0.613281 -1.855469 L 1.558594 -1.941406 C 1.640625 -1.496094 1.792969 -1.175781 2.019531 -0.972656 C 2.242188 -0.773438 2.535156 -0.671875 2.886719 -0.671875 C 3.191406 -0.671875 3.457031 -0.742188 3.683594 -0.878906 C 3.910156 -1.019531 4.097656 -1.203125 4.242188 -1.4375 C 4.390625 -1.667969 4.511719 -1.980469 4.609375 -2.375 C 4.707031 -2.765625 4.757812 -3.167969 4.757812 -3.578125 C 4.757812 -3.621094 4.757812 -3.6875 4.753906 -3.773438 C 4.554688 -3.460938 4.285156 -3.207031 3.945312 -3.011719 C 3.605469 -2.816406 3.234375 -2.71875 2.839844 -2.71875 C 2.175781 -2.71875 1.613281 -2.957031 1.152344 -3.441406 C 0.695312 -3.921875 0.464844 -4.554688 0.464844 -5.34375 C 0.464844 -6.15625 0.703125 -6.808594 1.183594 -7.304688 C 1.664062 -7.800781 2.265625 -8.050781 2.984375 -8.050781 C 3.507812 -8.050781 3.984375 -7.910156 4.414062 -7.628906 C 4.847656 -7.347656 5.175781 -6.949219 5.402344 -6.429688 C 5.625 -5.910156 5.738281 -5.15625 5.738281 -4.171875 C 5.738281 -3.148438 5.625 -2.332031 5.402344 -1.726562 C 5.179688 -1.117188 4.851562 -0.65625 4.410156 -0.339844 C 3.972656 -0.0234375 3.457031 0.136719 2.867188 0.136719 C 2.238281 0.136719 1.726562 -0.0390625 1.328125 -0.386719 C 0.929688 -0.734375 0.691406 -1.222656 0.613281 -1.855469 M 4.644531 -5.390625 C 4.644531 -5.957031 4.492188 -6.40625 4.191406 -6.738281 C 3.890625 -7.070312 3.527344 -7.234375 3.105469 -7.234375 C 2.667969 -7.234375 2.289062 -7.054688 1.964844 -6.699219 C 1.640625 -6.34375 1.476562 -5.878906 1.476562 -5.308594 C 1.476562 -4.800781 1.628906 -4.386719 1.9375 -4.066406 C 2.246094 -3.746094 2.625 -3.585938 3.078125 -3.585938 C 3.535156 -3.585938 3.910156 -3.746094 4.203125 -4.066406 C 4.496094 -4.386719 4.644531 -4.828125 4.644531 -5.390625 Z M 4.644531 -5.390625 "/>
</g>
<g id="glyph-0-5">
<path d="M 5.636719 -0.945312 L 5.636719 0 L 0.339844 0 C 0.332031 -0.238281 0.371094 -0.464844 0.453125 -0.683594 C 0.589844 -1.042969 0.804688 -1.398438 1.101562 -1.75 C 1.398438 -2.101562 1.828125 -2.503906 2.390625 -2.964844 C 3.261719 -3.679688 3.851562 -4.246094 4.15625 -4.664062 C 4.460938 -5.078125 4.617188 -5.472656 4.617188 -5.847656 C 4.617188 -6.234375 4.476562 -6.566406 4.195312 -6.832031 C 3.917969 -7.101562 3.554688 -7.234375 3.105469 -7.234375 C 2.632812 -7.234375 2.253906 -7.09375 1.96875 -6.808594 C 1.683594 -6.523438 1.539062 -6.128906 1.535156 -5.628906 L 0.523438 -5.730469 C 0.59375 -6.484375 0.855469 -7.0625 1.308594 -7.457031 C 1.757812 -7.851562 2.367188 -8.050781 3.128906 -8.050781 C 3.898438 -8.050781 4.507812 -7.835938 4.953125 -7.410156 C 5.402344 -6.984375 5.628906 -6.453125 5.628906 -5.824219 C 5.628906 -5.503906 5.5625 -5.1875 5.429688 -4.878906 C 5.300781 -4.566406 5.082031 -4.242188 4.777344 -3.898438 C 4.472656 -3.554688 3.964844 -3.085938 3.257812 -2.488281 C 2.667969 -1.992188 2.289062 -1.65625 2.121094 -1.480469 C 1.953125 -1.300781 1.816406 -1.125 1.707031 -0.945312 Z M 5.636719 -0.945312 "/>
</g>
<g id="glyph-1-0">
<path d="M 1.023438 0 L 1.023438 -10.023438 L 4.785156 -10.023438 C 5.550781 -10.023438 6.164062 -9.921875 6.628906 -9.71875 C 7.089844 -9.515625 7.453125 -9.203125 7.714844 -8.78125 C 7.976562 -8.359375 8.109375 -7.917969 8.109375 -7.457031 C 8.109375 -7.03125 7.992188 -6.625 7.757812 -6.25 C 7.527344 -5.871094 7.175781 -5.5625 6.707031 -5.332031 C 7.3125 -5.15625 7.777344 -4.851562 8.105469 -4.421875 C 8.429688 -3.996094 8.59375 -3.488281 8.59375 -2.90625 C 8.59375 -2.4375 8.492188 -2 8.296875 -1.597656 C 8.097656 -1.191406 7.851562 -0.882812 7.5625 -0.664062 C 7.269531 -0.445312 6.902344 -0.277344 6.464844 -0.167969 C 6.023438 -0.0546875 5.484375 0 4.847656 0 L 1.023438 0 M 2.351562 -5.8125 L 4.519531 -5.8125 C 5.105469 -5.8125 5.527344 -5.847656 5.78125 -5.925781 C 6.121094 -6.027344 6.375 -6.195312 6.546875 -6.425781 C 6.714844 -6.65625 6.800781 -6.949219 6.800781 -7.300781 C 6.800781 -7.632812 6.722656 -7.925781 6.5625 -8.179688 C 6.402344 -8.433594 6.175781 -8.605469 5.878906 -8.699219 C 5.582031 -8.792969 5.074219 -8.839844 4.355469 -8.839844 L 2.351562 -8.839844 L 2.351562 -5.8125 M 2.351562 -1.183594 L 4.847656 -1.183594 C 5.273438 -1.183594 5.574219 -1.199219 5.75 -1.230469 C 6.054688 -1.285156 6.308594 -1.375 6.515625 -1.503906 C 6.71875 -1.632812 6.886719 -1.816406 7.019531 -2.0625 C 7.152344 -2.304688 7.21875 -2.585938 7.21875 -2.90625 C 7.21875 -3.277344 7.125 -3.605469 6.929688 -3.878906 C 6.738281 -4.15625 6.476562 -4.347656 6.136719 -4.460938 C 5.796875 -4.570312 5.308594 -4.628906 4.667969 -4.628906 L 2.351562 -4.628906 Z M 2.351562 -1.183594 "/>
</g>
<g id="glyph-1-1">
<path d="M 0.464844 -3.628906 C 0.464844 -4.972656 0.839844 -5.96875 1.585938 -6.617188 C 2.210938 -7.15625 2.972656 -7.421875 3.867188 -7.421875 C 4.867188 -7.421875 5.683594 -7.097656 6.316406 -6.441406 C 6.949219 -5.789062 7.265625 -4.886719 7.265625 -3.734375 C 7.265625 -2.796875 7.125 -2.0625 6.847656 -1.527344 C 6.566406 -0.992188 6.15625 -0.578125 5.621094 -0.28125 C 5.085938 0.015625 4.503906 0.164062 3.867188 0.164062 C 2.851562 0.164062 2.03125 -0.160156 1.40625 -0.8125 C 0.777344 -1.464844 0.464844 -2.402344 0.464844 -3.628906 M 1.730469 -3.628906 C 1.730469 -2.699219 1.933594 -2.003906 2.335938 -1.542969 C 2.742188 -1.078125 3.253906 -0.847656 3.867188 -0.847656 C 4.480469 -0.847656 4.988281 -1.078125 5.394531 -1.546875 C 5.800781 -2.007812 6 -2.71875 6 -3.671875 C 6 -4.570312 5.796875 -5.25 5.390625 -5.710938 C 4.980469 -6.175781 4.476562 -6.40625 3.867188 -6.40625 C 3.253906 -6.40625 2.742188 -6.175781 2.335938 -5.714844 C 1.933594 -5.253906 1.730469 -4.558594 1.730469 -3.628906 Z M 1.730469 -3.628906 "/>
</g>
<g id="glyph-1-2">
<path d="M 3.609375 -1.101562 L 3.789062 -0.015625 C 3.441406 0.0585938 3.132812 0.09375 2.859375 0.09375 C 2.410156 0.09375 2.0625 0.0234375 1.820312 -0.117188 C 1.570312 -0.257812 1.398438 -0.441406 1.296875 -0.671875 C 1.199219 -0.902344 1.148438 -1.386719 1.148438 -2.125 L 1.148438 -6.304688 L 0.246094 -6.304688 L 0.246094 -7.257812 L 1.148438 -7.257812 L 1.148438 -9.058594 L 2.371094 -9.796875 L 2.371094 -7.257812 L 3.609375 -7.257812 L 3.609375 -6.304688 L 2.371094 -6.304688 L 2.371094 -2.058594 C 2.371094 -1.707031 2.394531 -1.480469 2.4375 -1.382812 C 2.480469 -1.28125 2.550781 -1.199219 2.648438 -1.140625 C 2.746094 -1.082031 2.886719 -1.054688 3.070312 -1.054688 C 3.207031 -1.054688 3.386719 -1.070312 3.609375 -1.101562 Z M 3.609375 -1.101562 "/>
</g>
<g id="glyph-1-3">
<path d="M 0.429688 -2.167969 L 1.648438 -2.359375 C 1.714844 -1.871094 1.90625 -1.496094 2.21875 -1.238281 C 2.53125 -0.976562 2.964844 -0.847656 3.527344 -0.847656 C 4.09375 -0.847656 4.511719 -0.960938 4.785156 -1.191406 C 5.058594 -1.421875 5.195312 -1.691406 5.195312 -2.003906 C 5.195312 -2.28125 5.074219 -2.5 4.832031 -2.660156 C 4.664062 -2.769531 4.246094 -2.90625 3.574219 -3.078125 C 2.671875 -3.304688 2.046875 -3.5 1.699219 -3.667969 C 1.351562 -3.832031 1.085938 -4.0625 0.90625 -4.359375 C 0.726562 -4.652344 0.636719 -4.976562 0.636719 -5.332031 C 0.636719 -5.65625 0.710938 -5.957031 0.859375 -6.230469 C 1.007812 -6.507812 1.207031 -6.734375 1.460938 -6.917969 C 1.65625 -7.058594 1.914062 -7.179688 2.246094 -7.277344 C 2.574219 -7.375 2.929688 -7.421875 3.308594 -7.421875 C 3.878906 -7.421875 4.378906 -7.34375 4.808594 -7.179688 C 5.238281 -7.015625 5.558594 -6.792969 5.761719 -6.511719 C 5.96875 -6.230469 6.109375 -5.855469 6.1875 -5.386719 L 4.984375 -5.222656 C 4.929688 -5.597656 4.769531 -5.886719 4.507812 -6.097656 C 4.246094 -6.308594 3.875 -6.414062 3.398438 -6.414062 C 2.832031 -6.414062 2.429688 -6.320312 2.1875 -6.132812 C 1.945312 -5.945312 1.824219 -5.726562 1.824219 -5.476562 C 1.824219 -5.316406 1.875 -5.171875 1.976562 -5.046875 C 2.074219 -4.914062 2.234375 -4.804688 2.445312 -4.71875 C 2.570312 -4.671875 2.933594 -4.566406 3.535156 -4.402344 C 4.40625 -4.171875 5.011719 -3.980469 5.355469 -3.832031 C 5.699219 -3.683594 5.96875 -3.46875 6.164062 -3.1875 C 6.363281 -2.902344 6.460938 -2.550781 6.460938 -2.132812 C 6.460938 -1.722656 6.339844 -1.335938 6.101562 -0.972656 C 5.863281 -0.613281 5.515625 -0.332031 5.066406 -0.132812 C 4.613281 0.0664062 4.105469 0.164062 3.535156 0.164062 C 2.589844 0.164062 1.871094 -0.03125 1.378906 -0.421875 C 0.882812 -0.816406 0.566406 -1.398438 0.429688 -2.167969 Z M 0.429688 -2.167969 "/>
</g>
<g id="glyph-1-4">
<path d="M 0.910156 0 L 0.910156 -7.257812 L 2.015625 -7.257812 L 2.015625 -6.160156 C 2.300781 -6.675781 2.558594 -7.015625 2.800781 -7.179688 C 3.039062 -7.34375 3.300781 -7.421875 3.589844 -7.421875 C 4.003906 -7.421875 4.425781 -7.292969 4.851562 -7.027344 L 4.429688 -5.886719 C 4.128906 -6.0625 3.828125 -6.152344 3.527344 -6.152344 C 3.257812 -6.152344 3.015625 -6.070312 2.804688 -5.910156 C 2.589844 -5.746094 2.4375 -5.523438 2.34375 -5.234375 C 2.207031 -4.796875 2.140625 -4.320312 2.140625 -3.800781 L 2.140625 0 Z M 0.910156 0 "/>
</g>
<g id="glyph-1-5">
<path d="M 5.660156 -0.894531 C 5.203125 -0.507812 4.765625 -0.234375 4.34375 -0.0742188 C 3.921875 0.0859375 3.46875 0.164062 2.988281 0.164062 C 2.191406 0.164062 1.578125 -0.03125 1.148438 -0.421875 C 0.71875 -0.808594 0.507812 -1.308594 0.507812 -1.914062 C 0.507812 -2.269531 0.585938 -2.59375 0.75 -2.886719 C 0.910156 -3.183594 1.121094 -3.417969 1.382812 -3.59375 C 1.644531 -3.773438 1.941406 -3.90625 2.269531 -4 C 2.511719 -4.0625 2.875 -4.125 3.363281 -4.183594 C 4.355469 -4.300781 5.089844 -4.445312 5.558594 -4.609375 C 5.5625 -4.777344 5.5625 -4.882812 5.5625 -4.929688 C 5.5625 -5.429688 5.449219 -5.78125 5.214844 -5.988281 C 4.902344 -6.265625 4.433594 -6.40625 3.8125 -6.40625 C 3.234375 -6.40625 2.808594 -6.304688 2.53125 -6.101562 C 2.257812 -5.898438 2.054688 -5.539062 1.921875 -5.023438 L 0.71875 -5.1875 C 0.828125 -5.703125 1.007812 -6.121094 1.257812 -6.4375 C 1.507812 -6.753906 1.871094 -6.996094 2.34375 -7.167969 C 2.820312 -7.339844 3.367188 -7.421875 3.992188 -7.421875 C 4.613281 -7.421875 5.117188 -7.351562 5.503906 -7.203125 C 5.890625 -7.058594 6.175781 -6.875 6.359375 -6.65625 C 6.539062 -6.433594 6.667969 -6.15625 6.742188 -5.816406 C 6.78125 -5.609375 6.800781 -5.230469 6.800781 -4.683594 L 6.800781 -3.042969 C 6.800781 -1.898438 6.828125 -1.175781 6.878906 -0.871094 C 6.933594 -0.570312 7.035156 -0.277344 7.191406 0 L 5.90625 0 C 5.777344 -0.253906 5.695312 -0.554688 5.660156 -0.894531 M 5.558594 -3.644531 C 5.109375 -3.460938 4.441406 -3.304688 3.546875 -3.179688 C 3.042969 -3.105469 2.683594 -3.023438 2.476562 -2.933594 C 2.265625 -2.839844 2.101562 -2.707031 1.988281 -2.53125 C 1.875 -2.355469 1.820312 -2.164062 1.820312 -1.949219 C 1.820312 -1.621094 1.941406 -1.347656 2.191406 -1.128906 C 2.4375 -0.910156 2.804688 -0.800781 3.28125 -0.800781 C 3.753906 -0.800781 4.175781 -0.902344 4.546875 -1.109375 C 4.914062 -1.316406 5.1875 -1.601562 5.359375 -1.960938 C 5.492188 -2.238281 5.558594 -2.648438 5.558594 -3.191406 Z M 5.558594 -3.644531 "/>
</g>
<g id="glyph-1-6">
<path d="M 0.921875 2.78125 L 0.921875 -7.257812 L 2.042969 -7.257812 L 2.042969 -6.316406 C 2.308594 -6.683594 2.605469 -6.960938 2.9375 -7.148438 C 3.273438 -7.332031 3.675781 -7.421875 4.148438 -7.421875 C 4.769531 -7.421875 5.316406 -7.265625 5.789062 -6.945312 C 6.265625 -6.625 6.621094 -6.175781 6.863281 -5.59375 C 7.105469 -5.015625 7.226562 -4.378906 7.226562 -3.683594 C 7.226562 -2.941406 7.09375 -2.273438 6.824219 -1.679688 C 6.558594 -1.082031 6.171875 -0.628906 5.664062 -0.3125 C 5.15625 0.00390625 4.621094 0.164062 4.0625 0.164062 C 3.648438 0.164062 3.28125 0.078125 2.957031 -0.09375 C 2.628906 -0.269531 2.363281 -0.488281 2.152344 -0.75 L 2.152344 2.78125 L 0.921875 2.78125 M 2.039062 -3.589844 C 2.039062 -2.65625 2.226562 -1.964844 2.605469 -1.515625 C 2.984375 -1.070312 3.441406 -0.847656 3.976562 -0.847656 C 4.523438 -0.847656 4.992188 -1.078125 5.382812 -1.542969 C 5.773438 -2.003906 5.96875 -2.71875 5.96875 -3.691406 C 5.96875 -4.617188 5.777344 -5.308594 5.398438 -5.769531 C 5.015625 -6.230469 4.5625 -6.460938 4.03125 -6.460938 C 3.507812 -6.460938 3.046875 -6.214844 2.640625 -5.726562 C 2.238281 -5.234375 2.039062 -4.523438 2.039062 -3.589844 Z M 2.039062 -3.589844 "/>
</g>
<g id="glyph-1-7">
</g>
<g id="glyph-1-8">
<path d="M 0.921875 0 L 0.921875 -7.257812 L 2.023438 -7.257812 L 2.023438 -6.242188 C 2.25 -6.597656 2.554688 -6.882812 2.933594 -7.097656 C 3.3125 -7.316406 3.742188 -7.421875 4.226562 -7.421875 C 4.761719 -7.421875 5.203125 -7.3125 5.546875 -7.089844 C 5.890625 -6.867188 6.132812 -6.554688 6.273438 -6.152344 C 6.847656 -7 7.597656 -7.421875 8.515625 -7.421875 C 9.238281 -7.421875 9.792969 -7.222656 10.179688 -6.824219 C 10.566406 -6.425781 10.757812 -5.8125 10.757812 -4.984375 L 10.757812 0 L 9.535156 0 L 9.535156 -4.574219 C 9.535156 -5.066406 9.496094 -5.417969 9.417969 -5.636719 C 9.335938 -5.851562 9.191406 -6.027344 8.984375 -6.160156 C 8.773438 -6.292969 8.527344 -6.355469 8.242188 -6.359375 C 7.734375 -6.355469 7.308594 -6.1875 6.972656 -5.847656 C 6.636719 -5.507812 6.46875 -4.964844 6.46875 -4.21875 L 6.46875 0 L 5.234375 0 L 5.234375 -4.71875 C 5.234375 -5.261719 5.136719 -5.671875 4.9375 -5.945312 C 4.734375 -6.21875 4.40625 -6.355469 3.953125 -6.359375 C 3.605469 -6.355469 3.285156 -6.265625 2.992188 -6.085938 C 2.695312 -5.902344 2.484375 -5.636719 2.351562 -5.285156 C 2.21875 -4.933594 2.152344 -4.425781 2.152344 -3.765625 L 2.152344 0 Z M 0.921875 0 "/>
</g>
<g id="glyph-1-9">
<path d="M 0.894531 0 L 0.894531 -10.023438 L 2.125 -10.023438 L 2.125 0 Z M 0.894531 0 "/>
</g>
<g id="glyph-1-10">
<path d="M 5.890625 -2.335938 L 7.164062 -2.179688 C 6.964844 -1.4375 6.59375 -0.859375 6.050781 -0.453125 C 5.507812 -0.0429688 4.816406 0.164062 3.972656 0.164062 C 2.910156 0.164062 2.066406 -0.164062 1.445312 -0.816406 C 0.824219 -1.472656 0.511719 -2.386719 0.511719 -3.570312 C 0.511719 -4.789062 0.828125 -5.738281 1.457031 -6.414062 C 2.085938 -7.085938 2.902344 -7.421875 3.902344 -7.421875 C 4.875 -7.421875 5.667969 -7.09375 6.28125 -6.433594 C 6.898438 -5.773438 7.203125 -4.84375 7.203125 -3.644531 C 7.203125 -3.570312 7.203125 -3.460938 7.199219 -3.316406 L 1.785156 -3.316406 C 1.828125 -2.519531 2.054688 -1.90625 2.460938 -1.484375 C 2.867188 -1.058594 3.371094 -0.847656 3.976562 -0.847656 C 4.429688 -0.847656 4.816406 -0.964844 5.132812 -1.203125 C 5.453125 -1.441406 5.707031 -1.820312 5.890625 -2.335938 M 1.851562 -4.328125 L 5.90625 -4.328125 C 5.851562 -4.9375 5.695312 -5.394531 5.441406 -5.703125 C 5.050781 -6.175781 4.542969 -6.414062 3.917969 -6.414062 C 3.351562 -6.414062 2.875 -6.222656 2.492188 -5.84375 C 2.105469 -5.464844 1.894531 -4.960938 1.851562 -4.328125 Z M 1.851562 -4.328125 "/>
</g>
<g id="glyph-1-11">
<path d="M 0.929688 -8.605469 L 0.929688 -10.023438 L 2.160156 -10.023438 L 2.160156 -8.605469 L 0.929688 -8.605469 M 0.929688 0 L 0.929688 -7.257812 L 2.160156 -7.257812 L 2.160156 0 Z M 0.929688 0 "/>
</g>
<g id="glyph-1-12">
<path d="M 5.660156 -2.660156 L 6.871094 -2.5 C 6.738281 -1.667969 6.398438 -1.015625 5.855469 -0.542969 C 5.308594 -0.0703125 4.640625 0.164062 3.847656 0.164062 C 2.855469 0.164062 2.054688 -0.160156 1.453125 -0.808594 C 0.847656 -1.460938 0.546875 -2.390625 0.546875 -3.601562 C 0.546875 -4.386719 0.675781 -5.070312 0.9375 -5.660156 C 1.195312 -6.246094 1.589844 -6.6875 2.121094 -6.984375 C 2.652344 -7.277344 3.230469 -7.421875 3.855469 -7.421875 C 4.644531 -7.421875 5.289062 -7.222656 5.789062 -6.824219 C 6.292969 -6.425781 6.613281 -5.859375 6.753906 -5.125 L 5.558594 -4.941406 C 5.445312 -5.429688 5.242188 -5.796875 4.953125 -6.042969 C 4.664062 -6.289062 4.3125 -6.414062 3.902344 -6.414062 C 3.285156 -6.414062 2.78125 -6.191406 2.390625 -5.746094 C 2.003906 -5.300781 1.8125 -4.597656 1.8125 -3.636719 C 1.8125 -2.660156 2 -1.953125 2.371094 -1.511719 C 2.746094 -1.070312 3.234375 -0.847656 3.835938 -0.847656 C 4.316406 -0.847656 4.722656 -0.996094 5.046875 -1.292969 C 5.367188 -1.589844 5.574219 -2.042969 5.660156 -2.660156 Z M 5.660156 -2.660156 "/>
</g>
<g id="glyph-1-13">
<path d="M 0.921875 0 L 0.921875 -7.257812 L 2.03125 -7.257812 L 2.03125 -6.226562 C 2.5625 -7.023438 3.332031 -7.421875 4.339844 -7.421875 C 4.777344 -7.421875 5.179688 -7.34375 5.546875 -7.1875 C 5.914062 -7.03125 6.1875 -6.824219 6.371094 -6.570312 C 6.554688 -6.3125 6.679688 -6.011719 6.753906 -5.660156 C 6.800781 -5.433594 6.820312 -5.035156 6.820312 -4.464844 L 6.820312 0 L 5.59375 0 L 5.59375 -4.414062 C 5.59375 -4.917969 5.542969 -5.292969 5.449219 -5.539062 C 5.351562 -5.789062 5.183594 -5.988281 4.9375 -6.136719 C 4.695312 -6.285156 4.410156 -6.355469 4.082031 -6.359375 C 3.558594 -6.355469 3.105469 -6.191406 2.722656 -5.859375 C 2.34375 -5.527344 2.152344 -4.894531 2.152344 -3.964844 L 2.152344 0 Z M 0.921875 0 "/>
</g>
<g id="glyph-1-14">
<path d="M 3.273438 2.945312 C 2.59375 2.089844 2.019531 1.085938 1.550781 -0.0625 C 1.082031 -1.210938 0.847656 -2.398438 0.847656 -3.628906 C 0.847656 -4.714844 1.023438 -5.753906 1.375 -6.746094 C 1.785156 -7.898438 2.417969 -9.046875 3.273438 -10.191406 L 4.15625 -10.191406 C 3.605469 -9.246094 3.242188 -8.566406 3.0625 -8.164062 C 2.785156 -7.53125 2.566406 -6.875 2.40625 -6.195312 C 2.210938 -5.339844 2.113281 -4.484375 2.113281 -3.625 C 2.113281 -1.429688 2.792969 0.757812 4.15625 2.945312 Z M 3.273438 2.945312 "/>
</g>
<g id="glyph-1-15">
<path d="M 5.632812 0 L 5.632812 -0.914062 C 5.171875 -0.195312 4.496094 0.164062 3.601562 0.164062 C 3.023438 0.164062 2.492188 0.00390625 2.007812 -0.3125 C 1.519531 -0.632812 1.144531 -1.078125 0.878906 -1.652344 C 0.613281 -2.222656 0.476562 -2.878906 0.476562 -3.625 C 0.476562 -4.347656 0.597656 -5.003906 0.839844 -5.59375 C 1.082031 -6.183594 1.445312 -6.636719 1.929688 -6.953125 C 2.410156 -7.265625 2.949219 -7.421875 3.546875 -7.421875 C 3.984375 -7.421875 4.375 -7.332031 4.71875 -7.148438 C 5.058594 -6.960938 5.335938 -6.722656 5.550781 -6.425781 L 5.550781 -10.023438 L 6.773438 -10.023438 L 6.773438 0 L 5.632812 0 M 1.742188 -3.625 C 1.742188 -2.695312 1.9375 -2 2.332031 -1.539062 C 2.722656 -1.078125 3.1875 -0.847656 3.71875 -0.847656 C 4.257812 -0.847656 4.714844 -1.066406 5.089844 -1.507812 C 5.464844 -1.945312 5.652344 -2.617188 5.652344 -3.519531 C 5.652344 -4.515625 5.460938 -5.242188 5.078125 -5.707031 C 4.695312 -6.171875 4.226562 -6.40625 3.664062 -6.40625 C 3.117188 -6.40625 2.660156 -6.183594 2.292969 -5.734375 C 1.925781 -5.289062 1.742188 -4.585938 1.742188 -3.625 Z M 1.742188 -3.625 "/>
</g>
<g id="glyph-1-16">
<path d="M 0.921875 0 L 0.921875 -10.023438 L 2.152344 -10.023438 L 2.152344 -6.425781 C 2.726562 -7.089844 3.453125 -7.421875 4.328125 -7.421875 C 4.863281 -7.421875 5.332031 -7.316406 5.726562 -7.105469 C 6.125 -6.894531 6.410156 -6.601562 6.578125 -6.226562 C 6.75 -5.855469 6.835938 -5.3125 6.835938 -4.601562 L 6.835938 0 L 5.605469 0 L 5.605469 -4.601562 C 5.605469 -5.214844 5.472656 -5.664062 5.207031 -5.945312 C 4.9375 -6.222656 4.5625 -6.363281 4.074219 -6.363281 C 3.710938 -6.363281 3.367188 -6.269531 3.046875 -6.082031 C 2.722656 -5.890625 2.496094 -5.636719 2.359375 -5.3125 C 2.222656 -4.988281 2.152344 -4.542969 2.152344 -3.972656 L 2.152344 0 Z M 0.921875 0 "/>
</g>
<g id="glyph-1-17">
<path d="M 1.730469 2.945312 L 0.847656 2.945312 C 2.210938 0.757812 2.890625 -1.429688 2.890625 -3.625 C 2.890625 -4.480469 2.792969 -5.328125 2.597656 -6.171875 C 2.441406 -6.855469 2.226562 -7.511719 1.949219 -8.140625 C 1.769531 -8.550781 1.402344 -9.234375 0.847656 -10.191406 L 1.730469 -10.191406 C 2.585938 -9.046875 3.21875 -7.898438 3.628906 -6.746094 C 3.980469 -5.753906 4.15625 -4.714844 4.15625 -3.628906 C 4.15625 -2.398438 3.921875 -1.210938 3.449219 -0.0625 C 2.976562 1.085938 2.402344 2.089844 1.730469 2.945312 Z M 1.730469 2.945312 "/>
</g>
<g id="glyph-1-18">
<path d="M 1.242188 0 L 1.242188 -1.402344 L 2.644531 -1.402344 L 2.644531 0 C 2.644531 0.515625 2.554688 0.929688 2.371094 1.246094 C 2.191406 1.5625 1.898438 1.808594 1.503906 1.984375 L 1.164062 1.457031 C 1.421875 1.34375 1.613281 1.175781 1.734375 0.953125 C 1.859375 0.734375 1.929688 0.414062 1.941406 0 Z M 1.242188 0 "/>
</g>
<g id="glyph-1-19">
<path d="M 0.695312 0.601562 L 1.894531 0.78125 C 1.945312 1.148438 2.082031 1.417969 2.3125 1.585938 C 2.617188 1.8125 3.03125 1.929688 3.5625 1.929688 C 4.132812 1.929688 4.570312 1.8125 4.882812 1.585938 C 5.191406 1.359375 5.398438 1.039062 5.507812 0.628906 C 5.574219 0.378906 5.601562 -0.148438 5.597656 -0.949219 C 5.0625 -0.316406 4.390625 0 3.589844 0 C 2.589844 0 1.820312 -0.359375 1.273438 -1.078125 C 0.726562 -1.800781 0.453125 -2.664062 0.453125 -3.671875 C 0.453125 -4.363281 0.578125 -5.003906 0.828125 -5.589844 C 1.078125 -6.175781 1.441406 -6.625 1.917969 -6.945312 C 2.394531 -7.265625 2.953125 -7.421875 3.59375 -7.421875 C 4.453125 -7.421875 5.160156 -7.078125 5.714844 -6.382812 L 5.714844 -7.257812 L 6.851562 -7.257812 L 6.851562 -0.984375 C 6.847656 0.144531 6.734375 0.945312 6.503906 1.417969 C 6.273438 1.890625 5.910156 2.261719 5.410156 2.535156 C 4.910156 2.808594 4.296875 2.945312 3.570312 2.945312 C 2.703125 2.945312 2.003906 2.75 1.46875 2.363281 C 0.9375 1.972656 0.679688 1.386719 0.695312 0.601562 M 1.714844 -3.757812 C 1.714844 -2.808594 1.90625 -2.113281 2.28125 -1.675781 C 2.660156 -1.238281 3.136719 -1.019531 3.703125 -1.019531 C 4.269531 -1.019531 4.742188 -1.234375 5.125 -1.671875 C 5.507812 -2.105469 5.699219 -2.789062 5.703125 -3.71875 C 5.699219 -4.609375 5.503906 -5.277344 5.109375 -5.726562 C 4.714844 -6.179688 4.242188 -6.40625 3.683594 -6.40625 C 3.136719 -6.40625 2.671875 -6.183594 2.289062 -5.738281 C 1.90625 -5.292969 1.714844 -4.632812 1.714844 -3.757812 Z M 1.714844 -3.757812 "/>
</g>
<g id="glyph-1-20">
<path d="M 0.867188 2.796875 L 0.730469 1.640625 C 1 1.714844 1.234375 1.75 1.4375 1.75 C 1.707031 1.75 1.929688 1.703125 2.09375 1.613281 C 2.257812 1.523438 2.390625 1.394531 2.496094 1.230469 C 2.574219 1.109375 2.699219 0.800781 2.871094 0.3125 C 2.894531 0.246094 2.929688 0.144531 2.980469 0.015625 L 0.226562 -7.257812 L 1.550781 -7.257812 L 3.0625 -3.054688 C 3.257812 -2.523438 3.433594 -1.960938 3.589844 -1.375 C 3.730469 -1.9375 3.898438 -2.492188 4.09375 -3.027344 L 5.648438 -7.257812 L 6.875 -7.257812 L 4.117188 0.125 C 3.820312 0.921875 3.589844 1.46875 3.425781 1.769531 C 3.207031 2.175781 2.957031 2.472656 2.671875 2.664062 C 2.390625 2.851562 2.054688 2.945312 1.660156 2.945312 C 1.425781 2.945312 1.160156 2.894531 0.867188 2.796875 Z M 0.867188 2.796875 "/>
</g>
<g id="glyph-2-0">
<path d="M 0 -1.148438 L -10.023438 -1.148438 L -10.023438 -7.910156 L -8.839844 -7.910156 L -8.839844 -2.476562 L -5.734375 -2.476562 L -5.734375 -7.179688 L -4.554688 -7.179688 L -4.554688 -2.476562 L 0 -2.476562 Z M 0 -1.148438 "/>
</g>
<g id="glyph-2-1">
<path d="M 0 -0.910156 L -7.257812 -0.910156 L -7.257812 -2.015625 L -6.160156 -2.015625 C -6.675781 -2.300781 -7.015625 -2.558594 -7.179688 -2.800781 C -7.34375 -3.039062 -7.421875 -3.300781 -7.421875 -3.589844 C -7.421875 -4.003906 -7.292969 -4.425781 -7.027344 -4.851562 L -5.886719 -4.429688 C -6.0625 -4.128906 -6.152344 -3.828125 -6.152344 -3.527344 C -6.152344 -3.257812 -6.070312 -3.015625 -5.910156 -2.804688 C -5.746094 -2.589844 -5.523438 -2.4375 -5.234375 -2.34375 C -4.796875 -2.207031 -4.320312 -2.140625 -3.800781 -2.140625 L 0 -2.140625 Z M 0 -0.910156 "/>
</g>
<g id="glyph-2-2">
<path d="M -2.335938 -5.890625 L -2.179688 -7.164062 C -1.4375 -6.964844 -0.859375 -6.59375 -0.449219 -6.050781 C -0.0429688 -5.507812 0.164062 -4.816406 0.164062 -3.972656 C 0.164062 -2.910156 -0.164062 -2.066406 -0.816406 -1.445312 C -1.472656 -0.824219 -2.386719 -0.511719 -3.570312 -0.511719 C -4.789062 -0.511719 -5.738281 -0.828125 -6.414062 -1.457031 C -7.085938 -2.085938 -7.421875 -2.902344 -7.421875 -3.902344 C -7.421875 -4.875 -7.09375 -5.667969 -6.433594 -6.28125 C -5.773438 -6.898438 -4.84375 -7.203125 -3.644531 -7.203125 C -3.570312 -7.203125 -3.460938 -7.203125 -3.316406 -7.199219 L -3.316406 -1.785156 C -2.519531 -1.828125 -1.90625 -2.054688 -1.484375 -2.460938 C -1.058594 -2.867188 -0.847656 -3.371094 -0.847656 -3.976562 C -0.847656 -4.429688 -0.964844 -4.816406 -1.203125 -5.132812 C -1.441406 -5.453125 -1.816406 -5.707031 -2.335938 -5.890625 M -4.328125 -1.851562 L -4.328125 -5.90625 C -4.9375 -5.851562 -5.394531 -5.695312 -5.703125 -5.441406 C -6.175781 -5.050781 -6.414062 -4.542969 -6.414062 -3.917969 C -6.414062 -3.351562 -6.222656 -2.875 -5.84375 -2.492188 C -5.464844 -2.105469 -4.960938 -1.894531 -4.328125 -1.851562 Z M -4.328125 -1.851562 "/>
</g>
<g id="glyph-2-3">
<path d="M 2.78125 -5.550781 L -0.773438 -5.550781 C -0.503906 -5.359375 -0.28125 -5.089844 -0.101562 -4.746094 C 0.0742188 -4.402344 0.164062 -4.039062 0.164062 -3.648438 C 0.164062 -2.789062 -0.179688 -2.046875 -0.867188 -1.425781 C -1.554688 -0.804688 -2.5 -0.492188 -3.699219 -0.492188 C -4.425781 -0.492188 -5.082031 -0.617188 -5.660156 -0.871094 C -6.238281 -1.125 -6.675781 -1.492188 -6.976562 -1.972656 C -7.273438 -2.453125 -7.421875 -2.980469 -7.421875 -3.554688 C -7.421875 -4.453125 -7.046875 -5.160156 -6.289062 -5.671875 L -7.257812 -5.675781 L -7.257812 -6.78125 L 2.78125 -6.78125 L 2.78125 -5.550781 M -3.648438 -1.757812 C -2.714844 -1.757812 -2.015625 -1.953125 -1.546875 -2.34375 C -1.082031 -2.738281 -0.847656 -3.207031 -0.847656 -3.753906 C -0.847656 -4.277344 -1.070312 -4.726562 -1.515625 -5.105469 C -1.957031 -5.484375 -2.632812 -5.671875 -3.539062 -5.671875 C -4.507812 -5.671875 -5.234375 -5.472656 -5.722656 -5.074219 C -6.210938 -4.675781 -6.453125 -4.207031 -6.453125 -3.671875 C -6.453125 -3.136719 -6.226562 -2.683594 -5.773438 -2.3125 C -5.320312 -1.941406 -4.613281 -1.757812 -3.648438 -1.757812 Z M -3.648438 -1.757812 "/>
</g>
<g id="glyph-2-4">
<path d="M 0 -5.679688 L -1.066406 -5.679688 C -0.246094 -5.117188 0.164062 -4.347656 0.164062 -3.375 C 0.164062 -2.949219 0.0820312 -2.546875 -0.0820312 -2.175781 C -0.246094 -1.804688 -0.453125 -1.53125 -0.699219 -1.351562 C -0.949219 -1.171875 -1.253906 -1.042969 -1.613281 -0.972656 C -1.855469 -0.921875 -2.238281 -0.894531 -2.761719 -0.894531 L -7.257812 -0.894531 L -7.257812 -2.125 L -3.234375 -2.125 C -2.589844 -2.125 -2.15625 -2.152344 -1.933594 -2.203125 C -1.609375 -2.277344 -1.355469 -2.441406 -1.171875 -2.695312 C -0.988281 -2.945312 -0.894531 -3.253906 -0.894531 -3.625 C -0.894531 -3.992188 -0.988281 -4.339844 -1.179688 -4.664062 C -1.367188 -4.984375 -1.625 -5.214844 -1.953125 -5.347656 C -2.277344 -5.484375 -2.75 -5.550781 -3.371094 -5.550781 L -7.257812 -5.550781 L -7.257812 -6.78125 L 0 -6.78125 Z M 0 -5.679688 "/>
</g>
<g id="glyph-2-5">
<path d="M 0 -0.921875 L -7.257812 -0.921875 L -7.257812 -2.03125 L -6.226562 -2.03125 C -7.023438 -2.5625 -7.421875 -3.332031 -7.421875 -4.339844 C -7.421875 -4.777344 -7.34375 -5.179688 -7.1875 -5.546875 C -7.03125 -5.914062 -6.824219 -6.1875 -6.570312 -6.371094 C -6.3125 -6.554688 -6.011719 -6.679688 -5.660156 -6.753906 C -5.433594 -6.800781 -5.035156 -6.820312 -4.464844 -6.820312 L 0 -6.820312 L 0 -5.59375 L -4.414062 -5.59375 C -4.917969 -5.59375 -5.292969 -5.542969 -5.539062 -5.449219 C -5.789062 -5.351562 -5.988281 -5.183594 -6.136719 -4.9375 C -6.285156 -4.695312 -6.355469 -4.410156 -6.359375 -4.082031 C -6.355469 -3.558594 -6.191406 -3.105469 -5.859375 -2.722656 C -5.527344 -2.34375 -4.894531 -2.152344 -3.964844 -2.152344 L 0 -2.152344 Z M 0 -0.921875 "/>
</g>
<g id="glyph-2-6">
<path d="M -2.660156 -5.660156 L -2.5 -6.871094 C -1.667969 -6.738281 -1.015625 -6.398438 -0.542969 -5.855469 C -0.0703125 -5.308594 0.164062 -4.640625 0.164062 -3.847656 C 0.164062 -2.855469 -0.160156 -2.054688 -0.808594 -1.453125 C -1.460938 -0.847656 -2.390625 -0.546875 -3.601562 -0.546875 C -4.386719 -0.546875 -5.070312 -0.675781 -5.660156 -0.9375 C -6.246094 -1.195312 -6.6875 -1.589844 -6.984375 -2.121094 C -7.277344 -2.652344 -7.421875 -3.230469 -7.421875 -3.855469 C -7.421875 -4.644531 -7.222656 -5.289062 -6.824219 -5.789062 C -6.425781 -6.292969 -5.859375 -6.613281 -5.125 -6.753906 L -4.941406 -5.558594 C -5.429688 -5.445312 -5.796875 -5.242188 -6.042969 -4.953125 C -6.289062 -4.664062 -6.414062 -4.3125 -6.414062 -3.902344 C -6.414062 -3.285156 -6.191406 -2.78125 -5.746094 -2.394531 C -5.300781 -2.003906 -4.597656 -1.8125 -3.636719 -1.8125 C -2.660156 -1.8125 -1.953125 -2 -1.511719 -2.371094 C -1.070312 -2.746094 -0.847656 -3.234375 -0.847656 -3.835938 C -0.847656 -4.316406 -0.996094 -4.722656 -1.292969 -5.046875 C -1.589844 -5.367188 -2.042969 -5.574219 -2.660156 -5.660156 Z M -2.660156 -5.660156 "/>
</g>
<g id="glyph-2-7">
<path d="M 2.796875 -0.867188 L 1.640625 -0.730469 C 1.714844 -1 1.75 -1.234375 1.75 -1.4375 C 1.75 -1.707031 1.703125 -1.929688 1.613281 -2.09375 C 1.523438 -2.257812 1.394531 -2.390625 1.230469 -2.496094 C 1.109375 -2.574219 0.800781 -2.699219 0.316406 -2.871094 C 0.246094 -2.894531 0.144531 -2.929688 0.015625 -2.980469 L -7.257812 -0.226562 L -7.257812 -1.550781 L -3.054688 -3.0625 C -2.523438 -3.257812 -1.960938 -3.433594 -1.375 -3.589844 C -1.9375 -3.730469 -2.492188 -3.898438 -3.027344 -4.09375 L -7.257812 -5.648438 L -7.257812 -6.878906 L 0.125 -4.117188 C 0.921875 -3.820312 1.46875 -3.589844 1.769531 -3.425781 C 2.175781 -3.207031 2.472656 -2.957031 2.664062 -2.671875 C 2.851562 -2.390625 2.945312 -2.054688 2.945312 -1.660156 C 2.945312 -1.425781 2.894531 -1.160156 2.796875 -0.867188 Z M 2.796875 -0.867188 "/>
</g>
<g id="glyph-3-0">
<path d="M 0.917969 -2.78125 L 2.335938 -2.914062 C 2.457031 -2.246094 2.6875 -1.761719 3.027344 -1.460938 C 3.367188 -1.160156 3.800781 -1.007812 4.332031 -1.007812 C 4.785156 -1.007812 5.183594 -1.113281 5.523438 -1.320312 C 5.867188 -1.527344 6.148438 -1.804688 6.367188 -2.152344 C 6.585938 -2.5 6.765625 -2.96875 6.914062 -3.558594 C 7.0625 -4.152344 7.136719 -4.753906 7.136719 -5.363281 C 7.136719 -5.429688 7.132812 -5.527344 7.128906 -5.660156 C 6.832031 -5.191406 6.429688 -4.808594 5.917969 -4.515625 C 5.40625 -4.222656 4.851562 -4.078125 4.257812 -4.078125 C 3.261719 -4.078125 2.421875 -4.4375 1.730469 -5.160156 C 1.042969 -5.882812 0.695312 -6.832031 0.695312 -8.015625 C 0.695312 -9.234375 1.058594 -10.214844 1.777344 -10.960938 C 2.496094 -11.703125 3.394531 -12.074219 4.480469 -12.074219 C 5.261719 -12.074219 5.976562 -11.863281 6.625 -11.445312 C 7.273438 -11.023438 7.765625 -10.421875 8.101562 -9.644531 C 8.4375 -8.863281 8.605469 -7.734375 8.605469 -6.257812 C 8.605469 -4.722656 8.4375 -3.5 8.105469 -2.589844 C 7.769531 -1.675781 7.273438 -0.984375 6.617188 -0.507812 C 5.957031 -0.03125 5.183594 0.203125 4.296875 0.203125 C 3.359375 0.203125 2.589844 -0.0546875 1.992188 -0.578125 C 1.398438 -1.101562 1.039062 -1.835938 0.917969 -2.78125 M 6.964844 -8.089844 C 6.964844 -8.9375 6.738281 -9.609375 6.289062 -10.105469 C 5.835938 -10.605469 5.292969 -10.851562 4.660156 -10.851562 C 4.003906 -10.851562 3.429688 -10.585938 2.945312 -10.046875 C 2.457031 -9.511719 2.214844 -8.820312 2.214844 -7.964844 C 2.214844 -7.199219 2.445312 -6.578125 2.90625 -6.097656 C 3.371094 -5.621094 3.941406 -5.382812 4.617188 -5.382812 C 5.300781 -5.382812 5.863281 -5.621094 6.304688 -6.097656 C 6.746094 -6.578125 6.964844 -7.242188 6.964844 -8.089844 Z M 6.964844 -8.089844 "/>
</g>
<g id="glyph-3-1">
<path d="M 0.695312 -3.148438 L 2.246094 -3.28125 C 2.363281 -2.527344 2.628906 -1.960938 3.046875 -1.578125 C 3.464844 -1.199219 3.96875 -1.007812 4.5625 -1.007812 C 5.273438 -1.007812 5.875 -1.277344 6.367188 -1.8125 C 6.859375 -2.347656 7.105469 -3.058594 7.105469 -3.945312 C 7.105469 -4.789062 6.867188 -5.453125 6.394531 -5.9375 C 5.921875 -6.425781 5.300781 -6.667969 4.535156 -6.667969 C 4.0625 -6.667969 3.632812 -6.5625 3.25 -6.34375 C 2.867188 -6.128906 2.566406 -5.847656 2.347656 -5.503906 L 0.960938 -5.683594 L 2.125 -11.863281 L 8.105469 -11.863281 L 8.105469 -10.449219 L 3.304688 -10.449219 L 2.65625 -7.21875 C 3.378906 -7.722656 4.136719 -7.972656 4.929688 -7.972656 C 5.980469 -7.972656 6.867188 -7.609375 7.585938 -6.882812 C 8.308594 -6.15625 8.671875 -5.21875 8.671875 -4.078125 C 8.671875 -2.988281 8.351562 -2.046875 7.71875 -1.253906 C 6.949219 -0.28125 5.894531 0.203125 4.5625 0.203125 C 3.46875 0.203125 2.574219 -0.101562 1.882812 -0.714844 C 1.191406 -1.324219 0.796875 -2.136719 0.695312 -3.148438 Z M 0.695312 -3.148438 "/>
</g>
<g id="glyph-3-2">
<path d="M 0.976562 -9.136719 C 0.976562 -9.996094 1.191406 -10.726562 1.625 -11.328125 C 2.054688 -11.929688 2.683594 -12.230469 3.503906 -12.230469 C 4.257812 -12.230469 4.882812 -11.960938 5.378906 -11.421875 C 5.871094 -10.882812 6.121094 -10.09375 6.121094 -9.046875 C 6.121094 -8.03125 5.871094 -7.246094 5.367188 -6.699219 C 4.867188 -6.148438 4.25 -5.875 3.519531 -5.875 C 2.792969 -5.875 2.1875 -6.144531 1.703125 -6.6875 C 1.21875 -7.226562 0.976562 -8.042969 0.976562 -9.136719 M 3.542969 -11.214844 C 3.175781 -11.214844 2.871094 -11.054688 2.628906 -10.738281 C 2.386719 -10.421875 2.265625 -9.839844 2.265625 -8.992188 C 2.265625 -8.21875 2.386719 -7.675781 2.632812 -7.363281 C 2.878906 -7.046875 3.183594 -6.890625 3.542969 -6.890625 C 3.914062 -6.890625 4.222656 -7.050781 4.464844 -7.367188 C 4.710938 -7.683594 4.832031 -8.261719 4.832031 -9.105469 C 4.832031 -9.882812 4.707031 -10.425781 4.460938 -10.742188 C 4.214844 -11.054688 3.910156 -11.214844 3.542969 -11.214844 M 3.550781 0.441406 L 10.132812 -12.230469 L 11.328125 -12.230469 L 4.773438 0.441406 L 3.550781 0.441406 M 8.753906 -2.820312 C 8.753906 -3.6875 8.96875 -4.417969 9.402344 -5.015625 C 9.832031 -5.613281 10.460938 -5.914062 11.289062 -5.914062 C 12.042969 -5.914062 12.667969 -5.644531 13.160156 -5.105469 C 13.65625 -4.566406 13.902344 -3.777344 13.90625 -2.730469 C 13.902344 -1.714844 13.652344 -0.929688 13.152344 -0.382812 C 12.652344 0.167969 12.035156 0.441406 11.296875 0.441406 C 10.566406 0.441406 9.960938 0.171875 9.480469 -0.375 C 8.996094 -0.917969 8.753906 -1.734375 8.753906 -2.820312 M 11.328125 -4.898438 C 10.957031 -4.898438 10.648438 -4.738281 10.40625 -4.421875 C 10.164062 -4.105469 10.039062 -3.523438 10.039062 -2.675781 C 10.039062 -1.910156 10.164062 -1.367188 10.410156 -1.050781 C 10.65625 -0.734375 10.960938 -0.574219 11.320312 -0.574219 C 11.699219 -0.574219 12.007812 -0.734375 12.25 -1.050781 C 12.496094 -1.367188 12.617188 -1.945312 12.617188 -2.789062 C 12.617188 -3.566406 12.492188 -4.109375 12.246094 -4.425781 C 12 -4.738281 11.695312 -4.898438 11.328125 -4.898438 Z M 11.328125 -4.898438 "/>
</g>
<g id="glyph-3-3">
</g>
<g id="glyph-3-4">
<path d="M 6.792969 -3.191406 L 8.242188 -3.003906 C 8.085938 -2 7.679688 -1.21875 7.027344 -0.652344 C 6.371094 -0.0859375 5.570312 0.195312 4.617188 0.195312 C 3.425781 0.195312 2.46875 -0.191406 1.742188 -0.972656 C 1.019531 -1.75 0.65625 -2.867188 0.65625 -4.324219 C 0.65625 -5.261719 0.8125 -6.085938 1.125 -6.792969 C 1.4375 -7.496094 1.910156 -8.027344 2.546875 -8.378906 C 3.183594 -8.730469 3.878906 -8.910156 4.625 -8.910156 C 5.574219 -8.910156 6.347656 -8.667969 6.949219 -8.191406 C 7.550781 -7.710938 7.933594 -7.03125 8.105469 -6.152344 L 6.667969 -5.929688 C 6.53125 -6.515625 6.289062 -6.957031 5.941406 -7.25 C 5.597656 -7.546875 5.175781 -7.695312 4.683594 -7.695312 C 3.941406 -7.695312 3.335938 -7.429688 2.871094 -6.894531 C 2.40625 -6.363281 2.171875 -5.519531 2.171875 -4.363281 C 2.171875 -3.195312 2.398438 -2.34375 2.847656 -1.8125 C 3.292969 -1.28125 3.878906 -1.015625 4.601562 -1.015625 C 5.179688 -1.015625 5.664062 -1.195312 6.054688 -1.550781 C 6.441406 -1.90625 6.6875 -2.453125 6.792969 -3.191406 Z M 6.792969 -3.191406 "/>
</g>
<g id="glyph-3-5">
<path d="M 0.558594 -4.355469 C 0.558594 -5.96875 1.007812 -7.164062 1.902344 -7.941406 C 2.652344 -8.585938 3.566406 -8.910156 4.644531 -8.910156 C 5.839844 -8.910156 6.820312 -8.515625 7.578125 -7.730469 C 8.339844 -6.945312 8.71875 -5.863281 8.71875 -4.480469 C 8.71875 -3.359375 8.550781 -2.476562 8.214844 -1.832031 C 7.878906 -1.191406 7.390625 -0.691406 6.746094 -0.335938 C 6.105469 0.0195312 5.402344 0.195312 4.644531 0.195312 C 3.421875 0.195312 2.4375 -0.195312 1.6875 -0.976562 C 0.933594 -1.757812 0.558594 -2.882812 0.558594 -4.355469 M 2.074219 -4.355469 C 2.074219 -3.242188 2.320312 -2.40625 2.804688 -1.851562 C 3.292969 -1.292969 3.90625 -1.015625 4.644531 -1.015625 C 5.375 -1.015625 5.984375 -1.296875 6.472656 -1.855469 C 6.957031 -2.410156 7.203125 -3.261719 7.203125 -4.40625 C 7.203125 -5.480469 6.957031 -6.296875 6.46875 -6.855469 C 5.980469 -7.410156 5.371094 -7.6875 4.644531 -7.6875 C 3.90625 -7.6875 3.292969 -7.410156 2.804688 -6.859375 C 2.320312 -6.304688 2.074219 -5.472656 2.074219 -4.355469 Z M 2.074219 -4.355469 "/>
</g>
<g id="glyph-3-6">
<path d="M 1.109375 0 L 1.109375 -8.710938 L 2.4375 -8.710938 L 2.4375 -7.472656 C 3.074219 -8.429688 4 -8.910156 5.210938 -8.910156 C 5.734375 -8.910156 6.214844 -8.8125 6.65625 -8.625 C 7.097656 -8.4375 7.425781 -8.1875 7.644531 -7.882812 C 7.863281 -7.578125 8.015625 -7.214844 8.105469 -6.792969 C 8.160156 -6.519531 8.1875 -6.039062 8.1875 -5.355469 L 8.1875 0 L 6.710938 0 L 6.710938 -5.300781 C 6.710938 -5.902344 6.652344 -6.351562 6.539062 -6.648438 C 6.421875 -6.945312 6.21875 -7.183594 5.925781 -7.363281 C 5.632812 -7.539062 5.289062 -7.628906 4.898438 -7.628906 C 4.269531 -7.628906 3.726562 -7.429688 3.269531 -7.03125 C 2.8125 -6.628906 2.585938 -5.875 2.585938 -4.757812 L 2.585938 0 Z M 1.109375 0 "/>
</g>
<g id="glyph-3-7">
<path d="M 1.460938 0 L 1.460938 -7.5625 L 0.15625 -7.5625 L 0.15625 -8.710938 L 1.460938 -8.710938 L 1.460938 -9.640625 C 1.460938 -10.222656 1.511719 -10.660156 1.617188 -10.941406 C 1.757812 -11.324219 2.007812 -11.636719 2.367188 -11.875 C 2.726562 -12.113281 3.226562 -12.230469 3.871094 -12.230469 C 4.289062 -12.230469 4.746094 -12.179688 5.25 -12.082031 L 5.027344 -10.796875 C 4.722656 -10.851562 4.433594 -10.878906 4.160156 -10.878906 C 3.710938 -10.878906 3.394531 -10.78125 3.207031 -10.589844 C 3.019531 -10.398438 2.929688 -10.039062 2.929688 -9.515625 L 2.929688 -8.710938 L 4.625 -8.710938 L 4.625 -7.5625 L 2.929688 -7.5625 L 2.929688 0 Z M 1.460938 0 "/>
</g>
<g id="glyph-3-8">
<path d="M 1.117188 -10.328125 L 1.117188 -12.027344 L 2.59375 -12.027344 L 2.59375 -10.328125 L 1.117188 -10.328125 M 1.117188 0 L 1.117188 -8.710938 L 2.59375 -8.710938 L 2.59375 0 Z M 1.117188 0 "/>
</g>
<g id="glyph-3-9">
<path d="M 6.757812 0 L 6.757812 -1.097656 C 6.207031 -0.234375 5.394531 0.195312 4.324219 0.195312 C 3.628906 0.195312 2.988281 0.00390625 2.40625 -0.378906 C 1.824219 -0.761719 1.375 -1.292969 1.054688 -1.980469 C 0.734375 -2.667969 0.574219 -3.457031 0.574219 -4.347656 C 0.574219 -5.21875 0.71875 -6.007812 1.007812 -6.714844 C 1.296875 -7.421875 1.734375 -7.964844 2.3125 -8.34375 C 2.894531 -8.71875 3.539062 -8.910156 4.257812 -8.910156 C 4.78125 -8.910156 5.25 -8.796875 5.660156 -8.578125 C 6.070312 -8.355469 6.402344 -8.066406 6.660156 -7.710938 L 6.660156 -12.027344 L 8.128906 -12.027344 L 8.128906 0 L 6.757812 0 M 2.09375 -4.347656 C 2.089844 -3.230469 2.328125 -2.398438 2.796875 -1.84375 C 3.265625 -1.292969 3.824219 -1.015625 4.460938 -1.015625 C 5.109375 -1.015625 5.65625 -1.28125 6.105469 -1.808594 C 6.558594 -2.335938 6.785156 -3.140625 6.785156 -4.226562 C 6.785156 -5.417969 6.554688 -6.292969 6.09375 -6.851562 C 5.636719 -7.40625 5.070312 -7.6875 4.398438 -7.6875 C 3.742188 -7.6875 3.191406 -7.417969 2.753906 -6.882812 C 2.3125 -6.347656 2.089844 -5.5 2.09375 -4.347656 Z M 2.09375 -4.347656 "/>
</g>
<g id="glyph-3-10">
<path d="M 7.070312 -2.804688 L 8.597656 -2.617188 C 8.355469 -1.726562 7.910156 -1.035156 7.257812 -0.542969 C 6.609375 -0.0507812 5.777344 0.195312 4.765625 0.195312 C 3.492188 0.195312 2.480469 -0.195312 1.734375 -0.980469 C 0.988281 -1.765625 0.617188 -2.867188 0.617188 -4.28125 C 0.617188 -5.746094 0.992188 -6.886719 1.746094 -7.695312 C 2.5 -8.503906 3.480469 -8.910156 4.683594 -8.910156 C 5.847656 -8.910156 6.800781 -8.511719 7.539062 -7.71875 C 8.277344 -6.925781 8.644531 -5.808594 8.644531 -4.371094 C 8.644531 -4.285156 8.644531 -4.152344 8.636719 -3.976562 L 2.140625 -3.976562 C 2.195312 -3.019531 2.464844 -2.289062 2.953125 -1.78125 C 3.441406 -1.273438 4.046875 -1.015625 4.773438 -1.015625 C 5.316406 -1.015625 5.777344 -1.160156 6.160156 -1.445312 C 6.542969 -1.726562 6.847656 -2.183594 7.070312 -2.804688 M 2.222656 -5.191406 L 7.085938 -5.191406 C 7.023438 -5.925781 6.835938 -6.476562 6.53125 -6.839844 C 6.058594 -7.410156 5.449219 -7.695312 4.699219 -7.695312 C 4.023438 -7.695312 3.453125 -7.46875 2.988281 -7.015625 C 2.527344 -6.558594 2.273438 -5.953125 2.222656 -5.191406 Z M 2.222656 -5.191406 "/>
</g>
<g id="glyph-3-11">
<path d="M 4.332031 -1.320312 L 4.542969 -0.015625 C 4.128906 0.0703125 3.757812 0.113281 3.429688 0.113281 C 2.894531 0.113281 2.476562 0.03125 2.183594 -0.140625 C 1.886719 -0.308594 1.679688 -0.53125 1.558594 -0.808594 C 1.4375 -1.085938 1.378906 -1.664062 1.378906 -2.550781 L 1.378906 -7.5625 L 0.296875 -7.5625 L 0.296875 -8.710938 L 1.378906 -8.710938 L 1.378906 -10.867188 L 2.847656 -11.753906 L 2.847656 -8.710938 L 4.332031 -8.710938 L 4.332031 -7.5625 L 2.847656 -7.5625 L 2.847656 -2.46875 C 2.847656 -2.046875 2.871094 -1.777344 2.925781 -1.65625 C 2.976562 -1.535156 3.0625 -1.441406 3.179688 -1.371094 C 3.296875 -1.296875 3.464844 -1.261719 3.683594 -1.261719 C 3.847656 -1.261719 4.0625 -1.28125 4.332031 -1.320312 Z M 4.332031 -1.320312 "/>
</g>
<g id="glyph-3-12">
<path d="M 1.089844 0 L 1.089844 -8.710938 L 2.421875 -8.710938 L 2.421875 -7.390625 C 2.757812 -8.007812 3.070312 -8.417969 3.359375 -8.613281 C 3.644531 -8.808594 3.960938 -8.910156 4.304688 -8.910156 C 4.804688 -8.910156 5.308594 -8.75 5.824219 -8.433594 L 5.316406 -7.0625 C 4.953125 -7.277344 4.59375 -7.382812 4.234375 -7.382812 C 3.910156 -7.382812 3.621094 -7.285156 3.363281 -7.089844 C 3.105469 -6.898438 2.921875 -6.628906 2.8125 -6.285156 C 2.648438 -5.757812 2.566406 -5.183594 2.566406 -4.5625 L 2.566406 0 Z M 1.089844 0 "/>
</g>
<g id="glyph-3-13">
<path d="M 3.527344 0 L 0.214844 -8.710938 L 1.773438 -8.710938 L 3.640625 -3.496094 C 3.84375 -2.929688 4.03125 -2.347656 4.199219 -1.738281 C 4.332031 -2.199219 4.515625 -2.75 4.75 -3.394531 L 6.6875 -8.710938 L 8.203125 -8.710938 L 4.90625 0 Z M 3.527344 0 "/>
</g>
<g id="glyph-3-14">
<path d="M 6.792969 -1.074219 C 6.246094 -0.609375 5.71875 -0.28125 5.214844 -0.0898438 C 4.707031 0.101562 4.164062 0.195312 3.585938 0.195312 C 2.628906 0.195312 1.890625 -0.0351562 1.378906 -0.503906 C 0.863281 -0.972656 0.605469 -1.570312 0.605469 -2.296875 C 0.605469 -2.722656 0.703125 -3.113281 0.898438 -3.464844 C 1.09375 -3.820312 1.347656 -4.101562 1.660156 -4.316406 C 1.976562 -4.527344 2.328125 -4.6875 2.722656 -4.796875 C 3.011719 -4.875 3.449219 -4.949219 4.035156 -5.019531 C 5.226562 -5.164062 6.105469 -5.332031 6.667969 -5.527344 C 6.675781 -5.730469 6.675781 -5.859375 6.675781 -5.914062 C 6.675781 -6.515625 6.539062 -6.941406 6.257812 -7.1875 C 5.882812 -7.519531 5.320312 -7.6875 4.578125 -7.6875 C 3.882812 -7.6875 3.371094 -7.566406 3.039062 -7.320312 C 2.707031 -7.078125 2.464844 -6.648438 2.304688 -6.03125 L 0.859375 -6.226562 C 0.992188 -6.84375 1.207031 -7.34375 1.507812 -7.722656 C 1.808594 -8.101562 2.246094 -8.394531 2.8125 -8.601562 C 3.382812 -8.804688 4.042969 -8.910156 4.789062 -8.910156 C 5.535156 -8.910156 6.136719 -8.820312 6.601562 -8.644531 C 7.066406 -8.472656 7.410156 -8.25 7.628906 -7.984375 C 7.847656 -7.71875 8 -7.386719 8.089844 -6.980469 C 8.136719 -6.730469 8.164062 -6.273438 8.164062 -5.617188 L 8.164062 -3.648438 C 8.164062 -2.277344 8.195312 -1.410156 8.257812 -1.046875 C 8.320312 -0.683594 8.445312 -0.332031 8.628906 0 L 7.085938 0 C 6.933594 -0.304688 6.835938 -0.664062 6.792969 -1.074219 M 6.667969 -4.371094 C 6.132812 -4.152344 5.328125 -3.96875 4.257812 -3.8125 C 3.648438 -3.726562 3.222656 -3.628906 2.96875 -3.519531 C 2.71875 -3.410156 2.523438 -3.25 2.386719 -3.039062 C 2.25 -2.828125 2.183594 -2.59375 2.183594 -2.335938 C 2.183594 -1.945312 2.332031 -1.617188 2.628906 -1.351562 C 2.925781 -1.089844 3.363281 -0.960938 3.9375 -0.960938 C 4.507812 -0.960938 5.011719 -1.085938 5.453125 -1.332031 C 5.898438 -1.582031 6.222656 -1.921875 6.429688 -2.355469 C 6.589844 -2.6875 6.667969 -3.179688 6.667969 -3.832031 Z M 6.667969 -4.371094 "/>
</g>
<g id="glyph-3-15">
<path d="M 1.074219 0 L 1.074219 -12.027344 L 2.550781 -12.027344 L 2.550781 0 Z M 1.074219 0 "/>
</g>
<g id="glyph-3-16">
<path d="M 1.109375 0 L 1.109375 -8.710938 L 2.429688 -8.710938 L 2.429688 -7.488281 C 2.703125 -7.914062 3.066406 -8.257812 3.519531 -8.519531 C 3.972656 -8.777344 4.488281 -8.910156 5.070312 -8.910156 C 5.714844 -8.910156 6.242188 -8.773438 6.65625 -8.507812 C 7.070312 -8.238281 7.359375 -7.863281 7.53125 -7.382812 C 8.21875 -8.398438 9.117188 -8.910156 10.222656 -8.910156 C 11.085938 -8.910156 11.75 -8.667969 12.214844 -8.191406 C 12.679688 -7.710938 12.910156 -6.976562 12.910156 -5.980469 L 12.910156 0 L 11.445312 0 L 11.445312 -5.488281 C 11.445312 -6.078125 11.394531 -6.503906 11.300781 -6.761719 C 11.203125 -7.023438 11.03125 -7.230469 10.777344 -7.390625 C 10.527344 -7.550781 10.230469 -7.628906 9.894531 -7.628906 C 9.28125 -7.628906 8.773438 -7.425781 8.367188 -7.019531 C 7.960938 -6.609375 7.761719 -5.957031 7.761719 -5.0625 L 7.761719 0 L 6.285156 0 L 6.285156 -5.660156 C 6.285156 -6.316406 6.164062 -6.808594 5.921875 -7.136719 C 5.683594 -7.464844 5.289062 -7.628906 4.742188 -7.628906 C 4.324219 -7.628906 3.941406 -7.519531 3.589844 -7.300781 C 3.234375 -7.082031 2.980469 -6.761719 2.820312 -6.339844 C 2.664062 -5.917969 2.585938 -5.3125 2.585938 -4.519531 L 2.585938 0 Z M 1.109375 0 "/>
</g>
<g id="glyph-3-17">
<path d="M 1.109375 3.339844 L 1.109375 -8.710938 L 2.453125 -8.710938 L 2.453125 -7.578125 C 2.769531 -8.023438 3.128906 -8.355469 3.527344 -8.578125 C 3.925781 -8.796875 4.410156 -8.910156 4.980469 -8.910156 C 5.722656 -8.910156 6.378906 -8.71875 6.949219 -8.335938 C 7.515625 -7.953125 7.945312 -7.410156 8.234375 -6.714844 C 8.527344 -6.015625 8.671875 -5.253906 8.671875 -4.421875 C 8.671875 -3.53125 8.511719 -2.726562 8.191406 -2.015625 C 7.871094 -1.300781 7.40625 -0.753906 6.796875 -0.375 C 6.1875 0.0078125 5.546875 0.195312 4.871094 0.195312 C 4.378906 0.195312 3.9375 0.09375 3.546875 -0.113281 C 3.15625 -0.324219 2.835938 -0.585938 2.585938 -0.902344 L 2.585938 3.339844 L 1.109375 3.339844 M 2.445312 -4.304688 C 2.445312 -3.183594 2.671875 -2.355469 3.125 -1.820312 C 3.578125 -1.285156 4.128906 -1.015625 4.773438 -1.015625 C 5.429688 -1.015625 5.992188 -1.292969 6.460938 -1.851562 C 6.925781 -2.40625 7.160156 -3.265625 7.160156 -4.429688 C 7.160156 -5.539062 6.933594 -6.371094 6.476562 -6.921875 C 6.019531 -7.476562 5.472656 -7.75 4.839844 -7.75 C 4.210938 -7.75 3.65625 -7.457031 3.171875 -6.871094 C 2.6875 -6.28125 2.445312 -5.425781 2.445312 -4.304688 Z M 2.445312 -4.304688 "/>
</g>
<g id="glyph-3-18">
<path d="M 6.816406 0 L 6.816406 -1.28125 C 6.136719 -0.296875 5.21875 0.195312 4.050781 0.195312 C 3.539062 0.195312 3.058594 0.0976562 2.613281 -0.0976562 C 2.167969 -0.296875 1.835938 -0.542969 1.621094 -0.839844 C 1.402344 -1.140625 1.253906 -1.503906 1.164062 -1.9375 C 1.105469 -2.226562 1.074219 -2.683594 1.074219 -3.3125 L 1.074219 -8.710938 L 2.550781 -8.710938 L 2.550781 -3.878906 C 2.550781 -3.109375 2.582031 -2.589844 2.640625 -2.320312 C 2.734375 -1.933594 2.929688 -1.628906 3.230469 -1.40625 C 3.53125 -1.183594 3.90625 -1.074219 4.347656 -1.074219 C 4.789062 -1.074219 5.207031 -1.1875 5.59375 -1.414062 C 5.984375 -1.640625 6.257812 -1.949219 6.417969 -2.34375 C 6.582031 -2.734375 6.660156 -3.300781 6.660156 -4.042969 L 6.660156 -8.710938 L 8.136719 -8.710938 L 8.136719 0 Z M 6.816406 0 "/>
</g>
<g id="glyph-3-19">
<path d="M 2.714844 0 L 0.0507812 -8.710938 L 1.574219 -8.710938 L 2.960938 -3.683594 L 3.476562 -1.8125 C 3.5 -1.90625 3.648438 -2.503906 3.929688 -3.609375 L 5.316406 -8.710938 L 6.832031 -8.710938 L 8.136719 -3.660156 L 8.570312 -1.992188 L 9.074219 -3.675781 L 10.566406 -8.710938 L 12 -8.710938 L 9.277344 0 L 7.742188 0 L 6.359375 -5.21875 L 6.019531 -6.703125 L 4.257812 0 Z M 2.714844 0 "/>
</g>
<g id="glyph-3-20">
<path d="M 1.109375 0 L 1.109375 -12.027344 L 2.585938 -12.027344 L 2.585938 -7.710938 C 3.273438 -8.507812 4.140625 -8.910156 5.191406 -8.910156 C 5.835938 -8.910156 6.398438 -8.78125 6.875 -8.527344 C 7.351562 -8.273438 7.691406 -7.921875 7.894531 -7.472656 C 8.101562 -7.023438 8.203125 -6.375 8.203125 -5.519531 L 8.203125 0 L 6.726562 0 L 6.726562 -5.519531 C 6.726562 -6.257812 6.566406 -6.796875 6.246094 -7.132812 C 5.925781 -7.46875 5.472656 -7.636719 4.890625 -7.636719 C 4.453125 -7.636719 4.039062 -7.523438 3.65625 -7.296875 C 3.269531 -7.070312 2.992188 -6.761719 2.828125 -6.375 C 2.664062 -5.984375 2.585938 -5.449219 2.585938 -4.765625 L 2.585938 0 Z M 1.109375 0 "/>
</g>
<g id="glyph-3-21">
<path d="M 0.515625 -2.601562 L 1.976562 -2.828125 C 2.058594 -2.246094 2.289062 -1.796875 2.660156 -1.484375 C 3.035156 -1.171875 3.558594 -1.015625 4.234375 -1.015625 C 4.910156 -1.015625 5.414062 -1.15625 5.742188 -1.429688 C 6.070312 -1.707031 6.234375 -2.03125 6.234375 -2.402344 C 6.234375 -2.738281 6.089844 -3 5.800781 -3.191406 C 5.597656 -3.320312 5.09375 -3.488281 4.289062 -3.691406 C 3.207031 -3.964844 2.457031 -4.203125 2.039062 -4.402344 C 1.621094 -4.601562 1.304688 -4.875 1.085938 -5.230469 C 0.871094 -5.582031 0.761719 -5.972656 0.761719 -6.398438 C 0.761719 -6.785156 0.851562 -7.144531 1.03125 -7.476562 C 1.207031 -7.808594 1.449219 -8.082031 1.753906 -8.300781 C 1.984375 -8.472656 2.296875 -8.613281 2.695312 -8.730469 C 3.089844 -8.851562 3.515625 -8.910156 3.96875 -8.910156 C 4.652344 -8.910156 5.253906 -8.808594 5.769531 -8.613281 C 6.289062 -8.417969 6.667969 -8.148438 6.914062 -7.8125 C 7.160156 -7.476562 7.332031 -7.027344 7.421875 -6.464844 L 5.980469 -6.265625 C 5.914062 -6.714844 5.722656 -7.066406 5.410156 -7.316406 C 5.09375 -7.570312 4.652344 -7.695312 4.078125 -7.695312 C 3.398438 -7.695312 2.914062 -7.582031 2.625 -7.359375 C 2.335938 -7.132812 2.191406 -6.871094 2.191406 -6.570312 C 2.191406 -6.378906 2.25 -6.207031 2.371094 -6.054688 C 2.492188 -5.894531 2.679688 -5.765625 2.9375 -5.660156 C 3.085938 -5.605469 3.519531 -5.480469 4.242188 -5.28125 C 5.285156 -5.003906 6.015625 -4.777344 6.425781 -4.597656 C 6.839844 -4.421875 7.164062 -4.160156 7.398438 -3.824219 C 7.632812 -3.484375 7.75 -3.0625 7.75 -2.558594 C 7.75 -2.066406 7.609375 -1.605469 7.320312 -1.167969 C 7.035156 -0.734375 6.621094 -0.398438 6.078125 -0.160156 C 5.539062 0.078125 4.925781 0.195312 4.242188 0.195312 C 3.109375 0.195312 2.246094 -0.0390625 1.652344 -0.507812 C 1.058594 -0.980469 0.679688 -1.675781 0.515625 -2.601562 Z M 0.515625 -2.601562 "/>
</g>
</g>
<clipPath id="clip-0">
<path clip-rule="nonzero" d="M 50.390625 53.449219 L 713.023438 53.449219 L 713.023438 351.917969 L 50.390625 351.917969 Z M 50.390625 53.449219 "/>
</clipPath>
<clipPath id="clip-1">
<path clip-rule="nonzero" d="M 50.390625 285 L 713.023438 285 L 713.023438 286 L 50.390625 286 Z M 50.390625 285 "/>
</clipPath>
<clipPath id="clip-2">
<path clip-rule="nonzero" d="M 50.390625 179 L 713.023438 179 L 713.023438 180 L 50.390625 180 Z M 50.390625 179 "/>
</clipPath>
<clipPath id="clip-3">
<path clip-rule="nonzero" d="M 50.390625 73 L 713.023438 73 L 713.023438 74 L 50.390625 74 Z M 50.390625 73 "/>
</clipPath>
<clipPath id="clip-4">
<path clip-rule="nonzero" d="M 108 53.449219 L 110 53.449219 L 110 351.917969 L 108 351.917969 Z M 108 53.449219 "/>
</clipPath>
<clipPath id="clip-5">
<path clip-rule="nonzero" d="M 280 53.449219 L 282 53.449219 L 282 351.917969 L 280 351.917969 Z M 280 53.449219 "/>
</clipPath>
<clipPath id="clip-6">
<path clip-rule="nonzero" d="M 453 53.449219 L 454 53.449219 L 454 351.917969 L 453 351.917969 Z M 453 53.449219 "/>
</clipPath>
<clipPath id="clip-7">
<path clip-rule="nonzero" d="M 625 53.449219 L 626 53.449219 L 626 351.917969 L 625 351.917969 Z M 625 53.449219 "/>
</clipPath>
<clipPath id="clip-8">
<path clip-rule="nonzero" d="M 50.390625 337 L 713.023438 337 L 713.023438 340 L 50.390625 340 Z M 50.390625 337 "/>
</clipPath>
<clipPath id="clip-9">
<path clip-rule="nonzero" d="M 50.390625 231 L 713.023438 231 L 713.023438 234 L 50.390625 234 Z M 50.390625 231 "/>
</clipPath>
<clipPath id="clip-10">
<path clip-rule="nonzero" d="M 50.390625 125 L 713.023438 125 L 713.023438 128 L 50.390625 128 Z M 50.390625 125 "/>
</clipPath>
<clipPath id="clip-11">
<path clip-rule="nonzero" d="M 194 53.449219 L 196 53.449219 L 196 351.917969 L 194 351.917969 Z M 194 53.449219 "/>
</clipPath>
<clipPath id="clip-12">
<path clip-rule="nonzero" d="M 366 53.449219 L 369 53.449219 L 369 351.917969 L 366 351.917969 Z M 366 53.449219 "/>
</clipPath>
<clipPath id="clip-13">
<path clip-rule="nonzero" d="M 538 53.449219 L 541 53.449219 L 541 351.917969 L 538 351.917969 Z M 538 53.449219 "/>
</clipPath>
<clipPath id="clip-14">
<path clip-rule="nonzero" d="M 710 53.449219 L 713 53.449219 L 713 351.917969 L 710 351.917969 Z M 710 53.449219 "/>
</clipPath>
<clipPath id="clip-15">
<path clip-rule="nonzero" d="M 179 53.449219 L 182 53.449219 L 182 351.917969 L 179 351.917969 Z M 179 53.449219 "/>
</clipPath>
<clipPath id="clip-16">
<path clip-rule="nonzero" d="M 540 53.449219 L 542 53.449219 L 542 351.917969 L 540 351.917969 Z M 540 53.449219 "/>
</clipPath>
<clipPath id="clip-17">
<path clip-rule="nonzero" d="M 176 53.449219 L 178 53.449219 L 178 351.917969 L 176 351.917969 Z M 176 53.449219 "/>
</clipPath>
<clipPath id="clip-18">
<path clip-rule="nonzero" d="M 545 53.449219 L 547 53.449219 L 547 351.917969 L 545 351.917969 Z M 545 53.449219 "/>
</clipPath>
<clipPath id="clip-19">
<path clip-rule="nonzero" d="M 171 53.449219 L 174 53.449219 L 174 351.917969 L 171 351.917969 Z M 171 53.449219 "/>
</clipPath>
<clipPath id="clip-20">
<path clip-rule="nonzero" d="M 549 53.449219 L 551 53.449219 L 551 351.917969 L 549 351.917969 Z M 549 53.449219 "/>
</clipPath>
<clipPath id="clip-21">
<path clip-rule="nonzero" d="M 50.390625 53.449219 L 713.023438 53.449219 L 713.023438 351.917969 L 50.390625 351.917969 Z M 50.390625 53.449219 "/>
</clipPath>
</defs>
<rect x="-72" y="-39.6" width="864" height="475.2" fill="rgb(100%, 100%, 100%)" fill-opacity="1"/>
<rect x="-72" y="-39.6" width="864" height="475.2" fill="rgb(100%, 100%, 100%)" fill-opacity="1"/>
<path fill="none" stroke-width="1.357972" stroke-linecap="round" stroke-linejoin="round" stroke="rgb(100%, 100%, 100%)" stroke-opacity="1" stroke-miterlimit="10" d="M 0 396 L 720 396 L 720 0 L 0 0 Z M 0 396 "/>
<g clip-path="url(#clip-0)">
<path fill-rule="nonzero" fill="rgb(100%, 100%, 100%)" fill-opacity="1" d="M 50.390625 351.921875 L 713.023438 351.921875 L 713.023438 53.453125 L 50.390625 53.453125 Z M 50.390625 351.921875 "/>
</g>
<g clip-path="url(#clip-1)">
<path fill="none" stroke-width="0.678986" stroke-linecap="butt" stroke-linejoin="round" stroke="rgb(92.156863%, 92.156863%, 92.156863%)" stroke-opacity="1" stroke-miterlimit="10" d="M 50.390625 285.359375 L 713.027344 285.359375 "/>
</g>
<g clip-path="url(#clip-2)">
<path fill="none" stroke-width="0.678986" stroke-linecap="butt" stroke-linejoin="round" stroke="rgb(92.156863%, 92.156863%, 92.156863%)" stroke-opacity="1" stroke-miterlimit="10" d="M 50.390625 179.367188 L 713.027344 179.367188 "/>
</g>
<g clip-path="url(#clip-3)">
<path fill="none" stroke-width="0.678986" stroke-linecap="butt" stroke-linejoin="round" stroke="rgb(92.156863%, 92.156863%, 92.156863%)" stroke-opacity="1" stroke-miterlimit="10" d="M 50.390625 73.375 L 713.027344 73.375 "/>
</g>
<g clip-path="url(#clip-4)">
<path fill="none" stroke-width="0.678986" stroke-linecap="butt" stroke-linejoin="round" stroke="rgb(92.156863%, 92.156863%, 92.156863%)" stroke-opacity="1" stroke-miterlimit="10" d="M 109.195312 351.921875 L 109.195312 53.449219 "/>
</g>
<g clip-path="url(#clip-5)">
<path fill="none" stroke-width="0.678986" stroke-linecap="butt" stroke-linejoin="round" stroke="rgb(92.156863%, 92.156863%, 92.156863%)" stroke-opacity="1" stroke-miterlimit="10" d="M 281.308594 351.921875 L 281.308594 53.449219 "/>
</g>
<g clip-path="url(#clip-6)">
<path fill="none" stroke-width="0.678986" stroke-linecap="butt" stroke-linejoin="round" stroke="rgb(92.156863%, 92.156863%, 92.156863%)" stroke-opacity="1" stroke-miterlimit="10" d="M 453.421875 351.921875 L 453.421875 53.449219 "/>
</g>
<g clip-path="url(#clip-7)">
<path fill="none" stroke-width="0.678986" stroke-linecap="butt" stroke-linejoin="round" stroke="rgb(92.156863%, 92.156863%, 92.156863%)" stroke-opacity="1" stroke-miterlimit="10" d="M 625.535156 351.921875 L 625.535156 53.449219 "/>
</g>
<g clip-path="url(#clip-8)">
<path fill="none" stroke-width="1.357972" stroke-linecap="butt" stroke-linejoin="round" stroke="rgb(92.156863%, 92.156863%, 92.156863%)" stroke-opacity="1" stroke-miterlimit="10" d="M 50.390625 338.355469 L 713.027344 338.355469 "/>
</g>
<g clip-path="url(#clip-9)">
<path fill="none" stroke-width="1.357972" stroke-linecap="butt" stroke-linejoin="round" stroke="rgb(92.156863%, 92.156863%, 92.156863%)" stroke-opacity="1" stroke-miterlimit="10" d="M 50.390625 232.363281 L 713.027344 232.363281 "/>
</g>
<g clip-path="url(#clip-10)">
<path fill="none" stroke-width="1.357972" stroke-linecap="butt" stroke-linejoin="round" stroke="rgb(92.156863%, 92.156863%, 92.156863%)" stroke-opacity="1" stroke-miterlimit="10" d="M 50.390625 126.371094 L 713.027344 126.371094 "/>
</g>
<g clip-path="url(#clip-11)">
<path fill="none" stroke-width="1.357972" stroke-linecap="butt" stroke-linejoin="round" stroke="rgb(92.156863%, 92.156863%, 92.156863%)" stroke-opacity="1" stroke-miterlimit="10" d="M 195.253906 351.921875 L 195.253906 53.449219 "/>
</g>
<g clip-path="url(#clip-12)">
<path fill="none" stroke-width="1.357972" stroke-linecap="butt" stroke-linejoin="round" stroke="rgb(92.156863%, 92.156863%, 92.156863%)" stroke-opacity="1" stroke-miterlimit="10" d="M 367.367188 351.921875 L 367.367188 53.449219 "/>
</g>
<g clip-path="url(#clip-13)">
<path fill="none" stroke-width="1.357972" stroke-linecap="butt" stroke-linejoin="round" stroke="rgb(92.156863%, 92.156863%, 92.156863%)" stroke-opacity="1" stroke-miterlimit="10" d="M 539.480469 351.921875 L 539.480469 53.449219 "/>
</g>
<g clip-path="url(#clip-14)">
<path fill="none" stroke-width="1.357972" stroke-linecap="butt" stroke-linejoin="round" stroke="rgb(92.156863%, 92.156863%, 92.156863%)" stroke-opacity="1" stroke-miterlimit="10" d="M 711.59375 351.921875 L 711.59375 53.449219 "/>
</g>
<path fill-rule="nonzero" fill="rgb(85.098039%, 1.960784%, 0.784314%)" fill-opacity="1" stroke-width="1.357972" stroke-linecap="butt" stroke-linejoin="miter" stroke="rgb(100%, 100%, 100%)" stroke-opacity="1" stroke-miterlimit="10" d="M 80.511719 338.355469 L 109.195312 338.355469 L 109.195312 334.117188 L 80.511719 334.117188 Z M 80.511719 338.355469 "/>
<path fill-rule="nonzero" fill="rgb(85.098039%, 1.960784%, 0.784314%)" fill-opacity="1" stroke-width="1.357972" stroke-linecap="butt" stroke-linejoin="miter" stroke="rgb(100%, 100%, 100%)" stroke-opacity="1" stroke-miterlimit="10" d="M 109.195312 338.355469 L 137.878906 338.355469 L 137.878906 317.15625 L 109.195312 317.15625 Z M 109.195312 338.355469 "/>
<path fill-rule="nonzero" fill="rgb(85.098039%, 1.960784%, 0.784314%)" fill-opacity="1" stroke-width="1.357972" stroke-linecap="butt" stroke-linejoin="miter" stroke="rgb(100%, 100%, 100%)" stroke-opacity="1" stroke-miterlimit="10" d="M 137.882812 338.355469 L 166.566406 338.355469 L 166.566406 321.398438 L 137.882812 321.398438 Z M 137.882812 338.355469 "/>
<path fill-rule="nonzero" fill="rgb(85.098039%, 1.960784%, 0.784314%)" fill-opacity="1" stroke-width="1.357972" stroke-linecap="butt" stroke-linejoin="miter" stroke="rgb(100%, 100%, 100%)" stroke-opacity="1" stroke-miterlimit="10" d="M 166.566406 338.355469 L 195.25 338.355469 L 195.25 300.199219 L 166.566406 300.199219 Z M 166.566406 338.355469 "/>
<path fill-rule="nonzero" fill="rgb(85.098039%, 1.960784%, 0.784314%)" fill-opacity="1" stroke-width="1.357972" stroke-linecap="butt" stroke-linejoin="miter" stroke="rgb(100%, 100%, 100%)" stroke-opacity="1" stroke-miterlimit="10" d="M 195.253906 338.355469 L 223.9375 338.355469 L 223.9375 279 L 195.253906 279 Z M 195.253906 338.355469 "/>
<path fill-rule="nonzero" fill="rgb(85.098039%, 1.960784%, 0.784314%)" fill-opacity="1" stroke-width="1.357972" stroke-linecap="butt" stroke-linejoin="miter" stroke="rgb(100%, 100%, 100%)" stroke-opacity="1" stroke-miterlimit="10" d="M 223.9375 338.355469 L 252.621094 338.355469 L 252.621094 213.285156 L 223.9375 213.285156 Z M 223.9375 338.355469 "/>
<path fill-rule="nonzero" fill="rgb(85.098039%, 1.960784%, 0.784314%)" fill-opacity="1" stroke-width="1.357972" stroke-linecap="butt" stroke-linejoin="miter" stroke="rgb(100%, 100%, 100%)" stroke-opacity="1" stroke-miterlimit="10" d="M 252.625 338.355469 L 281.308594 338.355469 L 281.308594 200.566406 L 252.625 200.566406 Z M 252.625 338.355469 "/>
<path fill-rule="nonzero" fill="rgb(85.098039%, 1.960784%, 0.784314%)" fill-opacity="1" stroke-width="1.357972" stroke-linecap="butt" stroke-linejoin="miter" stroke="rgb(100%, 100%, 100%)" stroke-opacity="1" stroke-miterlimit="10" d="M 281.308594 338.355469 L 309.992188 338.355469 L 309.992188 107.296875 L 281.308594 107.296875 Z M 281.308594 338.355469 "/>
<path fill-rule="nonzero" fill="rgb(85.098039%, 1.960784%, 0.784314%)" fill-opacity="1" stroke-width="1.357972" stroke-linecap="butt" stroke-linejoin="miter" stroke="rgb(100%, 100%, 100%)" stroke-opacity="1" stroke-miterlimit="10" d="M 309.996094 338.355469 L 338.679688 338.355469 L 338.679688 124.253906 L 309.996094 124.253906 Z M 309.996094 338.355469 "/>
<path fill-rule="nonzero" fill="rgb(85.098039%, 1.960784%, 0.784314%)" fill-opacity="1" stroke-width="1.357972" stroke-linecap="butt" stroke-linejoin="miter" stroke="rgb(100%, 100%, 100%)" stroke-opacity="1" stroke-miterlimit="10" d="M 338.679688 338.355469 L 367.363281 338.355469 L 367.363281 67.019531 L 338.679688 67.019531 Z M 338.679688 338.355469 "/>
<path fill-rule="nonzero" fill="rgb(85.098039%, 1.960784%, 0.784314%)" fill-opacity="1" stroke-width="1.357972" stroke-linecap="butt" stroke-linejoin="miter" stroke="rgb(100%, 100%, 100%)" stroke-opacity="1" stroke-miterlimit="10" d="M 367.367188 338.355469 L 396.050781 338.355469 L 396.050781 98.816406 L 367.367188 98.816406 Z M 367.367188 338.355469 "/>
<path fill-rule="nonzero" fill="rgb(85.098039%, 1.960784%, 0.784314%)" fill-opacity="1" stroke-width="1.357972" stroke-linecap="butt" stroke-linejoin="miter" stroke="rgb(100%, 100%, 100%)" stroke-opacity="1" stroke-miterlimit="10" d="M 396.050781 338.355469 L 424.734375 338.355469 L 424.734375 122.132812 L 396.050781 122.132812 Z M 396.050781 338.355469 "/>
<path fill-rule="nonzero" fill="rgb(85.098039%, 1.960784%, 0.784314%)" fill-opacity="1" stroke-width="1.357972" stroke-linecap="butt" stroke-linejoin="miter" stroke="rgb(100%, 100%, 100%)" stroke-opacity="1" stroke-miterlimit="10" d="M 424.738281 338.355469 L 453.421875 338.355469 L 453.421875 136.972656 L 424.738281 136.972656 Z M 424.738281 338.355469 "/>
<path fill-rule="nonzero" fill="rgb(85.098039%, 1.960784%, 0.784314%)" fill-opacity="1" stroke-width="1.357972" stroke-linecap="butt" stroke-linejoin="miter" stroke="rgb(100%, 100%, 100%)" stroke-opacity="1" stroke-miterlimit="10" d="M 453.421875 338.355469 L 482.105469 338.355469 L 482.105469 202.6875 L 453.421875 202.6875 Z M 453.421875 338.355469 "/>
<path fill-rule="nonzero" fill="rgb(85.098039%, 1.960784%, 0.784314%)" fill-opacity="1" stroke-width="1.357972" stroke-linecap="butt" stroke-linejoin="miter" stroke="rgb(100%, 100%, 100%)" stroke-opacity="1" stroke-miterlimit="10" d="M 482.109375 338.355469 L 510.792969 338.355469 L 510.792969 251.441406 L 482.109375 251.441406 Z M 482.109375 338.355469 "/>
<path fill-rule="nonzero" fill="rgb(85.098039%, 1.960784%, 0.784314%)" fill-opacity="1" stroke-width="1.357972" stroke-linecap="butt" stroke-linejoin="miter" stroke="rgb(100%, 100%, 100%)" stroke-opacity="1" stroke-miterlimit="10" d="M 510.792969 338.355469 L 539.476562 338.355469 L 539.476562 272.640625 L 510.792969 272.640625 Z M 510.792969 338.355469 "/>
<path fill-rule="nonzero" fill="rgb(85.098039%, 1.960784%, 0.784314%)" fill-opacity="1" stroke-width="1.357972" stroke-linecap="butt" stroke-linejoin="miter" stroke="rgb(100%, 100%, 100%)" stroke-opacity="1" stroke-miterlimit="10" d="M 539.480469 338.355469 L 568.164062 338.355469 L 568.164062 317.15625 L 539.480469 317.15625 Z M 539.480469 338.355469 "/>
<path fill-rule="nonzero" fill="rgb(85.098039%, 1.960784%, 0.784314%)" fill-opacity="1" stroke-width="1.357972" stroke-linecap="butt" stroke-linejoin="miter" stroke="rgb(100%, 100%, 100%)" stroke-opacity="1" stroke-miterlimit="10" d="M 568.164062 338.355469 L 596.847656 338.355469 L 596.847656 323.515625 L 568.164062 323.515625 Z M 568.164062 338.355469 "/>
<path fill-rule="nonzero" fill="rgb(85.098039%, 1.960784%, 0.784314%)" fill-opacity="1" stroke-width="1.357972" stroke-linecap="butt" stroke-linejoin="miter" stroke="rgb(100%, 100%, 100%)" stroke-opacity="1" stroke-miterlimit="10" d="M 596.851562 338.355469 L 625.535156 338.355469 L 625.535156 329.875 L 596.851562 329.875 Z M 596.851562 338.355469 "/>
<path fill-rule="nonzero" fill="rgb(85.098039%, 1.960784%, 0.784314%)" fill-opacity="1" stroke-width="1.357972" stroke-linecap="butt" stroke-linejoin="miter" stroke="rgb(100%, 100%, 100%)" stroke-opacity="1" stroke-miterlimit="10" d="M 625.535156 338.355469 L 654.21875 338.355469 L 654.21875 331.996094 L 625.535156 331.996094 Z M 625.535156 338.355469 "/>
<path fill-rule="nonzero" fill="rgb(85.098039%, 1.960784%, 0.784314%)" fill-opacity="1" stroke-width="1.357972" stroke-linecap="butt" stroke-linejoin="miter" stroke="rgb(100%, 100%, 100%)" stroke-opacity="1" stroke-miterlimit="10" d="M 654.222656 338.355469 L 682.90625 338.355469 L 682.90625 334.117188 L 654.222656 334.117188 Z M 654.222656 338.355469 "/>
<g clip-path="url(#clip-15)">
<path fill="none" stroke-width="1.357972" stroke-linecap="butt" stroke-linejoin="round" stroke="rgb(0%, 0%, 0%)" stroke-opacity="1" stroke-dasharray="5.43189 5.43189" stroke-miterlimit="10" d="M 180.609375 351.921875 L 180.609375 53.449219 "/>
</g>
<g clip-path="url(#clip-16)">
<path fill="none" stroke-width="1.357972" stroke-linecap="butt" stroke-linejoin="round" stroke="rgb(0%, 0%, 0%)" stroke-opacity="1" stroke-dasharray="5.43189 5.43189" stroke-miterlimit="10" d="M 540.734375 351.921875 L 540.734375 53.449219 "/>
</g>
<g clip-path="url(#clip-17)">
<path fill="none" stroke-width="1.357972" stroke-linecap="butt" stroke-linejoin="round" stroke="rgb(0%, 0%, 0%)" stroke-opacity="1" stroke-dasharray="9.505807 4.073917" stroke-miterlimit="10" d="M 176.695312 351.921875 L 176.695312 53.449219 "/>
</g>
<g clip-path="url(#clip-18)">
<path fill="none" stroke-width="1.357972" stroke-linecap="butt" stroke-linejoin="round" stroke="rgb(0%, 0%, 0%)" stroke-opacity="1" stroke-dasharray="9.505807 4.073917" stroke-miterlimit="10" d="M 545.992188 351.921875 L 545.992188 53.449219 "/>
</g>
<g clip-path="url(#clip-19)">
<path fill="none" stroke-width="1.357972" stroke-linecap="butt" stroke-linejoin="round" stroke="rgb(0%, 0%, 0%)" stroke-opacity="1" stroke-miterlimit="10" d="M 172.566406 351.921875 L 172.566406 53.449219 "/>
</g>
<g clip-path="url(#clip-20)">
<path fill="none" stroke-width="1.357972" stroke-linecap="butt" stroke-linejoin="round" stroke="rgb(0%, 0%, 0%)" stroke-opacity="1" stroke-miterlimit="10" d="M 550.140625 351.921875 L 550.140625 53.449219 "/>
</g>
<g clip-path="url(#clip-21)">
<path fill="none" stroke-width="1.357972" stroke-linecap="round" stroke-linejoin="round" stroke="rgb(20%, 20%, 20%)" stroke-opacity="1" stroke-miterlimit="10" d="M 50.390625 351.921875 L 713.023438 351.921875 L 713.023438 53.453125 L 50.390625 53.453125 Z M 50.390625 351.921875 "/>
</g>
<g fill="rgb(30.196078%, 30.196078%, 30.196078%)" fill-opacity="1">
<use xlink:href="#glyph-0-0" x="37.886719" y="342.863281"/>
</g>
<g fill="rgb(30.196078%, 30.196078%, 30.196078%)" fill-opacity="1">
<use xlink:href="#glyph-0-1" x="31.660156" y="236.871094"/>
<use xlink:href="#glyph-0-0" x="37.889063" y="236.871094"/>
</g>
<g fill="rgb(30.196078%, 30.196078%, 30.196078%)" fill-opacity="1">
<use xlink:href="#glyph-0-2" x="25.429688" y="130.882812"/>
<use xlink:href="#glyph-0-0" x="31.658594" y="130.882812"/>
<use xlink:href="#glyph-0-0" x="37.8875" y="130.882812"/>
</g>
<path fill="none" stroke-width="1.357972" stroke-linecap="butt" stroke-linejoin="round" stroke="rgb(20%, 20%, 20%)" stroke-opacity="1" stroke-miterlimit="10" d="M 46.90625 338.355469 L 50.390625 338.355469 "/>
<path fill="none" stroke-width="1.357972" stroke-linecap="butt" stroke-linejoin="round" stroke="rgb(20%, 20%, 20%)" stroke-opacity="1" stroke-miterlimit="10" d="M 46.90625 232.363281 L 50.390625 232.363281 "/>
<path fill="none" stroke-width="1.357972" stroke-linecap="butt" stroke-linejoin="round" stroke="rgb(20%, 20%, 20%)" stroke-opacity="1" stroke-miterlimit="10" d="M 46.90625 126.371094 L 50.390625 126.371094 "/>
<path fill="none" stroke-width="1.357972" stroke-linecap="butt" stroke-linejoin="round" stroke="rgb(20%, 20%, 20%)" stroke-opacity="1" stroke-miterlimit="10" d="M 195.253906 355.40625 L 195.253906 351.921875 "/>
<path fill="none" stroke-width="1.357972" stroke-linecap="butt" stroke-linejoin="round" stroke="rgb(20%, 20%, 20%)" stroke-opacity="1" stroke-miterlimit="10" d="M 367.367188 355.40625 L 367.367188 351.921875 "/>
<path fill="none" stroke-width="1.357972" stroke-linecap="butt" stroke-linejoin="round" stroke="rgb(20%, 20%, 20%)" stroke-opacity="1" stroke-miterlimit="10" d="M 539.480469 355.40625 L 539.480469 351.921875 "/>
<path fill="none" stroke-width="1.357972" stroke-linecap="butt" stroke-linejoin="round" stroke="rgb(20%, 20%, 20%)" stroke-opacity="1" stroke-miterlimit="10" d="M 711.59375 355.40625 L 711.59375 351.921875 "/>
<g fill="rgb(30.196078%, 30.196078%, 30.196078%)" fill-opacity="1">
<use xlink:href="#glyph-0-3" x="192.140625" y="367.214844"/>
</g>
<g fill="rgb(30.196078%, 30.196078%, 30.196078%)" fill-opacity="1">
<use xlink:href="#glyph-0-4" x="364.253906" y="367.214844"/>
</g>
<g fill="rgb(30.196078%, 30.196078%, 30.196078%)" fill-opacity="1">
<use xlink:href="#glyph-0-2" x="533.25" y="367.214844"/>
<use xlink:href="#glyph-0-5" x="539.478906" y="367.214844"/>
</g>
<g fill="rgb(30.196078%, 30.196078%, 30.196078%)" fill-opacity="1">
<use xlink:href="#glyph-0-2" x="705.363281" y="367.214844"/>
<use xlink:href="#glyph-0-1" x="711.592188" y="367.214844"/>
</g>
<g fill="rgb(0%, 0%, 0%)" fill-opacity="1">
<use xlink:href="#glyph-1-0" x="280.15625" y="385.078125"/>
<use xlink:href="#glyph-1-1" x="289.494141" y="385.078125"/>
<use xlink:href="#glyph-1-1" x="297.280273" y="385.078125"/>
<use xlink:href="#glyph-1-2" x="305.066406" y="385.078125"/>
<use xlink:href="#glyph-1-3" x="308.956055" y="385.078125"/>
<use xlink:href="#glyph-1-2" x="315.956055" y="385.078125"/>
<use xlink:href="#glyph-1-4" x="319.845703" y="385.078125"/>
<use xlink:href="#glyph-1-5" x="324.507812" y="385.078125"/>
<use xlink:href="#glyph-1-6" x="332.293945" y="385.078125"/>
<use xlink:href="#glyph-1-7" x="340.080078" y="385.078125"/>
<use xlink:href="#glyph-1-3" x="343.969727" y="385.078125"/>
<use xlink:href="#glyph-1-5" x="350.969727" y="385.078125"/>
<use xlink:href="#glyph-1-8" x="358.755859" y="385.078125"/>
<use xlink:href="#glyph-1-6" x="370.417969" y="385.078125"/>
<use xlink:href="#glyph-1-9" x="378.204102" y="385.078125"/>
<use xlink:href="#glyph-1-10" x="381.314453" y="385.078125"/>
<use xlink:href="#glyph-1-7" x="389.100586" y="385.078125"/>
<use xlink:href="#glyph-1-3" x="392.990234" y="385.078125"/>
<use xlink:href="#glyph-1-9" x="399.990234" y="385.078125"/>
<use xlink:href="#glyph-1-1" x="403.100586" y="385.078125"/>
<use xlink:href="#glyph-1-6" x="410.886719" y="385.078125"/>
<use xlink:href="#glyph-1-10" x="418.672852" y="385.078125"/>
<use xlink:href="#glyph-1-7" x="426.458984" y="385.078125"/>
<use xlink:href="#glyph-1-10" x="430.348633" y="385.078125"/>
<use xlink:href="#glyph-1-3" x="438.134766" y="385.078125"/>
<use xlink:href="#glyph-1-2" x="445.134766" y="385.078125"/>
<use xlink:href="#glyph-1-11" x="449.024414" y="385.078125"/>
<use xlink:href="#glyph-1-8" x="452.134766" y="385.078125"/>
<use xlink:href="#glyph-1-5" x="463.796875" y="385.078125"/>
<use xlink:href="#glyph-1-2" x="471.583008" y="385.078125"/>
<use xlink:href="#glyph-1-10" x="475.472656" y="385.078125"/>
</g>
<g fill="rgb(0%, 0%, 0%)" fill-opacity="1">
<use xlink:href="#glyph-2-0" x="17.996094" y="235.757812"/>
<use xlink:href="#glyph-2-1" x="17.996094" y="227.206055"/>
<use xlink:href="#glyph-2-2" x="17.996094" y="222.543945"/>
<use xlink:href="#glyph-2-3" x="17.996094" y="214.757812"/>
<use xlink:href="#glyph-2-4" x="17.996094" y="206.97168"/>
<use xlink:href="#glyph-2-2" x="17.996094" y="199.185547"/>
<use xlink:href="#glyph-2-5" x="17.996094" y="191.399414"/>
<use xlink:href="#glyph-2-6" x="17.996094" y="183.613281"/>
<use xlink:href="#glyph-2-7" x="17.996094" y="176.613281"/>
</g>
<g fill="rgb(0%, 0%, 0%)" fill-opacity="1">
<use xlink:href="#glyph-1-6" x="50.390625" y="42.53125"/>
<use xlink:href="#glyph-1-10" x="58.176758" y="42.53125"/>
<use xlink:href="#glyph-1-4" x="65.962891" y="42.53125"/>
<use xlink:href="#glyph-1-12" x="70.625" y="42.53125"/>
<use xlink:href="#glyph-1-10" x="77.625" y="42.53125"/>
<use xlink:href="#glyph-1-13" x="85.411133" y="42.53125"/>
<use xlink:href="#glyph-1-2" x="93.197266" y="42.53125"/>
<use xlink:href="#glyph-1-11" x="97.086914" y="42.53125"/>
<use xlink:href="#glyph-1-9" x="100.197266" y="42.53125"/>
<use xlink:href="#glyph-1-10" x="103.307617" y="42.53125"/>
<use xlink:href="#glyph-1-7" x="111.09375" y="42.53125"/>
<use xlink:href="#glyph-1-14" x="114.983398" y="42.53125"/>
<use xlink:href="#glyph-1-15" x="119.645508" y="42.53125"/>
<use xlink:href="#glyph-1-5" x="127.431641" y="42.53125"/>
<use xlink:href="#glyph-1-3" x="135.217773" y="42.53125"/>
<use xlink:href="#glyph-1-16" x="142.217773" y="42.53125"/>
<use xlink:href="#glyph-1-10" x="150.003906" y="42.53125"/>
<use xlink:href="#glyph-1-15" x="157.790039" y="42.53125"/>
<use xlink:href="#glyph-1-17" x="165.576172" y="42.53125"/>
<use xlink:href="#glyph-1-18" x="170.238281" y="42.53125"/>
<use xlink:href="#glyph-1-7" x="174.12793" y="42.53125"/>
<use xlink:href="#glyph-1-3" x="178.017578" y="42.53125"/>
<use xlink:href="#glyph-1-2" x="185.017578" y="42.53125"/>
<use xlink:href="#glyph-1-5" x="188.907227" y="42.53125"/>
<use xlink:href="#glyph-1-13" x="196.693359" y="42.53125"/>
<use xlink:href="#glyph-1-15" x="204.479492" y="42.53125"/>
<use xlink:href="#glyph-1-5" x="212.265625" y="42.53125"/>
<use xlink:href="#glyph-1-4" x="220.051758" y="42.53125"/>
<use xlink:href="#glyph-1-15" x="224.713867" y="42.53125"/>
<use xlink:href="#glyph-1-7" x="232.5" y="42.53125"/>
<use xlink:href="#glyph-1-10" x="236.389648" y="42.53125"/>
<use xlink:href="#glyph-1-4" x="244.175781" y="42.53125"/>
<use xlink:href="#glyph-1-4" x="248.837891" y="42.53125"/>
<use xlink:href="#glyph-1-1" x="253.5" y="42.53125"/>
<use xlink:href="#glyph-1-4" x="261.286133" y="42.53125"/>
<use xlink:href="#glyph-1-7" x="265.948242" y="42.53125"/>
<use xlink:href="#glyph-1-14" x="269.837891" y="42.53125"/>
<use xlink:href="#glyph-1-9" x="274.5" y="42.53125"/>
<use xlink:href="#glyph-1-1" x="277.610352" y="42.53125"/>
<use xlink:href="#glyph-1-13" x="285.396484" y="42.53125"/>
<use xlink:href="#glyph-1-19" x="293.182617" y="42.53125"/>
<use xlink:href="#glyph-1-15" x="300.96875" y="42.53125"/>
<use xlink:href="#glyph-1-5" x="308.754883" y="42.53125"/>
<use xlink:href="#glyph-1-3" x="316.541016" y="42.53125"/>
<use xlink:href="#glyph-1-16" x="323.541016" y="42.53125"/>
<use xlink:href="#glyph-1-10" x="331.327148" y="42.53125"/>
<use xlink:href="#glyph-1-15" x="339.113281" y="42.53125"/>
<use xlink:href="#glyph-1-17" x="346.899414" y="42.53125"/>
<use xlink:href="#glyph-1-7" x="351.561523" y="42.53125"/>
<use xlink:href="#glyph-1-5" x="355.451172" y="42.53125"/>
<use xlink:href="#glyph-1-13" x="363.237305" y="42.53125"/>
<use xlink:href="#glyph-1-15" x="371.023438" y="42.53125"/>
<use xlink:href="#glyph-1-7" x="378.80957" y="42.53125"/>
<use xlink:href="#glyph-1-2" x="382.699219" y="42.53125"/>
<use xlink:href="#glyph-1-16" x="386.588867" y="42.53125"/>
<use xlink:href="#glyph-1-10" x="394.375" y="42.53125"/>
<use xlink:href="#glyph-1-1" x="402.161133" y="42.53125"/>
<use xlink:href="#glyph-1-4" x="409.947266" y="42.53125"/>
<use xlink:href="#glyph-1-20" x="414.609375" y="42.53125"/>
<use xlink:href="#glyph-1-7" x="421.609375" y="42.53125"/>
<use xlink:href="#glyph-1-14" x="425.499023" y="42.53125"/>
<use xlink:href="#glyph-1-3" x="430.161133" y="42.53125"/>
<use xlink:href="#glyph-1-1" x="437.161133" y="42.53125"/>
<use xlink:href="#glyph-1-9" x="444.947266" y="42.53125"/>
<use xlink:href="#glyph-1-11" x="448.057617" y="42.53125"/>
<use xlink:href="#glyph-1-15" x="451.167969" y="42.53125"/>
<use xlink:href="#glyph-1-17" x="458.954102" y="42.53125"/>
</g>
<g fill="rgb(0%, 0%, 0%)" fill-opacity="1">
<use xlink:href="#glyph-3-0" x="50.390625" y="20"/>
<use xlink:href="#glyph-3-1" x="59.733984" y="20"/>
<use xlink:href="#glyph-3-2" x="69.077344" y="20"/>
<use xlink:href="#glyph-3-3" x="84.015234" y="20"/>
<use xlink:href="#glyph-3-4" x="88.682813" y="20"/>
<use xlink:href="#glyph-3-5" x="97.082813" y="20"/>
<use xlink:href="#glyph-3-6" x="106.426172" y="20"/>
<use xlink:href="#glyph-3-7" x="115.769531" y="20"/>
<use xlink:href="#glyph-3-8" x="120.437109" y="20"/>
<use xlink:href="#glyph-3-9" x="124.169531" y="20"/>
<use xlink:href="#glyph-3-10" x="133.512891" y="20"/>
<use xlink:href="#glyph-3-6" x="142.85625" y="20"/>
<use xlink:href="#glyph-3-4" x="152.199609" y="20"/>
<use xlink:href="#glyph-3-10" x="160.599609" y="20"/>
<use xlink:href="#glyph-3-3" x="169.942969" y="20"/>
<use xlink:href="#glyph-3-8" x="174.610547" y="20"/>
<use xlink:href="#glyph-3-6" x="178.342969" y="20"/>
<use xlink:href="#glyph-3-11" x="187.686328" y="20"/>
<use xlink:href="#glyph-3-10" x="192.353906" y="20"/>
<use xlink:href="#glyph-3-12" x="201.697266" y="20"/>
<use xlink:href="#glyph-3-13" x="207.291797" y="20"/>
<use xlink:href="#glyph-3-14" x="215.691797" y="20"/>
<use xlink:href="#glyph-3-15" x="225.035156" y="20"/>
<use xlink:href="#glyph-3-3" x="228.767578" y="20"/>
<use xlink:href="#glyph-3-4" x="233.435156" y="20"/>
<use xlink:href="#glyph-3-5" x="241.835156" y="20"/>
<use xlink:href="#glyph-3-16" x="251.178516" y="20"/>
<use xlink:href="#glyph-3-17" x="265.173047" y="20"/>
<use xlink:href="#glyph-3-18" x="274.516406" y="20"/>
<use xlink:href="#glyph-3-11" x="283.859766" y="20"/>
<use xlink:href="#glyph-3-10" x="288.527344" y="20"/>
<use xlink:href="#glyph-3-9" x="297.870703" y="20"/>
<use xlink:href="#glyph-3-3" x="307.214063" y="20"/>
<use xlink:href="#glyph-3-19" x="311.881641" y="20"/>
<use xlink:href="#glyph-3-8" x="324.014062" y="20"/>
<use xlink:href="#glyph-3-11" x="327.746484" y="20"/>
<use xlink:href="#glyph-3-20" x="332.414062" y="20"/>
<use xlink:href="#glyph-3-3" x="341.757422" y="20"/>
<use xlink:href="#glyph-3-9" x="346.425" y="20"/>
<use xlink:href="#glyph-3-8" x="355.768359" y="20"/>
<use xlink:href="#glyph-3-7" x="359.500781" y="20"/>
<use xlink:href="#glyph-3-7" x="364.168359" y="20"/>
<use xlink:href="#glyph-3-10" x="368.835937" y="20"/>
<use xlink:href="#glyph-3-12" x="378.179297" y="20"/>
<use xlink:href="#glyph-3-10" x="383.773828" y="20"/>
<use xlink:href="#glyph-3-6" x="393.117187" y="20"/>
<use xlink:href="#glyph-3-11" x="402.460547" y="20"/>
<use xlink:href="#glyph-3-3" x="407.128125" y="20"/>
<use xlink:href="#glyph-3-16" x="411.795703" y="20"/>
<use xlink:href="#glyph-3-10" x="425.790234" y="20"/>
<use xlink:href="#glyph-3-11" x="435.133594" y="20"/>
<use xlink:href="#glyph-3-20" x="439.801172" y="20"/>
<use xlink:href="#glyph-3-5" x="449.144531" y="20"/>
<use xlink:href="#glyph-3-9" x="458.487891" y="20"/>
<use xlink:href="#glyph-3-21" x="467.83125" y="20"/>
</g>
</svg>
