<?xml version="1.0" encoding="UTF-8"?>
<svg xmlns="http://www.w3.org/2000/svg" xmlns:xlink="http://www.w3.org/1999/xlink" width="432pt" height="252pt" viewBox="0 0 432 252">
<defs>
<g>
<g id="glyph-0-0">
<path d="M 0.65625 0.566406 L 1.785156 0.734375 C 1.832031 1.082031 1.964844 1.335938 2.179688 1.496094 C 2.464844 1.710938 2.859375 1.816406 3.359375 1.816406 C 3.894531 1.816406 4.308594 1.710938 4.601562 1.496094 C 4.894531 1.28125 5.09375 0.980469 5.195312 0.59375 C 5.253906 0.355469 5.28125 -0.140625 5.277344 -0.894531 C 4.773438 -0.296875 4.140625 0 3.382812 0 C 2.441406 0 1.714844 -0.339844 1.199219 -1.019531 C 0.683594 -1.695312 0.425781 -2.511719 0.425781 -3.460938 C 0.425781 -4.113281 0.542969 -4.71875 0.78125 -5.269531 C 1.015625 -5.820312 1.359375 -6.246094 1.808594 -6.546875 C 2.257812 -6.847656 2.785156 -7 3.390625 -7 C 4.199219 -7 4.863281 -6.671875 5.386719 -6.019531 L 5.386719 -6.84375 L 6.457031 -6.84375 L 6.457031 -0.929688 C 6.457031 0.136719 6.351562 0.894531 6.132812 1.335938 C 5.914062 1.78125 5.570312 2.132812 5.101562 2.390625 C 4.632812 2.648438 4.050781 2.777344 3.363281 2.777344 C 2.546875 2.777344 1.886719 2.59375 1.386719 2.226562 C 0.882812 1.859375 0.640625 1.304688 0.65625 0.566406 M 1.617188 -3.546875 C 1.617188 -2.648438 1.796875 -1.992188 2.152344 -1.578125 C 2.507812 -1.167969 2.957031 -0.960938 3.492188 -0.960938 C 4.027344 -0.960938 4.472656 -1.164062 4.835938 -1.574219 C 5.195312 -1.984375 5.375 -2.628906 5.375 -3.507812 C 5.375 -4.34375 5.191406 -4.976562 4.816406 -5.402344 C 4.445312 -5.828125 4 -6.039062 3.472656 -6.039062 C 2.957031 -6.039062 2.519531 -5.828125 2.160156 -5.410156 C 1.796875 -4.992188 1.617188 -4.371094 1.617188 -3.546875 Z M 1.617188 -3.546875 "/>
</g>
<g id="glyph-0-1">
<path d="M 5.554688 -2.203125 L 6.753906 -2.054688 C 6.566406 -1.355469 6.214844 -0.8125 5.703125 -0.425781 C 5.191406 -0.0390625 4.539062 0.15625 3.746094 0.15625 C 2.742188 0.15625 1.949219 -0.152344 1.363281 -0.769531 C 0.777344 -1.386719 0.484375 -2.25 0.484375 -3.363281 C 0.484375 -4.515625 0.78125 -5.410156 1.371094 -6.046875 C 1.964844 -6.679688 2.734375 -7 3.679688 -7 C 4.59375 -7 5.34375 -6.6875 5.921875 -6.066406 C 6.503906 -5.441406 6.792969 -4.566406 6.792969 -3.433594 C 6.792969 -3.367188 6.792969 -3.261719 6.785156 -3.125 L 1.683594 -3.125 C 1.726562 -2.375 1.9375 -1.796875 2.320312 -1.398438 C 2.703125 -1 3.179688 -0.800781 3.75 -0.800781 C 4.175781 -0.800781 4.539062 -0.910156 4.839844 -1.132812 C 5.140625 -1.359375 5.378906 -1.714844 5.554688 -2.203125 M 1.746094 -4.078125 L 5.570312 -4.078125 C 5.515625 -4.65625 5.371094 -5.085938 5.128906 -5.375 C 4.761719 -5.820312 4.28125 -6.046875 3.691406 -6.046875 C 3.160156 -6.046875 2.710938 -5.867188 2.347656 -5.511719 C 1.984375 -5.152344 1.785156 -4.675781 1.746094 -4.078125 Z M 1.746094 -4.078125 "/>
</g>
<g id="glyph-0-2">
<path d="M 0.4375 -3.421875 C 0.4375 -4.691406 0.789062 -5.628906 1.496094 -6.238281 C 2.082031 -6.746094 2.800781 -7 3.648438 -7 C 4.589844 -7 5.359375 -6.691406 5.957031 -6.074219 C 6.550781 -5.457031 6.851562 -4.605469 6.851562 -3.519531 C 6.851562 -2.636719 6.71875 -1.945312 6.453125 -1.441406 C 6.191406 -0.9375 5.804688 -0.542969 5.300781 -0.265625 C 4.796875 0.015625 4.246094 0.15625 3.648438 0.15625 C 2.691406 0.15625 1.914062 -0.152344 1.324219 -0.765625 C 0.734375 -1.382812 0.4375 -2.265625 0.4375 -3.421875 M 1.628906 -3.421875 C 1.628906 -2.546875 1.820312 -1.890625 2.203125 -1.453125 C 2.585938 -1.015625 3.066406 -0.800781 3.648438 -0.800781 C 4.222656 -0.800781 4.703125 -1.019531 5.085938 -1.457031 C 5.46875 -1.894531 5.660156 -2.5625 5.660156 -3.460938 C 5.660156 -4.308594 5.464844 -4.949219 5.082031 -5.386719 C 4.699219 -5.820312 4.21875 -6.039062 3.648438 -6.039062 C 3.066406 -6.039062 2.585938 -5.820312 2.203125 -5.386719 C 1.820312 -4.953125 1.628906 -4.300781 1.628906 -3.421875 Z M 1.628906 -3.421875 "/>
</g>
<g id="glyph-0-3">
<path d="M 0.871094 0 L 0.871094 -6.84375 L 1.90625 -6.84375 L 1.90625 -5.882812 C 2.121094 -6.21875 2.410156 -6.488281 2.765625 -6.695312 C 3.121094 -6.898438 3.527344 -7 3.984375 -7 C 4.488281 -7 4.90625 -6.894531 5.230469 -6.683594 C 5.554688 -6.472656 5.785156 -6.179688 5.917969 -5.800781 C 6.457031 -6.601562 7.164062 -7 8.03125 -7 C 8.710938 -7 9.230469 -6.8125 9.597656 -6.4375 C 9.960938 -6.058594 10.144531 -5.480469 10.144531 -4.699219 L 10.144531 0 L 8.992188 0 L 8.992188 -4.3125 C 8.992188 -4.777344 8.953125 -5.109375 8.878906 -5.3125 C 8.804688 -5.519531 8.667969 -5.683594 8.46875 -5.808594 C 8.269531 -5.933594 8.039062 -5.992188 7.773438 -5.992188 C 7.292969 -5.992188 6.890625 -5.835938 6.574219 -5.515625 C 6.257812 -5.195312 6.097656 -4.679688 6.097656 -3.976562 L 6.097656 0 L 4.9375 0 L 4.9375 -4.445312 C 4.9375 -4.960938 4.84375 -5.347656 4.652344 -5.609375 C 4.464844 -5.863281 4.15625 -5.992188 3.726562 -5.992188 C 3.398438 -5.992188 3.097656 -5.90625 2.820312 -5.734375 C 2.542969 -5.5625 2.339844 -5.3125 2.21875 -4.980469 C 2.09375 -4.652344 2.03125 -4.175781 2.03125 -3.550781 L 2.03125 0 Z M 0.871094 0 "/>
</g>
<g id="glyph-0-4">
<path d="M -0.199219 2.625 L -0.199219 1.785156 L 7.488281 1.785156 L 7.488281 2.625 Z M -0.199219 2.625 "/>
</g>
<g id="glyph-0-5">
<path d="M 0.871094 2.625 L 0.871094 -6.84375 L 1.925781 -6.84375 L 1.925781 -5.957031 C 2.175781 -6.304688 2.457031 -6.566406 2.773438 -6.738281 C 3.085938 -6.914062 3.464844 -7 3.914062 -7 C 4.496094 -7 5.011719 -6.847656 5.460938 -6.546875 C 5.90625 -6.246094 6.242188 -5.824219 6.472656 -5.277344 C 6.699219 -4.726562 6.8125 -4.128906 6.8125 -3.472656 C 6.8125 -2.773438 6.6875 -2.144531 6.4375 -1.582031 C 6.183594 -1.023438 5.820312 -0.59375 5.339844 -0.292969 C 4.859375 0.00390625 4.355469 0.15625 3.828125 0.15625 C 3.441406 0.15625 3.09375 0.0742188 2.789062 -0.0898438 C 2.480469 -0.253906 2.226562 -0.460938 2.03125 -0.710938 L 2.03125 2.625 L 0.871094 2.625 M 1.921875 -3.382812 C 1.921875 -2.503906 2.097656 -1.851562 2.457031 -1.429688 C 2.8125 -1.007812 3.242188 -0.800781 3.75 -0.800781 C 4.265625 -0.800781 4.707031 -1.015625 5.074219 -1.453125 C 5.441406 -1.890625 5.625 -2.566406 5.625 -3.480469 C 5.625 -4.351562 5.449219 -5.003906 5.089844 -5.441406 C 4.730469 -5.875 4.300781 -6.089844 3.804688 -6.089844 C 3.308594 -6.089844 2.871094 -5.859375 2.492188 -5.398438 C 2.109375 -4.9375 1.921875 -4.265625 1.921875 -3.382812 Z M 1.921875 -3.382812 "/>
</g>
<g id="glyph-0-6">
<path d="M 0.875 -8.113281 L 0.875 -9.449219 L 2.035156 -9.449219 L 2.035156 -8.113281 L 0.875 -8.113281 M 0.875 0 L 0.875 -6.84375 L 2.035156 -6.84375 L 2.035156 0 Z M 0.875 0 "/>
</g>
<g id="glyph-0-7">
<path d="M 0.871094 0 L 0.871094 -6.84375 L 1.914062 -6.84375 L 1.914062 -5.871094 C 2.417969 -6.625 3.144531 -7 4.09375 -7 C 4.503906 -7 4.882812 -6.925781 5.230469 -6.777344 C 5.578125 -6.628906 5.835938 -6.433594 6.007812 -6.195312 C 6.179688 -5.953125 6.300781 -5.667969 6.367188 -5.335938 C 6.410156 -5.121094 6.433594 -4.746094 6.433594 -4.207031 L 6.433594 0 L 5.273438 0 L 5.273438 -4.164062 C 5.273438 -4.636719 5.226562 -4.988281 5.136719 -5.222656 C 5.046875 -5.457031 4.886719 -5.644531 4.65625 -5.785156 C 4.425781 -5.925781 4.15625 -5.992188 3.847656 -5.992188 C 3.355469 -5.992188 2.925781 -5.835938 2.570312 -5.523438 C 2.210938 -5.210938 2.03125 -4.613281 2.03125 -3.738281 L 2.03125 0 Z M 0.871094 0 "/>
</g>
<g id="glyph-0-8">
<path d="M 3.402344 -1.039062 L 3.570312 -0.0117188 C 3.242188 0.0546875 2.953125 0.0898438 2.695312 0.0898438 C 2.273438 0.0898438 1.945312 0.0234375 1.714844 -0.109375 C 1.484375 -0.242188 1.320312 -0.417969 1.226562 -0.636719 C 1.128906 -0.851562 1.082031 -1.308594 1.082031 -2.003906 L 1.082031 -5.941406 L 0.230469 -5.941406 L 0.230469 -6.84375 L 1.082031 -6.84375 L 1.082031 -8.539062 L 2.238281 -9.234375 L 2.238281 -6.84375 L 3.402344 -6.84375 L 3.402344 -5.941406 L 2.238281 -5.941406 L 2.238281 -1.941406 C 2.238281 -1.609375 2.257812 -1.394531 2.296875 -1.300781 C 2.339844 -1.207031 2.40625 -1.132812 2.496094 -1.078125 C 2.589844 -1.019531 2.722656 -0.992188 2.894531 -0.992188 C 3.023438 -0.992188 3.191406 -1.007812 3.402344 -1.039062 Z M 3.402344 -1.039062 "/>
</g>
<g id="glyph-0-9">
<path d="M 3.085938 2.777344 C 2.445312 1.96875 1.90625 1.023438 1.464844 -0.0585938 C 1.019531 -1.140625 0.800781 -2.261719 0.800781 -3.421875 C 0.800781 -4.445312 0.964844 -5.425781 1.296875 -6.363281 C 1.683594 -7.449219 2.28125 -8.53125 3.085938 -9.609375 L 3.917969 -9.609375 C 3.398438 -8.714844 3.054688 -8.078125 2.886719 -7.695312 C 2.625 -7.101562 2.417969 -6.484375 2.269531 -5.839844 C 2.082031 -5.035156 1.992188 -4.226562 1.992188 -3.414062 C 1.992188 -1.347656 2.632812 0.714844 3.917969 2.777344 Z M 3.085938 2.777344 "/>
</g>
<g id="glyph-0-10">
<path d="M 1.628906 2.777344 L 0.800781 2.777344 C 2.082031 0.714844 2.726562 -1.347656 2.726562 -3.414062 C 2.726562 -4.222656 2.632812 -5.023438 2.449219 -5.820312 C 2.304688 -6.464844 2.097656 -7.082031 1.835938 -7.675781 C 1.667969 -8.0625 1.324219 -8.707031 0.800781 -9.609375 L 1.628906 -9.609375 C 2.4375 -8.53125 3.035156 -7.449219 3.421875 -6.363281 C 3.753906 -5.425781 3.917969 -4.445312 3.917969 -3.421875 C 3.917969 -2.261719 3.695312 -1.140625 3.25 -0.0585938 C 2.808594 1.023438 2.265625 1.96875 1.628906 2.777344 Z M 1.628906 2.777344 "/>
</g>
<g id="glyph-0-11">
<path d="M 0.84375 0 L 0.84375 -9.449219 L 2.003906 -9.449219 L 2.003906 0 Z M 0.84375 0 "/>
</g>
<g id="glyph-0-12">
<path d="M 5.335938 -2.507812 L 6.476562 -2.359375 C 6.351562 -1.574219 6.035156 -0.957031 5.519531 -0.511719 C 5.007812 -0.0664062 4.375 0.15625 3.628906 0.15625 C 2.691406 0.15625 1.9375 -0.152344 1.371094 -0.765625 C 0.800781 -1.375 0.515625 -2.253906 0.515625 -3.398438 C 0.515625 -4.136719 0.636719 -4.78125 0.882812 -5.335938 C 1.128906 -5.890625 1.5 -6.308594 2 -6.582031 C 2.5 -6.859375 3.046875 -7 3.636719 -7 C 4.378906 -7 4.988281 -6.8125 5.460938 -6.4375 C 5.933594 -6.058594 6.234375 -5.527344 6.367188 -4.835938 L 5.238281 -4.660156 C 5.132812 -5.121094 4.941406 -5.464844 4.667969 -5.699219 C 4.398438 -5.929688 4.066406 -6.046875 3.679688 -6.046875 C 3.097656 -6.046875 2.621094 -5.835938 2.257812 -5.417969 C 1.890625 -5 1.707031 -4.335938 1.707031 -3.429688 C 1.707031 -2.507812 1.882812 -1.839844 2.238281 -1.425781 C 2.589844 -1.007812 3.046875 -0.800781 3.617188 -0.800781 C 4.070312 -0.800781 4.453125 -0.9375 4.757812 -1.21875 C 5.0625 -1.496094 5.253906 -1.925781 5.335938 -2.507812 Z M 5.335938 -2.507812 "/>
</g>
<g id="glyph-0-13">
<path d="M 1.941406 0 L 0.863281 0 L 0.863281 -9.449219 L 2.023438 -9.449219 L 2.023438 -6.078125 C 2.515625 -6.691406 3.140625 -7 3.898438 -7 C 4.320312 -7 4.71875 -6.914062 5.09375 -6.746094 C 5.472656 -6.574219 5.78125 -6.335938 6.023438 -6.03125 C 6.265625 -5.722656 6.457031 -5.351562 6.59375 -4.917969 C 6.730469 -4.484375 6.800781 -4.019531 6.800781 -3.527344 C 6.800781 -2.351562 6.507812 -1.445312 5.929688 -0.804688 C 5.351562 -0.164062 4.652344 0.15625 3.839844 0.15625 C 3.035156 0.15625 2.398438 -0.183594 1.941406 -0.855469 L 1.941406 0 M 1.925781 -3.472656 C 1.925781 -2.652344 2.039062 -2.058594 2.261719 -1.695312 C 2.628906 -1.097656 3.121094 -0.800781 3.746094 -0.800781 C 4.25 -0.800781 4.691406 -1.019531 5.058594 -1.460938 C 5.429688 -1.898438 5.613281 -2.554688 5.613281 -3.429688 C 5.613281 -4.324219 5.4375 -4.980469 5.082031 -5.40625 C 4.726562 -5.832031 4.300781 -6.046875 3.796875 -6.046875 C 3.289062 -6.046875 2.851562 -5.824219 2.480469 -5.386719 C 2.113281 -4.945312 1.925781 -4.308594 1.925781 -3.472656 Z M 1.925781 -3.472656 "/>
</g>
<g id="glyph-0-14">
<path d="M 0.0976562 0 L 2.597656 -3.558594 L 0.285156 -6.84375 L 1.734375 -6.84375 L 2.785156 -5.238281 C 2.980469 -4.933594 3.140625 -4.679688 3.261719 -4.472656 C 3.449219 -4.757812 3.625 -5.007812 3.785156 -5.226562 L 4.9375 -6.84375 L 6.324219 -6.84375 L 3.957031 -3.621094 L 6.503906 0 L 5.078125 0 L 3.671875 -2.125 L 3.300781 -2.699219 L 1.5 0 Z M 0.0976562 0 "/>
</g>
<g id="glyph-0-15">
<path d="M 0.871094 0 L 0.871094 -9.449219 L 2.03125 -9.449219 L 2.03125 -6.058594 C 2.570312 -6.6875 3.253906 -7 4.078125 -7 C 4.585938 -7 5.027344 -6.898438 5.402344 -6.699219 C 5.773438 -6.5 6.042969 -6.222656 6.203125 -5.871094 C 6.363281 -5.519531 6.445312 -5.007812 6.445312 -4.335938 L 6.445312 0 L 5.285156 0 L 5.285156 -4.335938 C 5.285156 -4.917969 5.160156 -5.339844 4.90625 -5.605469 C 4.65625 -5.867188 4.300781 -6 3.839844 -6 C 3.496094 -6 3.175781 -5.910156 2.871094 -5.734375 C 2.570312 -5.554688 2.351562 -5.3125 2.222656 -5.007812 C 2.09375 -4.703125 2.03125 -4.28125 2.03125 -3.746094 L 2.03125 0 Z M 0.871094 0 "/>
</g>
<g id="glyph-0-16">
<path d="M 0.40625 -2.042969 L 1.554688 -2.222656 C 1.617188 -1.765625 1.796875 -1.410156 2.089844 -1.167969 C 2.386719 -0.921875 2.796875 -0.800781 3.324219 -0.800781 C 3.859375 -0.800781 4.253906 -0.90625 4.511719 -1.125 C 4.769531 -1.339844 4.898438 -1.597656 4.898438 -1.886719 C 4.898438 -2.152344 4.785156 -2.355469 4.558594 -2.507812 C 4.398438 -2.609375 4.003906 -2.742188 3.371094 -2.898438 C 2.519531 -3.113281 1.929688 -3.300781 1.601562 -3.457031 C 1.273438 -3.613281 1.023438 -3.832031 0.855469 -4.109375 C 0.683594 -4.386719 0.597656 -4.691406 0.597656 -5.027344 C 0.597656 -5.332031 0.667969 -5.613281 0.808594 -5.875 C 0.949219 -6.136719 1.136719 -6.351562 1.378906 -6.523438 C 1.558594 -6.65625 1.804688 -6.769531 2.117188 -6.859375 C 2.429688 -6.953125 2.761719 -7 3.121094 -7 C 3.65625 -7 4.128906 -6.921875 4.535156 -6.765625 C 4.941406 -6.613281 5.238281 -6.402344 5.433594 -6.140625 C 5.625 -5.875 5.761719 -5.519531 5.832031 -5.078125 L 4.699219 -4.925781 C 4.648438 -5.277344 4.496094 -5.550781 4.25 -5.75 C 4.003906 -5.945312 3.65625 -6.046875 3.203125 -6.046875 C 2.671875 -6.046875 2.289062 -5.957031 2.0625 -5.78125 C 1.835938 -5.605469 1.722656 -5.398438 1.722656 -5.164062 C 1.722656 -5.011719 1.769531 -4.875 1.863281 -4.757812 C 1.957031 -4.632812 2.105469 -4.527344 2.308594 -4.445312 C 2.421875 -4.402344 2.765625 -4.304688 3.332031 -4.152344 C 4.152344 -3.929688 4.726562 -3.753906 5.050781 -3.613281 C 5.375 -3.472656 5.628906 -3.269531 5.8125 -3.003906 C 6 -2.738281 6.089844 -2.40625 6.089844 -2.011719 C 6.089844 -1.625 5.976562 -1.261719 5.753906 -0.917969 C 5.527344 -0.578125 5.203125 -0.3125 4.777344 -0.125 C 4.351562 0.0625 3.871094 0.15625 3.332031 0.15625 C 2.441406 0.15625 1.765625 -0.03125 1.296875 -0.398438 C 0.832031 -0.769531 0.535156 -1.316406 0.40625 -2.042969 Z M 0.40625 -2.042969 "/>
</g>
<g id="glyph-0-17">
<path d="M 0.855469 0 L 0.855469 -6.84375 L 1.902344 -6.84375 L 1.902344 -5.808594 C 2.167969 -6.292969 2.414062 -6.613281 2.640625 -6.765625 C 2.863281 -6.921875 3.113281 -7 3.382812 -7 C 3.773438 -7 4.171875 -6.875 4.578125 -6.625 L 4.175781 -5.550781 C 3.894531 -5.71875 3.609375 -5.800781 3.324219 -5.800781 C 3.070312 -5.800781 2.84375 -5.722656 2.640625 -5.570312 C 2.441406 -5.417969 2.296875 -5.207031 2.210938 -4.9375 C 2.082031 -4.523438 2.015625 -4.074219 2.015625 -3.582031 L 2.015625 0 Z M 0.855469 0 "/>
</g>
<g id="glyph-0-18">
<path d="M 5.335938 -0.84375 C 4.90625 -0.480469 4.492188 -0.222656 4.097656 -0.0703125 C 3.699219 0.078125 3.273438 0.15625 2.816406 0.15625 C 2.066406 0.15625 1.488281 -0.0273438 1.082031 -0.394531 C 0.679688 -0.765625 0.476562 -1.234375 0.476562 -1.804688 C 0.476562 -2.140625 0.554688 -2.445312 0.707031 -2.722656 C 0.859375 -3 1.058594 -3.222656 1.304688 -3.390625 C 1.550781 -3.558594 1.832031 -3.683594 2.140625 -3.769531 C 2.367188 -3.832031 2.710938 -3.886719 3.171875 -3.945312 C 4.109375 -4.054688 4.796875 -4.1875 5.238281 -4.34375 C 5.246094 -4.503906 5.246094 -4.605469 5.246094 -4.648438 C 5.246094 -5.121094 5.136719 -5.453125 4.917969 -5.644531 C 4.621094 -5.90625 4.179688 -6.039062 3.597656 -6.039062 C 3.050781 -6.039062 2.648438 -5.945312 2.386719 -5.753906 C 2.128906 -5.5625 1.9375 -5.222656 1.8125 -4.738281 L 0.675781 -4.890625 C 0.78125 -5.378906 0.949219 -5.769531 1.1875 -6.066406 C 1.421875 -6.367188 1.765625 -6.597656 2.210938 -6.757812 C 2.65625 -6.917969 3.175781 -7 3.765625 -7 C 4.347656 -7 4.824219 -6.929688 5.1875 -6.792969 C 5.554688 -6.65625 5.820312 -6.484375 5.992188 -6.273438 C 6.164062 -6.066406 6.285156 -5.804688 6.355469 -5.484375 C 6.394531 -5.289062 6.414062 -4.929688 6.414062 -4.414062 L 6.414062 -2.867188 C 6.414062 -1.789062 6.4375 -1.109375 6.488281 -0.820312 C 6.535156 -0.535156 6.632812 -0.261719 6.78125 0 L 5.570312 0 C 5.449219 -0.242188 5.371094 -0.523438 5.335938 -0.84375 M 5.238281 -3.433594 C 4.820312 -3.261719 4.1875 -3.117188 3.34375 -2.996094 C 2.867188 -2.929688 2.53125 -2.851562 2.332031 -2.765625 C 2.136719 -2.679688 1.984375 -2.554688 1.875 -2.386719 C 1.769531 -2.222656 1.714844 -2.039062 1.714844 -1.835938 C 1.714844 -1.527344 1.832031 -1.269531 2.066406 -1.0625 C 2.300781 -0.855469 2.640625 -0.753906 3.09375 -0.753906 C 3.539062 -0.753906 3.9375 -0.851562 4.285156 -1.046875 C 4.632812 -1.242188 4.890625 -1.511719 5.054688 -1.851562 C 5.175781 -2.113281 5.238281 -2.5 5.238281 -3.011719 Z M 5.238281 -3.433594 "/>
</g>
<g id="glyph-0-19">
<path d="M 5.3125 0 L 5.3125 -0.863281 C 4.875 -0.183594 4.238281 0.15625 3.398438 0.15625 C 2.851562 0.15625 2.347656 0.00390625 1.890625 -0.296875 C 1.433594 -0.597656 1.078125 -1.015625 0.828125 -1.554688 C 0.578125 -2.097656 0.453125 -2.714844 0.453125 -3.414062 C 0.453125 -4.097656 0.566406 -4.71875 0.792969 -5.277344 C 1.019531 -5.832031 1.363281 -6.257812 1.816406 -6.554688 C 2.273438 -6.851562 2.78125 -7 3.34375 -7 C 3.757812 -7 4.125 -6.914062 4.445312 -6.738281 C 4.769531 -6.566406 5.03125 -6.335938 5.234375 -6.058594 L 5.234375 -9.449219 L 6.386719 -9.449219 L 6.386719 0 L 5.3125 0 M 1.644531 -3.414062 C 1.644531 -2.539062 1.828125 -1.882812 2.199219 -1.449219 C 2.566406 -1.015625 3.003906 -0.800781 3.507812 -0.800781 C 4.011719 -0.800781 4.445312 -1.007812 4.796875 -1.421875 C 5.152344 -1.835938 5.332031 -2.46875 5.332031 -3.320312 C 5.332031 -4.257812 5.148438 -4.945312 4.789062 -5.382812 C 4.429688 -5.820312 3.984375 -6.039062 3.453125 -6.039062 C 2.9375 -6.039062 2.507812 -5.828125 2.164062 -5.40625 C 1.816406 -4.988281 1.644531 -4.324219 1.644531 -3.414062 Z M 1.644531 -3.414062 "/>
</g>
<g id="glyph-0-20">
<path d="M 0.820312 2.636719 L 0.691406 1.546875 C 0.941406 1.617188 1.164062 1.648438 1.351562 1.648438 C 1.609375 1.648438 1.816406 1.605469 1.972656 1.519531 C 2.125 1.433594 2.253906 1.316406 2.351562 1.160156 C 2.425781 1.042969 2.542969 0.757812 2.707031 0.296875 C 2.726562 0.230469 2.761719 0.136719 2.808594 0.0117188 L 0.210938 -6.84375 L 1.464844 -6.84375 L 2.886719 -2.882812 C 3.070312 -2.378906 3.238281 -1.851562 3.382812 -1.296875 C 3.515625 -1.828125 3.675781 -2.347656 3.859375 -2.855469 L 5.324219 -6.84375 L 6.484375 -6.84375 L 3.878906 0.117188 C 3.601562 0.867188 3.382812 1.386719 3.230469 1.667969 C 3.023438 2.050781 2.785156 2.332031 2.519531 2.511719 C 2.253906 2.6875 1.9375 2.777344 1.566406 2.777344 C 1.34375 2.777344 1.09375 2.730469 0.820312 2.636719 Z M 0.820312 2.636719 "/>
</g>
</g>
<clipPath id="clip-0">
<path clip-rule="nonzero" d="M 5.480469 21.40625 L 138.523438 21.40625 L 138.523438 120.519531 L 5.480469 120.519531 Z M 5.480469 21.40625 "/>
</clipPath>
<clipPath id="clip-1">
<path clip-rule="nonzero" d="M 149.480469 21.40625 L 282.523438 21.40625 L 282.523438 120.519531 L 149.480469 120.519531 Z M 149.480469 21.40625 "/>
</clipPath>
<clipPath id="clip-2">
<path clip-rule="nonzero" d="M 293.480469 21.40625 L 426.523438 21.40625 L 426.523438 120.519531 L 293.480469 120.519531 Z M 293.480469 21.40625 "/>
</clipPath>
<clipPath id="clip-3">
<path clip-rule="nonzero" d="M 5.480469 147.40625 L 138.523438 147.40625 L 138.523438 246.519531 L 5.480469 246.519531 Z M 5.480469 147.40625 "/>
</clipPath>
<clipPath id="clip-4">
<path clip-rule="nonzero" d="M 149.480469 147.40625 L 282.523438 147.40625 L 282.523438 246.519531 L 149.480469 246.519531 Z M 149.480469 147.40625 "/>
</clipPath>
<clipPath id="clip-5">
<path clip-rule="nonzero" d="M 293.480469 147.40625 L 426.523438 147.40625 L 426.523438 246.519531 L 293.480469 246.519531 Z M 293.480469 147.40625 "/>
</clipPath>
</defs>
<rect x="-43.2" y="-25.2" width="518.4" height="302.4" fill="rgb(100%, 100%, 100%)" fill-opacity="1"/>
<path fill-rule="nonzero" fill="rgb(100%, 100%, 100%)" fill-opacity="1" d="M 0 126 L 144 126 L 144 0 L 0 0 Z M 0 126 "/>
<g clip-path="url(#clip-0)">
<path fill-rule="nonzero" fill="rgb(100%, 100%, 100%)" fill-opacity="1" d="M 5.480469 120.519531 L 138.523438 120.519531 L 138.523438 21.40625 L 5.480469 21.40625 Z M 5.480469 120.519531 "/>
</g>
<path fill-rule="nonzero" fill="rgb(0%, 0%, 0%)" fill-opacity="1" stroke-width="0.708661" stroke-linecap="round" stroke-linejoin="round" stroke="rgb(0%, 0%, 0%)" stroke-opacity="1" stroke-miterlimit="10" d="M 13.480469 25.914062 C 13.480469 28.519531 9.570312 28.519531 9.570312 25.914062 C 9.570312 23.304688 13.480469 23.304688 13.480469 25.914062 "/>
<path fill-rule="nonzero" fill="rgb(0%, 0%, 0%)" fill-opacity="1" stroke-width="0.708661" stroke-linecap="round" stroke-linejoin="round" stroke="rgb(0%, 0%, 0%)" stroke-opacity="1" stroke-miterlimit="10" d="M 26.921875 89.410156 C 26.921875 92.015625 23.011719 92.015625 23.011719 89.410156 C 23.011719 86.804688 26.921875 86.804688 26.921875 89.410156 "/>
<path fill-rule="nonzero" fill="rgb(0%, 0%, 0%)" fill-opacity="1" stroke-width="0.708661" stroke-linecap="round" stroke-linejoin="round" stroke="rgb(0%, 0%, 0%)" stroke-opacity="1" stroke-miterlimit="10" d="M 40.359375 61.941406 C 40.359375 64.550781 36.449219 64.550781 36.449219 61.941406 C 36.449219 59.335938 40.359375 59.335938 40.359375 61.941406 "/>
<path fill-rule="nonzero" fill="rgb(0%, 0%, 0%)" fill-opacity="1" stroke-width="0.708661" stroke-linecap="round" stroke-linejoin="round" stroke="rgb(0%, 0%, 0%)" stroke-opacity="1" stroke-miterlimit="10" d="M 53.796875 53.570312 C 53.796875 56.179688 49.886719 56.179688 49.886719 53.570312 C 49.886719 50.964844 53.796875 50.964844 53.796875 53.570312 "/>
<path fill-rule="nonzero" fill="rgb(0%, 0%, 0%)" fill-opacity="1" stroke-width="0.708661" stroke-linecap="round" stroke-linejoin="round" stroke="rgb(0%, 0%, 0%)" stroke-opacity="1" stroke-miterlimit="10" d="M 67.234375 64.429688 C 67.234375 67.035156 63.324219 67.035156 63.324219 64.429688 C 63.324219 61.824219 67.234375 61.824219 67.234375 64.429688 "/>
<path fill-rule="nonzero" fill="rgb(0%, 0%, 0%)" fill-opacity="1" stroke-width="0.708661" stroke-linecap="round" stroke-linejoin="round" stroke="rgb(0%, 0%, 0%)" stroke-opacity="1" stroke-miterlimit="10" d="M 80.675781 94.691406 C 80.675781 97.296875 76.765625 97.296875 76.765625 94.691406 C 76.765625 92.082031 80.675781 92.082031 80.675781 94.691406 "/>
<path fill-rule="nonzero" fill="rgb(0%, 0%, 0%)" fill-opacity="1" stroke-width="0.708661" stroke-linecap="round" stroke-linejoin="round" stroke="rgb(0%, 0%, 0%)" stroke-opacity="1" stroke-miterlimit="10" d="M 94.113281 116.015625 C 94.113281 118.621094 90.203125 118.621094 90.203125 116.015625 C 90.203125 113.410156 94.113281 113.410156 94.113281 116.015625 "/>
<path fill-rule="nonzero" fill="rgb(0%, 0%, 0%)" fill-opacity="1" stroke-width="0.708661" stroke-linecap="round" stroke-linejoin="round" stroke="rgb(0%, 0%, 0%)" stroke-opacity="1" stroke-miterlimit="10" d="M 107.550781 55.703125 C 107.550781 58.308594 103.640625 58.308594 103.640625 55.703125 C 103.640625 53.09375 107.550781 53.09375 107.550781 55.703125 "/>
<path fill-rule="nonzero" fill="rgb(0%, 0%, 0%)" fill-opacity="1" stroke-width="0.708661" stroke-linecap="round" stroke-linejoin="round" stroke="rgb(0%, 0%, 0%)" stroke-opacity="1" stroke-miterlimit="10" d="M 120.988281 91.402344 C 120.988281 94.007812 117.078125 94.007812 117.078125 91.402344 C 117.078125 88.796875 120.988281 88.796875 120.988281 91.402344 "/>
<path fill-rule="nonzero" fill="rgb(0%, 0%, 0%)" fill-opacity="1" stroke-width="0.708661" stroke-linecap="round" stroke-linejoin="round" stroke="rgb(0%, 0%, 0%)" stroke-opacity="1" stroke-miterlimit="10" d="M 134.429688 77.644531 C 134.429688 80.25 130.519531 80.25 130.519531 77.644531 C 130.519531 75.035156 134.429688 75.035156 134.429688 77.644531 "/>
<g fill="rgb(0%, 0%, 0%)" fill-opacity="1">
<use xlink:href="#glyph-0-0" x="33.113281" y="15.929688"/>
<use xlink:href="#glyph-0-1" x="40.454492" y="15.929688"/>
<use xlink:href="#glyph-0-2" x="47.795703" y="15.929688"/>
<use xlink:href="#glyph-0-3" x="55.136914" y="15.929688"/>
<use xlink:href="#glyph-0-4" x="66.132617" y="15.929688"/>
<use xlink:href="#glyph-0-5" x="73.473828" y="15.929688"/>
<use xlink:href="#glyph-0-2" x="80.815039" y="15.929688"/>
<use xlink:href="#glyph-0-6" x="88.15625" y="15.929688"/>
<use xlink:href="#glyph-0-7" x="91.088867" y="15.929688"/>
<use xlink:href="#glyph-0-8" x="98.430078" y="15.929688"/>
<use xlink:href="#glyph-0-9" x="102.097461" y="15.929688"/>
<use xlink:href="#glyph-0-10" x="106.493164" y="15.929688"/>
</g>
<path fill-rule="nonzero" fill="rgb(100%, 100%, 100%)" fill-opacity="1" d="M 144 126 L 288 126 L 288 0 L 144 0 Z M 144 126 "/>
<g clip-path="url(#clip-1)">
<path fill-rule="nonzero" fill="rgb(100%, 100%, 100%)" fill-opacity="1" d="M 149.480469 120.519531 L 282.523438 120.519531 L 282.523438 21.40625 L 149.480469 21.40625 Z M 149.480469 120.519531 "/>
</g>
<path fill="none" stroke-width="1.066978" stroke-linecap="butt" stroke-linejoin="round" stroke="rgb(0%, 0%, 0%)" stroke-opacity="1" stroke-miterlimit="10" d="M 155.527344 25.914062 L 168.964844 89.410156 L 182.402344 61.941406 L 195.84375 53.570312 L 209.28125 64.429688 L 222.71875 94.691406 L 236.15625 116.015625 L 249.597656 55.703125 L 263.035156 91.402344 L 276.472656 77.644531 "/>
<g fill="rgb(0%, 0%, 0%)" fill-opacity="1">
<use xlink:href="#glyph-0-0" x="181.148438" y="15.929688"/>
<use xlink:href="#glyph-0-1" x="188.489648" y="15.929688"/>
<use xlink:href="#glyph-0-2" x="195.830859" y="15.929688"/>
<use xlink:href="#glyph-0-3" x="203.17207" y="15.929688"/>
<use xlink:href="#glyph-0-4" x="214.167773" y="15.929688"/>
<use xlink:href="#glyph-0-11" x="221.508984" y="15.929688"/>
<use xlink:href="#glyph-0-6" x="224.441602" y="15.929688"/>
<use xlink:href="#glyph-0-7" x="227.374219" y="15.929688"/>
<use xlink:href="#glyph-0-1" x="234.71543" y="15.929688"/>
<use xlink:href="#glyph-0-9" x="242.056641" y="15.929688"/>
<use xlink:href="#glyph-0-10" x="246.452344" y="15.929688"/>
</g>
<path fill-rule="nonzero" fill="rgb(100%, 100%, 100%)" fill-opacity="1" d="M 288 126 L 432 126 L 432 0 L 288 0 Z M 288 126 "/>
<g clip-path="url(#clip-2)">
<path fill-rule="nonzero" fill="rgb(100%, 100%, 100%)" fill-opacity="1" d="M 293.480469 120.519531 L 426.523438 120.519531 L 426.523438 21.40625 L 293.480469 21.40625 Z M 293.480469 120.519531 "/>
</g>
<path fill-rule="nonzero" fill="rgb(34.901961%, 34.901961%, 34.901961%)" fill-opacity="1" d="M 299.527344 73.445312 L 310.523438 73.445312 L 310.523438 25.914062 L 299.527344 25.914062 Z M 299.527344 73.445312 "/>
<path fill-rule="nonzero" fill="rgb(34.901961%, 34.901961%, 34.901961%)" fill-opacity="1" d="M 311.742188 89.410156 L 322.738281 89.410156 L 322.738281 73.445312 L 311.742188 73.445312 Z M 311.742188 89.410156 "/>
<path fill-rule="nonzero" fill="rgb(34.901961%, 34.901961%, 34.901961%)" fill-opacity="1" d="M 323.960938 73.445312 L 334.957031 73.445312 L 334.957031 61.945312 L 323.960938 61.945312 Z M 323.960938 73.445312 "/>
<path fill-rule="nonzero" fill="rgb(34.901961%, 34.901961%, 34.901961%)" fill-opacity="1" d="M 336.175781 73.445312 L 347.171875 73.445312 L 347.171875 53.574219 L 336.175781 53.574219 Z M 336.175781 73.445312 "/>
<path fill-rule="nonzero" fill="rgb(34.901961%, 34.901961%, 34.901961%)" fill-opacity="1" d="M 348.394531 73.445312 L 359.390625 73.445312 L 359.390625 64.433594 L 348.394531 64.433594 Z M 348.394531 73.445312 "/>
<path fill-rule="nonzero" fill="rgb(34.901961%, 34.901961%, 34.901961%)" fill-opacity="1" d="M 360.609375 94.691406 L 371.605469 94.691406 L 371.605469 73.445312 L 360.609375 73.445312 Z M 360.609375 94.691406 "/>
<path fill-rule="nonzero" fill="rgb(34.901961%, 34.901961%, 34.901961%)" fill-opacity="1" d="M 372.828125 116.015625 L 383.824219 116.015625 L 383.824219 73.445312 L 372.828125 73.445312 Z M 372.828125 116.015625 "/>
<path fill-rule="nonzero" fill="rgb(34.901961%, 34.901961%, 34.901961%)" fill-opacity="1" d="M 385.042969 73.445312 L 396.039062 73.445312 L 396.039062 55.703125 L 385.042969 55.703125 Z M 385.042969 73.445312 "/>
<path fill-rule="nonzero" fill="rgb(34.901961%, 34.901961%, 34.901961%)" fill-opacity="1" d="M 397.261719 91.402344 L 408.257812 91.402344 L 408.257812 73.445312 L 397.261719 73.445312 Z M 397.261719 91.402344 "/>
<path fill-rule="nonzero" fill="rgb(34.901961%, 34.901961%, 34.901961%)" fill-opacity="1" d="M 409.476562 77.644531 L 420.472656 77.644531 L 420.472656 73.445312 L 409.476562 73.445312 Z M 409.476562 77.644531 "/>
<g fill="rgb(0%, 0%, 0%)" fill-opacity="1">
<use xlink:href="#glyph-0-0" x="326.988281" y="15.929688"/>
<use xlink:href="#glyph-0-1" x="334.329492" y="15.929688"/>
<use xlink:href="#glyph-0-2" x="341.670703" y="15.929688"/>
<use xlink:href="#glyph-0-3" x="349.011914" y="15.929688"/>
<use xlink:href="#glyph-0-4" x="360.007617" y="15.929688"/>
<use xlink:href="#glyph-0-12" x="367.348828" y="15.929688"/>
<use xlink:href="#glyph-0-2" x="373.948828" y="15.929688"/>
<use xlink:href="#glyph-0-11" x="381.290039" y="15.929688"/>
<use xlink:href="#glyph-0-9" x="384.222656" y="15.929688"/>
<use xlink:href="#glyph-0-10" x="388.618359" y="15.929688"/>
</g>
<path fill-rule="nonzero" fill="rgb(100%, 100%, 100%)" fill-opacity="1" d="M 0 252 L 144 252 L 144 126 L 0 126 Z M 0 252 "/>
<g clip-path="url(#clip-3)">
<path fill-rule="nonzero" fill="rgb(100%, 100%, 100%)" fill-opacity="1" d="M 5.480469 246.519531 L 138.523438 246.519531 L 138.523438 147.40625 L 5.480469 147.40625 Z M 5.480469 246.519531 "/>
</g>
<path fill="none" stroke-width="1.066978" stroke-linecap="butt" stroke-linejoin="round" stroke="rgb(20%, 20%, 20%)" stroke-opacity="1" stroke-miterlimit="10" d="M 72 183.261719 L 72 151.914062 "/>
<path fill="none" stroke-width="1.066978" stroke-linecap="butt" stroke-linejoin="round" stroke="rgb(20%, 20%, 20%)" stroke-opacity="1" stroke-miterlimit="10" d="M 72 216.902344 L 72 242.015625 "/>
<path fill-rule="nonzero" fill="rgb(100%, 100%, 100%)" fill-opacity="1" stroke-width="1.066978" stroke-linecap="butt" stroke-linejoin="miter" stroke="rgb(20%, 20%, 20%)" stroke-opacity="1" stroke-miterlimit="10" d="M 11.527344 183.261719 L 11.527344 216.902344 L 132.472656 216.902344 L 132.472656 183.261719 Z M 11.527344 183.261719 "/>
<path fill="none" stroke-width="2.133957" stroke-linecap="butt" stroke-linejoin="miter" stroke="rgb(20%, 20%, 20%)" stroke-opacity="1" stroke-miterlimit="10" d="M 11.527344 197.035156 L 132.472656 197.035156 "/>
<g fill="rgb(0%, 0%, 0%)" fill-opacity="1">
<use xlink:href="#glyph-0-0" x="26.140625" y="141.929688"/>
<use xlink:href="#glyph-0-1" x="33.481836" y="141.929688"/>
<use xlink:href="#glyph-0-2" x="40.823047" y="141.929688"/>
<use xlink:href="#glyph-0-3" x="48.164258" y="141.929688"/>
<use xlink:href="#glyph-0-4" x="59.159961" y="141.929688"/>
<use xlink:href="#glyph-0-13" x="66.501172" y="141.929688"/>
<use xlink:href="#glyph-0-2" x="73.842383" y="141.929688"/>
<use xlink:href="#glyph-0-14" x="81.183594" y="141.929688"/>
<use xlink:href="#glyph-0-5" x="87.783594" y="141.929688"/>
<use xlink:href="#glyph-0-11" x="95.124805" y="141.929688"/>
<use xlink:href="#glyph-0-2" x="98.057422" y="141.929688"/>
<use xlink:href="#glyph-0-8" x="105.398633" y="141.929688"/>
<use xlink:href="#glyph-0-9" x="109.066016" y="141.929688"/>
<use xlink:href="#glyph-0-10" x="113.461719" y="141.929688"/>
</g>
<path fill-rule="nonzero" fill="rgb(100%, 100%, 100%)" fill-opacity="1" d="M 144 252 L 288 252 L 288 126 L 144 126 Z M 144 252 "/>
<g clip-path="url(#clip-4)">
<path fill-rule="nonzero" fill="rgb(100%, 100%, 100%)" fill-opacity="1" d="M 149.480469 246.519531 L 282.523438 246.519531 L 282.523438 147.40625 L 149.480469 147.40625 Z M 149.480469 246.519531 "/>
</g>
<path fill-rule="nonzero" fill="rgb(34.901961%, 34.901961%, 34.901961%)" fill-opacity="1" d="M 155.527344 242.015625 L 179.714844 242.015625 L 179.714844 211.980469 L 155.527344 211.980469 Z M 155.527344 242.015625 "/>
<path fill-rule="nonzero" fill="rgb(34.901961%, 34.901961%, 34.901961%)" fill-opacity="1" d="M 179.714844 242.015625 L 203.902344 242.015625 L 203.902344 151.914062 L 179.714844 151.914062 Z M 179.714844 242.015625 "/>
<path fill-rule="nonzero" fill="rgb(34.901961%, 34.901961%, 34.901961%)" fill-opacity="1" d="M 203.90625 242.015625 L 228.09375 242.015625 L 228.09375 181.945312 L 203.90625 181.945312 Z M 203.90625 242.015625 "/>
<path fill-rule="nonzero" fill="rgb(34.901961%, 34.901961%, 34.901961%)" fill-opacity="1" d="M 228.09375 242.015625 L 252.28125 242.015625 L 252.28125 151.914062 L 228.09375 151.914062 Z M 228.09375 242.015625 "/>
<path fill-rule="nonzero" fill="rgb(34.901961%, 34.901961%, 34.901961%)" fill-opacity="1" d="M 252.285156 242.015625 L 276.472656 242.015625 L 276.472656 211.980469 L 252.285156 211.980469 Z M 252.285156 242.015625 "/>
<g fill="rgb(0%, 0%, 0%)" fill-opacity="1">
<use xlink:href="#glyph-0-0" x="162.445312" y="141.929688"/>
<use xlink:href="#glyph-0-1" x="169.786523" y="141.929688"/>
<use xlink:href="#glyph-0-2" x="177.127734" y="141.929688"/>
<use xlink:href="#glyph-0-3" x="184.468945" y="141.929688"/>
<use xlink:href="#glyph-0-4" x="195.464648" y="141.929688"/>
<use xlink:href="#glyph-0-15" x="202.805859" y="141.929688"/>
<use xlink:href="#glyph-0-6" x="210.14707" y="141.929688"/>
<use xlink:href="#glyph-0-16" x="213.079687" y="141.929688"/>
<use xlink:href="#glyph-0-8" x="219.679687" y="141.929688"/>
<use xlink:href="#glyph-0-2" x="223.34707" y="141.929688"/>
<use xlink:href="#glyph-0-0" x="230.688281" y="141.929688"/>
<use xlink:href="#glyph-0-17" x="238.029492" y="141.929688"/>
<use xlink:href="#glyph-0-18" x="242.425195" y="141.929688"/>
<use xlink:href="#glyph-0-3" x="249.766406" y="141.929688"/>
<use xlink:href="#glyph-0-9" x="260.762109" y="141.929688"/>
<use xlink:href="#glyph-0-10" x="265.157812" y="141.929688"/>
</g>
<path fill-rule="nonzero" fill="rgb(100%, 100%, 100%)" fill-opacity="1" d="M 288 252 L 432 252 L 432 126 L 288 126 Z M 288 252 "/>
<g clip-path="url(#clip-5)">
<path fill-rule="nonzero" fill="rgb(100%, 100%, 100%)" fill-opacity="1" d="M 293.480469 246.519531 L 426.523438 246.519531 L 426.523438 147.40625 L 293.480469 147.40625 Z M 293.480469 246.519531 "/>
</g>
<path fill-rule="nonzero" fill="rgb(40%, 40%, 40%)" fill-opacity="0.25098" d="M 299.527344 241.84375 L 299.761719 241.832031 L 300 241.820312 L 300.238281 241.804688 L 300.472656 241.789062 L 300.710938 241.773438 L 300.945312 241.753906 L 301.421875 241.714844 L 301.65625 241.695312 L 301.894531 241.671875 L 302.128906 241.648438 L 302.367188 241.625 L 302.605469 241.597656 L 302.839844 241.570312 L 303.078125 241.539062 L 303.3125 241.507812 L 303.789062 241.4375 L 304.023438 241.398438 L 304.261719 241.359375 L 304.496094 241.320312 L 304.734375 241.273438 L 304.96875 241.226562 L 305.207031 241.179688 L 305.445312 241.128906 L 305.679688 241.074219 L 305.917969 241.019531 L 306.152344 240.957031 L 306.390625 240.894531 L 306.628906 240.828125 L 306.863281 240.761719 L 307.101562 240.691406 L 307.335938 240.613281 L 307.574219 240.535156 L 307.8125 240.453125 L 308.046875 240.367188 L 308.285156 240.277344 L 308.519531 240.183594 L 308.757812 240.085938 L 308.996094 239.984375 L 309.230469 239.878906 L 309.46875 239.765625 L 309.703125 239.652344 L 309.941406 239.53125 L 310.175781 239.40625 L 310.414062 239.277344 L 310.652344 239.144531 L 310.886719 239.003906 L 311.125 238.863281 L 311.359375 238.710938 L 311.835938 238.398438 L 312.070312 238.230469 L 312.308594 238.0625 L 312.542969 237.882812 L 313.019531 237.515625 L 313.253906 237.320312 L 313.492188 237.121094 L 313.726562 236.914062 L 314.203125 236.484375 L 314.4375 236.257812 L 314.675781 236.03125 L 314.910156 235.792969 L 315.148438 235.550781 L 315.382812 235.300781 L 315.621094 235.046875 L 315.859375 234.785156 L 316.09375 234.515625 L 316.332031 234.242188 L 316.566406 233.964844 L 316.804688 233.675781 L 317.042969 233.382812 L 317.277344 233.082031 L 317.515625 232.777344 L 317.75 232.46875 L 317.988281 232.148438 L 318.226562 231.824219 L 318.460938 231.496094 L 318.699219 231.160156 L 318.933594 230.820312 L 319.410156 230.117188 L 319.644531 229.757812 L 319.882812 229.390625 L 320.117188 229.023438 L 320.355469 228.644531 L 320.59375 228.261719 L 320.828125 227.875 L 321.066406 227.480469 L 321.300781 227.085938 L 321.539062 226.679688 L 321.773438 226.273438 L 322.011719 225.859375 L 322.25 225.441406 L 322.484375 225.015625 L 322.722656 224.585938 L 322.957031 224.152344 L 323.195312 223.714844 L 323.433594 223.273438 L 323.667969 222.824219 L 323.90625 222.371094 L 324.140625 221.914062 L 324.378906 221.453125 L 324.617188 220.988281 L 324.851562 220.515625 L 325.089844 220.039062 L 325.324219 219.5625 L 325.5625 219.078125 L 325.800781 218.585938 L 326.035156 218.097656 L 326.273438 217.597656 L 326.507812 217.09375 L 326.746094 216.589844 L 326.980469 216.078125 L 327.21875 215.5625 L 327.457031 215.042969 L 327.691406 214.515625 L 327.929688 213.988281 L 328.164062 213.453125 L 328.402344 212.914062 L 328.640625 212.371094 L 328.875 211.820312 L 329.113281 211.269531 L 329.347656 210.710938 L 329.585938 210.148438 L 329.824219 209.578125 L 330.058594 209.003906 L 330.296875 208.425781 L 330.53125 207.84375 L 330.769531 207.253906 L 331.007812 206.660156 L 331.242188 206.058594 L 331.480469 205.457031 L 331.714844 204.84375 L 331.953125 204.230469 L 332.1875 203.609375 L 332.664062 202.351562 L 332.898438 201.710938 L 333.136719 201.070312 L 333.371094 200.421875 L 333.609375 199.769531 L 333.847656 199.113281 L 334.082031 198.449219 L 334.320312 197.785156 L 334.554688 197.109375 L 334.792969 196.433594 L 335.03125 195.753906 L 335.265625 195.066406 L 335.503906 194.378906 L 335.738281 193.683594 L 335.976562 192.988281 L 336.214844 192.289062 L 336.449219 191.582031 L 336.6875 190.878906 L 336.921875 190.167969 L 337.398438 188.746094 L 337.632812 188.03125 L 337.871094 187.316406 L 338.105469 186.597656 L 338.34375 185.882812 L 338.578125 185.164062 L 339.054688 183.734375 L 339.289062 183.019531 L 339.527344 182.308594 L 339.761719 181.597656 L 340 180.894531 L 340.238281 180.1875 L 340.472656 179.488281 L 340.710938 178.792969 L 340.945312 178.101562 L 341.183594 177.417969 L 341.421875 176.738281 L 341.65625 176.066406 L 341.894531 175.398438 L 342.128906 174.738281 L 342.367188 174.085938 L 342.605469 173.445312 L 342.839844 172.808594 L 343.078125 172.183594 L 343.3125 171.566406 L 343.550781 170.960938 L 343.785156 170.363281 L 344.023438 169.777344 L 344.261719 169.207031 L 344.496094 168.640625 L 344.734375 168.09375 L 344.96875 167.554688 L 345.207031 167.027344 L 345.445312 166.511719 L 345.679688 166.007812 L 345.917969 165.523438 L 346.152344 165.046875 L 346.390625 164.585938 L 346.628906 164.140625 L 346.863281 163.699219 L 347.101562 163.28125 L 347.335938 162.875 L 347.574219 162.476562 L 347.8125 162.097656 L 348.046875 161.726562 L 348.285156 161.375 L 348.519531 161.035156 L 348.757812 160.707031 L 348.992188 160.390625 L 349.230469 160.085938 L 349.46875 159.796875 L 349.703125 159.519531 L 349.941406 159.25 L 350.175781 158.996094 L 350.414062 158.75 L 350.652344 158.519531 L 350.886719 158.296875 L 351.125 158.082031 L 351.359375 157.878906 L 351.597656 157.683594 L 351.835938 157.496094 L 352.070312 157.320312 L 352.308594 157.148438 L 352.542969 156.984375 L 352.78125 156.828125 L 353.019531 156.679688 L 353.253906 156.535156 L 353.492188 156.394531 L 353.726562 156.261719 L 353.964844 156.132812 L 354.203125 156.007812 L 354.4375 155.886719 L 354.675781 155.765625 L 354.910156 155.648438 L 355.148438 155.535156 L 355.382812 155.425781 L 355.621094 155.3125 L 355.859375 155.207031 L 356.09375 155.097656 L 356.332031 154.992188 L 356.566406 154.882812 L 357.042969 154.671875 L 357.277344 154.566406 L 357.515625 154.457031 L 357.75 154.351562 L 357.988281 154.246094 L 358.226562 154.136719 L 358.460938 154.027344 L 358.699219 153.921875 L 358.933594 153.8125 L 359.410156 153.59375 L 359.644531 153.484375 L 359.882812 153.375 L 360.117188 153.269531 L 360.355469 153.164062 L 360.589844 153.058594 L 360.828125 152.953125 L 361.066406 152.851562 L 361.300781 152.753906 L 361.539062 152.65625 L 361.773438 152.5625 L 362.25 152.390625 L 362.484375 152.308594 L 362.722656 152.238281 L 362.957031 152.167969 L 363.195312 152.105469 L 363.433594 152.050781 L 363.667969 152.003906 L 363.90625 151.96875 L 364.140625 151.9375 L 364.378906 151.921875 L 364.617188 151.914062 L 364.851562 151.914062 L 365.089844 151.929688 L 365.324219 151.953125 L 365.5625 152 L 365.796875 152.050781 L 366.035156 152.117188 L 366.273438 152.203125 L 366.507812 152.296875 L 366.746094 152.414062 L 366.980469 152.546875 L 367.21875 152.691406 L 367.457031 152.859375 L 367.691406 153.039062 L 367.929688 153.242188 L 368.164062 153.464844 L 368.402344 153.699219 L 368.640625 153.964844 L 368.875 154.238281 L 369.113281 154.539062 L 369.347656 154.859375 L 369.585938 155.195312 L 369.824219 155.558594 L 370.058594 155.9375 L 370.296875 156.339844 L 370.53125 156.761719 L 370.769531 157.203125 L 371.007812 157.667969 L 371.242188 158.148438 L 371.480469 158.65625 L 371.714844 159.179688 L 371.953125 159.71875 L 372.1875 160.289062 L 372.425781 160.867188 L 372.664062 161.46875 L 372.898438 162.089844 L 373.136719 162.722656 L 373.371094 163.378906 L 373.609375 164.046875 L 373.847656 164.738281 L 374.320312 166.15625 L 374.554688 166.890625 L 374.792969 167.636719 L 375.03125 168.394531 L 375.265625 169.167969 L 375.503906 169.945312 L 375.738281 170.742188 L 375.976562 171.542969 L 376.214844 172.355469 L 376.449219 173.175781 L 376.6875 174 L 376.921875 174.835938 L 377.160156 175.671875 L 377.394531 176.515625 L 377.871094 178.210938 L 378.105469 179.066406 L 378.34375 179.917969 L 378.578125 180.773438 L 379.054688 182.476562 L 379.289062 183.328125 L 379.527344 184.175781 L 379.761719 185.019531 L 380.238281 186.691406 L 380.472656 187.519531 L 380.710938 188.339844 L 380.945312 189.15625 L 381.183594 189.960938 L 381.421875 190.761719 L 381.65625 191.550781 L 381.894531 192.332031 L 382.128906 193.101562 L 382.367188 193.859375 L 382.601562 194.613281 L 382.839844 195.347656 L 383.078125 196.074219 L 383.3125 196.789062 L 383.550781 197.488281 L 383.785156 198.183594 L 384.023438 198.855469 L 384.261719 199.523438 L 384.496094 200.175781 L 384.734375 200.8125 L 384.96875 201.441406 L 385.207031 202.050781 L 385.445312 202.652344 L 385.679688 203.242188 L 385.917969 203.8125 L 386.152344 204.378906 L 386.390625 204.921875 L 386.628906 205.460938 L 386.863281 205.984375 L 387.101562 206.496094 L 387.335938 207 L 387.574219 207.484375 L 388.046875 208.429688 L 388.285156 208.882812 L 388.519531 209.332031 L 388.757812 209.765625 L 388.992188 210.191406 L 389.230469 210.609375 L 389.46875 211.011719 L 389.703125 211.414062 L 389.941406 211.804688 L 390.175781 212.1875 L 390.414062 212.566406 L 390.652344 212.933594 L 390.886719 213.296875 L 391.125 213.65625 L 391.359375 214.007812 L 391.597656 214.355469 L 391.835938 214.695312 L 392.070312 215.035156 L 392.308594 215.367188 L 392.542969 215.695312 L 392.78125 216.023438 L 393.019531 216.347656 L 393.253906 216.667969 L 393.492188 216.988281 L 393.726562 217.304688 L 393.964844 217.621094 L 394.199219 217.9375 L 394.675781 218.5625 L 394.910156 218.875 L 395.148438 219.183594 L 395.382812 219.496094 L 395.859375 220.121094 L 396.09375 220.433594 L 396.332031 220.746094 L 396.566406 221.058594 L 397.042969 221.683594 L 397.277344 222 L 397.515625 222.316406 L 397.75 222.632812 L 398.226562 223.265625 L 398.460938 223.585938 L 398.699219 223.90625 L 398.933594 224.226562 L 399.171875 224.546875 L 399.40625 224.867188 L 399.644531 225.1875 L 399.882812 225.511719 L 400.117188 225.832031 L 400.355469 226.152344 L 400.589844 226.476562 L 401.066406 227.117188 L 401.300781 227.4375 L 401.539062 227.757812 L 401.773438 228.074219 L 402.011719 228.394531 L 402.25 228.710938 L 402.484375 229.023438 L 402.722656 229.335938 L 402.957031 229.648438 L 403.433594 230.265625 L 403.667969 230.566406 L 403.90625 230.871094 L 404.140625 231.167969 L 404.378906 231.464844 L 404.617188 231.757812 L 404.851562 232.046875 L 405.089844 232.335938 L 405.324219 232.617188 L 405.5625 232.898438 L 405.796875 233.171875 L 406.035156 233.445312 L 406.273438 233.710938 L 406.507812 233.976562 L 406.746094 234.234375 L 406.980469 234.488281 L 407.21875 234.738281 L 407.457031 234.980469 L 407.691406 235.222656 L 407.929688 235.457031 L 408.164062 235.691406 L 408.640625 236.136719 L 408.875 236.351562 L 409.113281 236.5625 L 409.347656 236.769531 L 409.585938 236.96875 L 409.824219 237.164062 L 410.058594 237.355469 L 410.296875 237.542969 L 410.53125 237.722656 L 410.769531 237.898438 L 411.003906 238.066406 L 411.242188 238.234375 L 411.480469 238.394531 L 411.714844 238.550781 L 411.953125 238.699219 L 412.1875 238.847656 L 412.425781 238.988281 L 412.664062 239.125 L 412.898438 239.257812 L 413.136719 239.382812 L 413.371094 239.503906 L 413.609375 239.625 L 413.847656 239.738281 L 414.082031 239.847656 L 414.320312 239.953125 L 414.554688 240.054688 L 414.792969 240.152344 L 415.03125 240.246094 L 415.265625 240.335938 L 415.503906 240.421875 L 415.738281 240.503906 L 415.976562 240.585938 L 416.210938 240.660156 L 416.6875 240.800781 L 416.921875 240.867188 L 417.160156 240.929688 L 417.394531 240.992188 L 417.871094 241.101562 L 418.105469 241.15625 L 418.34375 241.207031 L 418.578125 241.25 L 418.816406 241.296875 L 419.054688 241.339844 L 419.289062 241.378906 L 419.527344 241.417969 L 419.761719 241.453125 L 420.238281 241.523438 L 420.472656 241.550781 L 420.472656 242.015625 L 299.527344 242.015625 Z M 299.527344 241.84375 "/>
<path fill="none" stroke-width="1.066978" stroke-linecap="butt" stroke-linejoin="round" stroke="rgb(0%, 0%, 0%)" stroke-opacity="1" stroke-miterlimit="10" d="M 299.527344 241.84375 L 299.761719 241.832031 L 300 241.820312 L 300.238281 241.804688 L 300.472656 241.789062 L 300.710938 241.773438 L 300.945312 241.753906 L 301.421875 241.714844 L 301.65625 241.695312 L 301.894531 241.671875 L 302.128906 241.648438 L 302.367188 241.625 L 302.605469 241.597656 L 302.839844 241.570312 L 303.078125 241.539062 L 303.3125 241.507812 L 303.789062 241.4375 L 304.023438 241.398438 L 304.261719 241.359375 L 304.496094 241.320312 L 304.734375 241.273438 L 304.96875 241.226562 L 305.207031 241.179688 L 305.445312 241.128906 L 305.679688 241.074219 L 305.917969 241.019531 L 306.152344 240.957031 L 306.390625 240.894531 L 306.628906 240.828125 L 306.863281 240.761719 L 307.101562 240.691406 L 307.335938 240.613281 L 307.574219 240.535156 L 307.8125 240.453125 L 308.046875 240.367188 L 308.285156 240.277344 L 308.519531 240.183594 L 308.757812 240.085938 L 308.996094 239.984375 L 309.230469 239.878906 L 309.46875 239.765625 L 309.703125 239.652344 L 309.941406 239.53125 L 310.175781 239.40625 L 310.414062 239.277344 L 310.652344 239.144531 L 310.886719 239.003906 L 311.125 238.863281 L 311.359375 238.710938 L 311.835938 238.398438 L 312.070312 238.230469 L 312.308594 238.0625 L 312.542969 237.882812 L 313.019531 237.515625 L 313.253906 237.320312 L 313.492188 237.121094 L 313.726562 236.914062 L 314.203125 236.484375 L 314.4375 236.257812 L 314.675781 236.03125 L 314.910156 235.792969 L 315.148438 235.550781 L 315.382812 235.300781 L 315.621094 235.046875 L 315.859375 234.785156 L 316.09375 234.515625 L 316.332031 234.242188 L 316.566406 233.964844 L 316.804688 233.675781 L 317.042969 233.382812 L 317.277344 233.082031 L 317.515625 232.777344 L 317.75 232.46875 L 317.988281 232.148438 L 318.226562 231.824219 L 318.460938 231.496094 L 318.699219 231.160156 L 318.933594 230.820312 L 319.410156 230.117188 L 319.644531 229.757812 L 319.882812 229.390625 L 320.117188 229.023438 L 320.355469 228.644531 L 320.59375 228.261719 L 320.828125 227.875 L 321.066406 227.480469 L 321.300781 227.085938 L 321.539062 226.679688 L 321.773438 226.273438 L 322.011719 225.859375 L 322.25 225.441406 L 322.484375 225.015625 L 322.722656 224.585938 L 322.957031 224.152344 L 323.195312 223.714844 L 323.433594 223.273438 L 323.667969 222.824219 L 323.90625 222.371094 L 324.140625 221.914062 L 324.378906 221.453125 L 324.617188 220.988281 L 324.851562 220.515625 L 325.089844 220.039062 L 325.324219 219.5625 L 325.5625 219.078125 L 325.800781 218.585938 L 326.035156 218.097656 L 326.273438 217.597656 L 326.507812 217.09375 L 326.746094 216.589844 L 326.980469 216.078125 L 327.21875 215.5625 L 327.457031 215.042969 L 327.691406 214.515625 L 327.929688 213.988281 L 328.164062 213.453125 L 328.402344 212.914062 L 328.640625 212.371094 L 328.875 211.820312 L 329.113281 211.269531 L 329.347656 210.710938 L 329.585938 210.148438 L 329.824219 209.578125 L 330.058594 209.003906 L 330.296875 208.425781 L 330.53125 207.84375 L 330.769531 207.253906 L 331.007812 206.660156 L 331.242188 206.058594 L 331.480469 205.457031 L 331.714844 204.84375 L 331.953125 204.230469 L 332.1875 203.609375 L 332.664062 202.351562 L 332.898438 201.710938 L 333.136719 201.070312 L 333.371094 200.421875 L 333.609375 199.769531 L 333.847656 199.113281 L 334.082031 198.449219 L 334.320312 197.785156 L 334.554688 197.109375 L 334.792969 196.433594 L 335.03125 195.753906 L 335.265625 195.066406 L 335.503906 194.378906 L 335.738281 193.683594 L 335.976562 192.988281 L 336.214844 192.289062 L 336.449219 191.582031 L 336.6875 190.878906 L 336.921875 190.167969 L 337.398438 188.746094 L 337.632812 188.03125 L 337.871094 187.316406 L 338.105469 186.597656 L 338.34375 185.882812 L 338.578125 185.164062 L 339.054688 183.734375 L 339.289062 183.019531 L 339.527344 182.308594 L 339.761719 181.597656 L 340 180.894531 L 340.238281 180.1875 L 340.472656 179.488281 L 340.710938 178.792969 L 340.945312 178.101562 L 341.183594 177.417969 L 341.421875 176.738281 L 341.65625 176.066406 L 341.894531 175.398438 L 342.128906 174.738281 L 342.367188 174.085938 L 342.605469 173.445312 L 342.839844 172.808594 L 343.078125 172.183594 L 343.3125 171.566406 L 343.550781 170.960938 L 343.785156 170.363281 L 344.023438 169.777344 L 344.261719 169.207031 L 344.496094 168.640625 L 344.734375 168.09375 L 344.96875 167.554688 L 345.207031 167.027344 L 345.445312 166.511719 L 345.679688 166.007812 L 345.917969 165.523438 L 346.152344 165.046875 L 346.390625 164.585938 L 346.628906 164.140625 L 346.863281 163.699219 L 347.101562 163.28125 L 347.335938 162.875 L 347.574219 162.476562 L 347.8125 162.097656 L 348.046875 161.726562 L 348.285156 161.375 L 348.519531 161.035156 L 348.757812 160.707031 L 348.992188 160.390625 L 349.230469 160.085938 L 349.46875 159.796875 L 349.703125 159.519531 L 349.941406 159.25 L 350.175781 158.996094 L 350.414062 158.75 L 350.652344 158.519531 L 350.886719 158.296875 L 351.125 158.082031 L 351.359375 157.878906 L 351.597656 157.683594 L 351.835938 157.496094 L 352.070312 157.320312 L 352.308594 157.148438 L 352.542969 156.984375 L 352.78125 156.828125 L 353.019531 156.679688 L 353.253906 156.535156 L 353.492188 156.394531 L 353.726562 156.261719 L 353.964844 156.132812 L 354.203125 156.007812 L 354.4375 155.886719 L 354.675781 155.765625 L 354.910156 155.648438 L 355.148438 155.535156 L 355.382812 155.425781 L 355.621094 155.3125 L 355.859375 155.207031 L 356.09375 155.097656 L 356.332031 154.992188 L 356.566406 154.882812 L 357.042969 154.671875 L 357.277344 154.566406 L 357.515625 154.457031 L 357.75 154.351562 L 357.988281 154.246094 L 358.226562 154.136719 L 358.460938 154.027344 L 358.699219 153.921875 L 358.933594 153.8125 L 359.410156 153.59375 L 359.644531 153.484375 L 359.882812 153.375 L 360.117188 153.269531 L 360.355469 153.164062 L 360.589844 153.058594 L 360.828125 152.953125 L 361.066406 152.851562 L 361.300781 152.753906 L 361.539062 152.65625 L 361.773438 152.5625 L 362.25 152.390625 L 362.484375 152.308594 L 362.722656 152.238281 L 362.957031 152.167969 L 363.195312 152.105469 L 363.433594 152.050781 L 363.667969 152.003906 L 363.90625 151.96875 L 364.140625 151.9375 L 364.378906 151.921875 L 364.617188 151.914062 L 364.851562 151.914062 L 365.089844 151.929688 L 365.324219 151.953125 L 365.5625 152 L 365.796875 152.050781 L 366.035156 152.117188 L 366.273438 152.203125 L 366.507812 152.296875 L 366.746094 152.414062 L 366.980469 152.546875 L 367.21875 152.691406 L 367.457031 152.859375 L 367.691406 153.039062 L 367.929688 153.242188 L 368.164062 153.464844 L 368.402344 153.699219 L 368.640625 153.964844 L 368.875 154.238281 L 369.113281 154.539062 L 369.347656 154.859375 L 369.585938 155.195312 L 369.824219 155.558594 L 370.058594 155.9375 L 370.296875 156.339844 L 370.53125 156.761719 L 370.769531 157.203125 L 371.007812 157.667969 L 371.242188 158.148438 L 371.480469 158.65625 L 371.714844 159.179688 L 371.953125 159.71875 L 372.1875 160.289062 L 372.425781 160.867188 L 372.664062 161.46875 L 372.898438 162.089844 L 373.136719 162.722656 L 373.371094 163.378906 L 373.609375 164.046875 L 373.847656 164.738281 L 374.320312 166.15625 L 374.554688 166.890625 L 374.792969 167.636719 L 375.03125 168.394531 L 375.265625 169.167969 L 375.503906 169.945312 L 375.738281 170.742188 L 375.976562 171.542969 L 376.214844 172.355469 L 376.449219 173.175781 L 376.6875 174 L 376.921875 174.835938 L 377.160156 175.671875 L 377.394531 176.515625 L 377.871094 178.210938 L 378.105469 179.066406 L 378.34375 179.917969 L 378.578125 180.773438 L 379.054688 182.476562 L 379.289062 183.328125 L 379.527344 184.175781 L 379.761719 185.019531 L 380.238281 186.691406 L 380.472656 187.519531 L 380.710938 188.339844 L 380.945312 189.15625 L 381.183594 189.960938 L 381.421875 190.761719 L 381.65625 191.550781 L 381.894531 192.332031 L 382.128906 193.101562 L 382.367188 193.859375 L 382.601562 194.613281 L 382.839844 195.347656 L 383.078125 196.074219 L 383.3125 196.789062 L 383.550781 197.488281 L 383.785156 198.183594 L 384.023438 198.855469 L 384.261719 199.523438 L 384.496094 200.175781 L 384.734375 200.8125 L 384.96875 201.441406 L 385.207031 202.050781 L 385.445312 202.652344 L 385.679688 203.242188 L 385.917969 203.8125 L 386.152344 204.378906 L 386.390625 204.921875 L 386.628906 205.460938 L 386.863281 205.984375 L 387.101562 206.496094 L 387.335938 207 L 387.574219 207.484375 L 388.046875 208.429688 L 388.285156 208.882812 L 388.519531 209.332031 L 388.757812 209.765625 L 388.992188 210.191406 L 389.230469 210.609375 L 389.46875 211.011719 L 389.703125 211.414062 L 389.941406 211.804688 L 390.175781 212.1875 L 390.414062 212.566406 L 390.652344 212.933594 L 390.886719 213.296875 L 391.125 213.65625 L 391.359375 214.007812 L 391.597656 214.355469 L 391.835938 214.695312 L 392.070312 215.035156 L 392.308594 215.367188 L 392.542969 215.695312 L 392.78125 216.023438 L 393.019531 216.347656 L 393.253906 216.667969 L 393.492188 216.988281 L 393.726562 217.304688 L 393.964844 217.621094 L 394.199219 217.9375 L 394.675781 218.5625 L 394.910156 218.875 L 395.148438 219.183594 L 395.382812 219.496094 L 395.859375 220.121094 L 396.09375 220.433594 L 396.332031 220.746094 L 396.566406 221.058594 L 397.042969 221.683594 L 397.277344 222 L 397.515625 222.316406 L 397.75 222.632812 L 398.226562 223.265625 L 398.460938 223.585938 L 398.699219 223.90625 L 398.933594 224.226562 L 399.171875 224.546875 L 399.40625 224.867188 L 399.644531 225.1875 L 399.882812 225.511719 L 400.117188 225.832031 L 400.355469 226.152344 L 400.589844 226.476562 L 401.066406 227.117188 L 401.300781 227.4375 L 401.539062 227.757812 L 401.773438 228.074219 L 402.011719 228.394531 L 402.25 228.710938 L 402.484375 229.023438 L 402.722656 229.335938 L 402.957031 229.648438 L 403.433594 230.265625 L 403.667969 230.566406 L 403.90625 230.871094 L 404.140625 231.167969 L 404.378906 231.464844 L 404.617188 231.757812 L 404.851562 232.046875 L 405.089844 232.335938 L 405.324219 232.617188 L 405.5625 232.898438 L 405.796875 233.171875 L 406.035156 233.445312 L 406.273438 233.710938 L 406.507812 233.976562 L 406.746094 234.234375 L 406.980469 234.488281 L 407.21875 234.738281 L 407.457031 234.980469 L 407.691406 235.222656 L 407.929688 235.457031 L 408.164062 235.691406 L 408.640625 236.136719 L 408.875 236.351562 L 409.113281 236.5625 L 409.347656 236.769531 L 409.585938 236.96875 L 409.824219 237.164062 L 410.058594 237.355469 L 410.296875 237.542969 L 410.53125 237.722656 L 410.769531 237.898438 L 411.003906 238.066406 L 411.242188 238.234375 L 411.480469 238.394531 L 411.714844 238.550781 L 411.953125 238.699219 L 412.1875 238.847656 L 412.425781 238.988281 L 412.664062 239.125 L 412.898438 239.257812 L 413.136719 239.382812 L 413.371094 239.503906 L 413.609375 239.625 L 413.847656 239.738281 L 414.082031 239.847656 L 414.320312 239.953125 L 414.554688 240.054688 L 414.792969 240.152344 L 415.03125 240.246094 L 415.265625 240.335938 L 415.503906 240.421875 L 415.738281 240.503906 L 415.976562 240.585938 L 416.210938 240.660156 L 416.6875 240.800781 L 416.921875 240.867188 L 417.160156 240.929688 L 417.394531 240.992188 L 417.871094 241.101562 L 418.105469 241.15625 L 418.34375 241.207031 L 418.578125 241.25 L 418.816406 241.296875 L 419.054688 241.339844 L 419.289062 241.378906 L 419.527344 241.417969 L 419.761719 241.453125 L 420.238281 241.523438 L 420.472656 241.550781 "/>
<g fill="rgb(0%, 0%, 0%)" fill-opacity="1">
<use xlink:href="#glyph-0-0" x="314.511719" y="141.929688"/>
<use xlink:href="#glyph-0-1" x="321.85293" y="141.929688"/>
<use xlink:href="#glyph-0-2" x="329.194141" y="141.929688"/>
<use xlink:href="#glyph-0-3" x="336.535352" y="141.929688"/>
<use xlink:href="#glyph-0-4" x="347.531055" y="141.929688"/>
<use xlink:href="#glyph-0-19" x="354.872266" y="141.929688"/>
<use xlink:href="#glyph-0-1" x="362.213477" y="141.929688"/>
<use xlink:href="#glyph-0-7" x="369.554688" y="141.929688"/>
<use xlink:href="#glyph-0-16" x="376.895898" y="141.929688"/>
<use xlink:href="#glyph-0-6" x="383.495898" y="141.929688"/>
<use xlink:href="#glyph-0-8" x="386.428516" y="141.929688"/>
<use xlink:href="#glyph-0-20" x="390.095898" y="141.929688"/>
<use xlink:href="#glyph-0-9" x="396.695898" y="141.929688"/>
<use xlink:href="#glyph-0-10" x="401.091602" y="141.929688"/>
</g>
</svg>
