<?xml version="1.0" encoding="UTF-8"?>
<svg xmlns="http://www.w3.org/2000/svg" xmlns:xlink="http://www.w3.org/1999/xlink" width="720pt" height="324pt" viewBox="0 0 720 324">
<defs>
<g>
<g id="glyph-0-0">
<path d="M 0.53125 -4.519531 C 0.53125 -5.601562 0.644531 -6.472656 0.867188 -7.132812 C 1.089844 -7.792969 1.417969 -8.304688 1.859375 -8.664062 C 2.300781 -9.019531 2.851562 -9.199219 3.519531 -9.199219 C 4.011719 -9.199219 4.441406 -9.101562 4.8125 -8.902344 C 5.183594 -8.707031 5.488281 -8.417969 5.730469 -8.046875 C 5.972656 -7.675781 6.164062 -7.21875 6.300781 -6.683594 C 6.4375 -6.148438 6.507812 -5.425781 6.507812 -4.519531 C 6.507812 -3.445312 6.394531 -2.574219 6.175781 -1.914062 C 5.953125 -1.253906 5.625 -0.746094 5.183594 -0.382812 C 4.746094 -0.0234375 4.191406 0.15625 3.519531 0.15625 C 2.636719 0.15625 1.941406 -0.160156 1.4375 -0.792969 C 0.832031 -1.554688 0.53125 -2.796875 0.53125 -4.519531 M 1.6875 -4.519531 C 1.6875 -3.015625 1.863281 -2.011719 2.214844 -1.515625 C 2.566406 -1.019531 3.003906 -0.769531 3.519531 -0.769531 C 4.035156 -0.769531 4.46875 -1.019531 4.820312 -1.519531 C 5.175781 -2.019531 5.351562 -3.019531 5.351562 -4.519531 C 5.351562 -6.027344 5.175781 -7.027344 4.820312 -7.523438 C 4.46875 -8.019531 4.03125 -8.269531 3.507812 -8.269531 C 2.988281 -8.269531 2.578125 -8.050781 2.269531 -7.613281 C 1.882812 -7.054688 1.6875 -6.023438 1.6875 -4.519531 Z M 1.6875 -4.519531 "/>
</g>
<g id="glyph-0-1">
<path d="M 1.164062 0 L 1.164062 -1.28125 L 2.445312 -1.28125 L 2.445312 0 Z M 1.164062 0 "/>
</g>
<g id="glyph-0-2">
<path d="M 6.445312 -1.082031 L 6.445312 0 L 0.386719 0 C 0.378906 -0.269531 0.421875 -0.53125 0.519531 -0.78125 C 0.671875 -1.195312 0.917969 -1.601562 1.257812 -2 C 1.597656 -2.398438 2.089844 -2.863281 2.730469 -3.386719 C 3.726562 -4.203125 4.398438 -4.851562 4.75 -5.328125 C 5.101562 -5.804688 5.273438 -6.257812 5.273438 -6.679688 C 5.273438 -7.128906 5.117188 -7.503906 4.796875 -7.808594 C 4.476562 -8.117188 4.0625 -8.269531 3.550781 -8.269531 C 3.007812 -8.269531 2.574219 -8.105469 2.25 -7.78125 C 1.925781 -7.457031 1.761719 -7.007812 1.757812 -6.429688 L 0.601562 -6.550781 C 0.679688 -7.414062 0.976562 -8.070312 1.492188 -8.523438 C 2.011719 -8.972656 2.703125 -9.199219 3.574219 -9.199219 C 4.453125 -9.199219 5.148438 -8.957031 5.664062 -8.46875 C 6.175781 -7.980469 6.429688 -7.378906 6.429688 -6.65625 C 6.429688 -6.289062 6.355469 -5.929688 6.207031 -5.574219 C 6.054688 -5.222656 5.808594 -4.847656 5.460938 -4.457031 C 5.113281 -4.066406 4.535156 -3.527344 3.726562 -2.84375 C 3.050781 -2.277344 2.617188 -1.894531 2.425781 -1.691406 C 2.234375 -1.488281 2.074219 -1.285156 1.949219 -1.082031 Z M 6.445312 -1.082031 "/>
</g>
<g id="glyph-0-3">
<path d="M 0.53125 -2.398438 L 1.710938 -2.5 C 1.800781 -1.925781 2.003906 -1.492188 2.320312 -1.203125 C 2.640625 -0.914062 3.023438 -0.769531 3.476562 -0.769531 C 4.015625 -0.769531 4.476562 -0.972656 4.851562 -1.382812 C 5.226562 -1.789062 5.414062 -2.332031 5.414062 -3.007812 C 5.414062 -3.648438 5.230469 -4.152344 4.871094 -4.523438 C 4.511719 -4.894531 4.039062 -5.082031 3.457031 -5.082031 C 3.09375 -5.082031 2.765625 -5 2.476562 -4.835938 C 2.183594 -4.667969 1.953125 -4.457031 1.789062 -4.195312 L 0.730469 -4.332031 L 1.617188 -9.039062 L 6.175781 -9.039062 L 6.175781 -7.960938 L 2.519531 -7.960938 L 2.023438 -5.5 C 2.574219 -5.882812 3.152344 -6.074219 3.757812 -6.074219 C 4.554688 -6.074219 5.230469 -5.796875 5.78125 -5.242188 C 6.332031 -4.691406 6.605469 -3.976562 6.605469 -3.105469 C 6.605469 -2.277344 6.363281 -1.558594 5.882812 -0.957031 C 5.292969 -0.214844 4.492188 0.15625 3.476562 0.15625 C 2.640625 0.15625 1.960938 -0.078125 1.433594 -0.542969 C 0.90625 -1.011719 0.605469 -1.628906 0.53125 -2.398438 Z M 0.53125 -2.398438 "/>
</g>
<g id="glyph-0-4">
<path d="M 0.605469 -7.960938 L 0.605469 -9.042969 L 6.539062 -9.042969 L 6.539062 -8.167969 C 5.953125 -7.546875 5.375 -6.722656 4.804688 -5.695312 C 4.230469 -4.664062 3.789062 -3.605469 3.476562 -2.519531 C 3.25 -1.753906 3.105469 -0.914062 3.042969 0 L 1.886719 0 C 1.898438 -0.722656 2.042969 -1.589844 2.3125 -2.613281 C 2.582031 -3.632812 2.972656 -4.617188 3.476562 -5.566406 C 3.984375 -6.511719 4.523438 -7.3125 5.09375 -7.960938 Z M 0.605469 -7.960938 "/>
</g>
<g id="glyph-0-5">
<path d="M 4.769531 0 L 3.644531 0 L 3.644531 -7.167969 C 3.371094 -6.910156 3.019531 -6.652344 2.578125 -6.394531 C 2.136719 -6.136719 1.742188 -5.941406 1.394531 -5.8125 L 1.394531 -6.898438 C 2.023438 -7.195312 2.574219 -7.554688 3.042969 -7.976562 C 3.515625 -8.394531 3.847656 -8.804688 4.042969 -9.199219 L 4.769531 -9.199219 Z M 4.769531 0 "/>
</g>
<g id="glyph-0-6">
<path d="M 0.40625 -2.75 L 0.40625 -3.882812 L 3.863281 -3.882812 L 3.863281 -2.75 Z M 0.40625 -2.75 "/>
</g>
<g id="glyph-0-7">
<path d="M 6.367188 -6.917969 L 5.25 -6.832031 C 5.148438 -7.273438 5.007812 -7.59375 4.824219 -7.792969 C 4.519531 -8.113281 4.144531 -8.273438 3.699219 -8.273438 C 3.339844 -8.273438 3.027344 -8.175781 2.757812 -7.976562 C 2.402344 -7.714844 2.121094 -7.339844 1.917969 -6.84375 C 1.714844 -6.347656 1.609375 -5.640625 1.601562 -4.726562 C 1.871094 -5.136719 2.203125 -5.445312 2.59375 -5.644531 C 2.984375 -5.84375 3.394531 -5.945312 3.824219 -5.945312 C 4.574219 -5.945312 5.214844 -5.667969 5.742188 -5.117188 C 6.269531 -4.5625 6.53125 -3.851562 6.53125 -2.976562 C 6.53125 -2.398438 6.40625 -1.867188 6.160156 -1.371094 C 5.910156 -0.878906 5.570312 -0.5 5.136719 -0.238281 C 4.703125 0.0234375 4.210938 0.15625 3.664062 0.15625 C 2.726562 0.15625 1.960938 -0.1875 1.367188 -0.878906 C 0.777344 -1.566406 0.480469 -2.703125 0.480469 -4.289062 C 0.480469 -6.058594 0.808594 -7.347656 1.460938 -8.148438 C 2.035156 -8.851562 2.800781 -9.199219 3.769531 -9.199219 C 4.488281 -9.199219 5.082031 -8.996094 5.539062 -8.59375 C 6 -8.191406 6.277344 -7.632812 6.367188 -6.917969 M 1.773438 -2.96875 C 1.773438 -2.582031 1.855469 -2.210938 2.023438 -1.855469 C 2.1875 -1.503906 2.417969 -1.230469 2.710938 -1.046875 C 3.007812 -0.863281 3.320312 -0.769531 3.644531 -0.769531 C 4.117188 -0.769531 4.527344 -0.960938 4.867188 -1.34375 C 5.210938 -1.726562 5.382812 -2.246094 5.382812 -2.90625 C 5.382812 -3.539062 5.210938 -4.039062 4.875 -4.402344 C 4.539062 -4.769531 4.113281 -4.949219 3.601562 -4.949219 C 3.089844 -4.949219 2.660156 -4.769531 2.304688 -4.402344 C 1.953125 -4.039062 1.773438 -3.558594 1.773438 -2.96875 Z M 1.773438 -2.96875 "/>
</g>
<g id="glyph-0-8">
<path d="M 0.539062 -2.417969 L 1.664062 -2.570312 C 1.792969 -1.929688 2.011719 -1.472656 2.320312 -1.191406 C 2.632812 -0.910156 3.011719 -0.769531 3.457031 -0.769531 C 3.984375 -0.769531 4.433594 -0.953125 4.796875 -1.320312 C 5.160156 -1.683594 5.34375 -2.140625 5.34375 -2.679688 C 5.34375 -3.199219 5.175781 -3.625 4.835938 -3.960938 C 4.5 -4.292969 4.070312 -4.460938 3.550781 -4.460938 C 3.335938 -4.460938 3.074219 -4.421875 2.757812 -4.335938 L 2.882812 -5.324219 C 2.957031 -5.316406 3.015625 -5.3125 3.0625 -5.3125 C 3.542969 -5.3125 3.972656 -5.4375 4.355469 -5.6875 C 4.738281 -5.9375 4.929688 -6.324219 4.929688 -6.84375 C 4.929688 -7.257812 4.792969 -7.597656 4.511719 -7.867188 C 4.234375 -8.140625 3.871094 -8.273438 3.429688 -8.273438 C 2.992188 -8.273438 2.628906 -8.136719 2.335938 -7.863281 C 2.046875 -7.585938 1.859375 -7.175781 1.773438 -6.625 L 0.648438 -6.824219 C 0.789062 -7.578125 1.101562 -8.164062 1.585938 -8.578125 C 2.074219 -8.992188 2.679688 -9.199219 3.40625 -9.199219 C 3.90625 -9.199219 4.367188 -9.09375 4.789062 -8.878906 C 5.207031 -8.664062 5.53125 -8.371094 5.753906 -8 C 5.976562 -7.628906 6.085938 -7.234375 6.085938 -6.820312 C 6.085938 -6.421875 5.980469 -6.0625 5.769531 -5.738281 C 5.554688 -5.414062 5.242188 -5.152344 4.824219 -4.960938 C 5.367188 -4.835938 5.789062 -4.578125 6.085938 -4.183594 C 6.386719 -3.789062 6.539062 -3.296875 6.539062 -2.707031 C 6.539062 -1.90625 6.246094 -1.226562 5.664062 -0.671875 C 5.078125 -0.117188 4.339844 0.164062 3.449219 0.164062 C 2.644531 0.164062 1.976562 -0.078125 1.445312 -0.554688 C 0.914062 -1.035156 0.613281 -1.65625 0.539062 -2.417969 Z M 0.539062 -2.417969 "/>
</g>
<g id="glyph-1-0">
<path d="M 0.3125 0 L 0.3125 -1.140625 L 5.59375 -7.203125 C 4.996094 -7.171875 4.464844 -7.15625 4.007812 -7.15625 L 0.625 -7.15625 L 0.625 -8.296875 L 7.40625 -8.296875 L 7.40625 -7.367188 L 2.914062 -2.101562 L 2.046875 -1.140625 C 2.675781 -1.1875 3.269531 -1.210938 3.820312 -1.210938 L 7.65625 -1.210938 L 7.65625 0 Z M 0.3125 0 "/>
</g>
<g id="glyph-2-0">
<path d="M -8.296875 -9.523438 L -7.15625 -9.523438 L -7.15625 -7.265625 C -6.511719 -7.957031 -5.503906 -8.304688 -4.140625 -8.304688 C -2.65625 -8.304688 -1.5625 -7.925781 -0.863281 -7.167969 C -0.164062 -6.410156 0.1875 -5.488281 0.1875 -4.40625 C 0.1875 -3.28125 -0.175781 -2.355469 -0.90625 -1.625 C -1.636719 -0.894531 -2.714844 -0.53125 -4.148438 -0.53125 C -5.621094 -0.53125 -6.714844 -0.910156 -7.421875 -1.667969 C -8.128906 -2.425781 -8.484375 -3.339844 -8.484375 -4.40625 C -8.484375 -4.796875 -8.421875 -5.238281 -8.296875 -5.734375 L -8.296875 -9.523438 M -7.320312 -4.382812 C -7.320312 -3.699219 -7.054688 -3.128906 -6.523438 -2.667969 C -5.992188 -2.207031 -5.199219 -1.976562 -4.140625 -1.976562 C -3.089844 -1.976562 -2.296875 -2.203125 -1.765625 -2.652344 C -1.234375 -3.101562 -0.96875 -3.6875 -0.96875 -4.40625 C -0.96875 -5.160156 -1.246094 -5.761719 -1.800781 -6.207031 C -2.355469 -6.652344 -3.136719 -6.875 -4.148438 -6.875 C -5.070312 -6.875 -5.828125 -6.671875 -6.425781 -6.261719 C -7.023438 -5.851562 -7.320312 -5.226562 -7.320312 -4.382812 Z M -7.320312 -4.382812 "/>
</g>
<g id="glyph-2-1">
<path d="M 3.367188 -3.742188 C 2.386719 -2.964844 1.242188 -2.308594 -0.0703125 -1.773438 C -1.382812 -1.238281 -2.742188 -0.96875 -4.148438 -0.96875 C -5.386719 -0.96875 -6.574219 -1.167969 -7.710938 -1.570312 C -9.027344 -2.039062 -10.339844 -2.761719 -11.648438 -3.742188 L -11.648438 -4.75 C -10.566406 -4.121094 -9.792969 -3.703125 -9.328125 -3.5 C -8.609375 -3.183594 -7.859375 -2.933594 -7.078125 -2.75 C -6.105469 -2.527344 -5.125 -2.414062 -4.140625 -2.414062 C -1.636719 -2.414062 0.867188 -3.191406 3.367188 -4.75 Z M 3.367188 -3.742188 "/>
</g>
<g id="glyph-2-2">
<path d="M 0 -0.3125 L -1.140625 -0.3125 L -7.203125 -5.59375 C -7.171875 -4.996094 -7.15625 -4.464844 -7.15625 -4.007812 L -7.15625 -0.625 L -8.296875 -0.625 L -8.296875 -7.40625 L -7.367188 -7.40625 L -2.101562 -2.914062 L -1.140625 -2.046875 C -1.1875 -2.675781 -1.210938 -3.269531 -1.210938 -3.820312 L -1.210938 -7.65625 L 0 -7.65625 Z M 0 -0.3125 "/>
</g>
<g id="glyph-2-3">
<path d="M 3.367188 -1.976562 L 3.367188 -0.96875 C 0.867188 -2.527344 -1.636719 -3.304688 -4.140625 -3.304688 C -5.121094 -3.304688 -6.089844 -3.191406 -7.054688 -2.96875 C -7.835938 -2.792969 -8.585938 -2.542969 -9.304688 -2.226562 C -9.773438 -2.023438 -10.554688 -1.605469 -11.648438 -0.96875 L -11.648438 -1.976562 C -10.339844 -2.957031 -9.027344 -3.679688 -7.710938 -4.148438 C -6.574219 -4.550781 -5.386719 -4.75 -4.148438 -4.75 C -2.742188 -4.75 -1.382812 -4.480469 -0.0703125 -3.941406 C 1.242188 -3.402344 2.386719 -2.746094 3.367188 -1.976562 Z M 3.367188 -1.976562 "/>
</g>
<g id="glyph-3-0">
<path d="M 2.398438 0 L 2.398438 -12 L 12 -12 L 12 0 L 2.398438 0 M 2.699219 -0.300781 L 11.699219 -0.300781 L 11.699219 -11.699219 L 2.699219 -11.699219 Z M 2.699219 -0.300781 "/>
</g>
<g id="glyph-3-1">
<path d="M 4.492188 4.039062 C 3.558594 2.867188 2.773438 1.492188 2.128906 -0.0859375 C 1.484375 -1.660156 1.164062 -3.289062 1.164062 -4.976562 C 1.164062 -6.464844 1.402344 -7.890625 1.882812 -9.253906 C 2.445312 -10.835938 3.316406 -12.410156 4.492188 -13.976562 L 5.699219 -13.976562 C 4.945312 -12.679688 4.445312 -11.75 4.199219 -11.195312 C 3.820312 -10.332031 3.519531 -9.429688 3.300781 -8.492188 C 3.03125 -7.324219 2.898438 -6.148438 2.898438 -4.96875 C 2.898438 -1.960938 3.832031 1.039062 5.699219 4.039062 Z M 4.492188 4.039062 "/>
</g>
<g id="glyph-3-2">
<path d="M 2.371094 4.039062 L 1.164062 4.039062 C 3.03125 1.039062 3.964844 -1.960938 3.964844 -4.96875 C 3.964844 -6.144531 3.832031 -7.308594 3.5625 -8.464844 C 3.351562 -9.402344 3.054688 -10.304688 2.671875 -11.164062 C 2.429688 -11.726562 1.925781 -12.664062 1.164062 -13.976562 L 2.371094 -13.976562 C 3.546875 -12.410156 4.414062 -10.835938 4.976562 -9.253906 C 5.460938 -7.890625 5.699219 -6.464844 5.699219 -4.976562 C 5.699219 -3.289062 5.375 -1.660156 4.730469 -0.0859375 C 4.082031 1.492188 3.296875 2.867188 2.371094 4.039062 Z M 2.371094 4.039062 "/>
</g>
<g id="glyph-3-3">
</g>
</g>
<clipPath id="clip-0">
<path clip-rule="nonzero" d="M 60.859375 35.722656 L 712.027344 35.722656 L 712.027344 274.191406 L 60.859375 274.191406 Z M 60.859375 35.722656 "/>
</clipPath>
<clipPath id="clip-1">
<path clip-rule="nonzero" d="M 60.859375 235 L 712.027344 235 L 712.027344 237 L 60.859375 237 Z M 60.859375 235 "/>
</clipPath>
<clipPath id="clip-2">
<path clip-rule="nonzero" d="M 60.859375 181 L 712.027344 181 L 712.027344 183 L 60.859375 183 Z M 60.859375 181 "/>
</clipPath>
<clipPath id="clip-3">
<path clip-rule="nonzero" d="M 60.859375 127 L 712.027344 127 L 712.027344 129 L 60.859375 129 Z M 60.859375 127 "/>
</clipPath>
<clipPath id="clip-4">
<path clip-rule="nonzero" d="M 60.859375 73 L 712.027344 73 L 712.027344 75 L 60.859375 75 Z M 60.859375 73 "/>
</clipPath>
<clipPath id="clip-5">
<path clip-rule="nonzero" d="M 164 35.722656 L 165 35.722656 L 165 274.191406 L 164 274.191406 Z M 164 35.722656 "/>
</clipPath>
<clipPath id="clip-6">
<path clip-rule="nonzero" d="M 312 35.722656 L 313 35.722656 L 313 274.191406 L 312 274.191406 Z M 312 35.722656 "/>
</clipPath>
<clipPath id="clip-7">
<path clip-rule="nonzero" d="M 460 35.722656 L 461 35.722656 L 461 274.191406 L 460 274.191406 Z M 460 35.722656 "/>
</clipPath>
<clipPath id="clip-8">
<path clip-rule="nonzero" d="M 608 35.722656 L 609 35.722656 L 609 274.191406 L 608 274.191406 Z M 608 35.722656 "/>
</clipPath>
<clipPath id="clip-9">
<path clip-rule="nonzero" d="M 60.859375 262 L 712.027344 262 L 712.027344 265 L 60.859375 265 Z M 60.859375 262 "/>
</clipPath>
<clipPath id="clip-10">
<path clip-rule="nonzero" d="M 60.859375 208 L 712.027344 208 L 712.027344 210 L 60.859375 210 Z M 60.859375 208 "/>
</clipPath>
<clipPath id="clip-11">
<path clip-rule="nonzero" d="M 60.859375 154 L 712.027344 154 L 712.027344 156 L 60.859375 156 Z M 60.859375 154 "/>
</clipPath>
<clipPath id="clip-12">
<path clip-rule="nonzero" d="M 60.859375 99 L 712.027344 99 L 712.027344 102 L 60.859375 102 Z M 60.859375 99 "/>
</clipPath>
<clipPath id="clip-13">
<path clip-rule="nonzero" d="M 60.859375 45 L 712.027344 45 L 712.027344 48 L 60.859375 48 Z M 60.859375 45 "/>
</clipPath>
<clipPath id="clip-14">
<path clip-rule="nonzero" d="M 89 35.722656 L 92 35.722656 L 92 274.191406 L 89 274.191406 Z M 89 35.722656 "/>
</clipPath>
<clipPath id="clip-15">
<path clip-rule="nonzero" d="M 237 35.722656 L 240 35.722656 L 240 274.191406 L 237 274.191406 Z M 237 35.722656 "/>
</clipPath>
<clipPath id="clip-16">
<path clip-rule="nonzero" d="M 385 35.722656 L 388 35.722656 L 388 274.191406 L 385 274.191406 Z M 385 35.722656 "/>
</clipPath>
<clipPath id="clip-17">
<path clip-rule="nonzero" d="M 533 35.722656 L 536 35.722656 L 536 274.191406 L 533 274.191406 Z M 533 35.722656 "/>
</clipPath>
<clipPath id="clip-18">
<path clip-rule="nonzero" d="M 681 35.722656 L 684 35.722656 L 684 274.191406 L 681 274.191406 Z M 681 35.722656 "/>
</clipPath>
<clipPath id="clip-19">
<path clip-rule="nonzero" d="M 60.859375 262 L 712.027344 262 L 712.027344 265 L 60.859375 265 Z M 60.859375 262 "/>
</clipPath>
<clipPath id="clip-20">
<path clip-rule="nonzero" d="M 60.859375 45 L 712.027344 45 L 712.027344 48 L 60.859375 48 Z M 60.859375 45 "/>
</clipPath>
<clipPath id="clip-21">
<path clip-rule="nonzero" d="M 60.859375 154 L 712.027344 154 L 712.027344 156 L 60.859375 156 Z M 60.859375 154 "/>
</clipPath>
<clipPath id="clip-22">
<path clip-rule="nonzero" d="M 385 35.722656 L 388 35.722656 L 388 274.191406 L 385 274.191406 Z M 385 35.722656 "/>
</clipPath>
<clipPath id="clip-23">
<path clip-rule="nonzero" d="M 60.859375 35.722656 L 712.027344 35.722656 L 712.027344 274.191406 L 60.859375 274.191406 Z M 60.859375 35.722656 "/>
</clipPath>
</defs>
<rect x="-72" y="-32.4" width="864" height="388.8" fill="rgb(100%, 100%, 100%)" fill-opacity="1"/>
<rect x="-72" y="-32.4" width="864" height="388.8" fill="rgb(100%, 100%, 100%)" fill-opacity="1"/>
<path fill="none" stroke-width="1.551969" stroke-linecap="round" stroke-linejoin="round" stroke="rgb(100%, 100%, 100%)" stroke-opacity="1" stroke-miterlimit="10" d="M 0 324 L 720 324 L 720 0 L 0 0 Z M 0 324 "/>
<g clip-path="url(#clip-0)">
<path fill-rule="nonzero" fill="rgb(100%, 100%, 100%)" fill-opacity="1" d="M 60.859375 274.195312 L 712.027344 274.195312 L 712.027344 35.726562 L 60.859375 35.726562 Z M 60.859375 274.195312 "/>
</g>
<g clip-path="url(#clip-1)">
<path fill="none" stroke-width="0.775984" stroke-linecap="butt" stroke-linejoin="round" stroke="rgb(92.156863%, 92.156863%, 92.156863%)" stroke-opacity="1" stroke-miterlimit="10" d="M 60.859375 236.257812 L 712.03125 236.257812 "/>
</g>
<g clip-path="url(#clip-2)">
<path fill="none" stroke-width="0.775984" stroke-linecap="butt" stroke-linejoin="round" stroke="rgb(92.156863%, 92.156863%, 92.156863%)" stroke-opacity="1" stroke-miterlimit="10" d="M 60.859375 182.058594 L 712.03125 182.058594 "/>
</g>
<g clip-path="url(#clip-3)">
<path fill="none" stroke-width="0.775984" stroke-linecap="butt" stroke-linejoin="round" stroke="rgb(92.156863%, 92.156863%, 92.156863%)" stroke-opacity="1" stroke-miterlimit="10" d="M 60.859375 127.859375 L 712.03125 127.859375 "/>
</g>
<g clip-path="url(#clip-4)">
<path fill="none" stroke-width="0.775984" stroke-linecap="butt" stroke-linejoin="round" stroke="rgb(92.156863%, 92.156863%, 92.156863%)" stroke-opacity="1" stroke-miterlimit="10" d="M 60.859375 73.664062 L 712.03125 73.664062 "/>
</g>
<g clip-path="url(#clip-5)">
<path fill="none" stroke-width="0.775984" stroke-linecap="butt" stroke-linejoin="round" stroke="rgb(92.156863%, 92.156863%, 92.156863%)" stroke-opacity="1" stroke-miterlimit="10" d="M 164.457031 274.195312 L 164.457031 35.722656 "/>
</g>
<g clip-path="url(#clip-6)">
<path fill="none" stroke-width="0.775984" stroke-linecap="butt" stroke-linejoin="round" stroke="rgb(92.156863%, 92.156863%, 92.156863%)" stroke-opacity="1" stroke-miterlimit="10" d="M 312.449219 274.195312 L 312.449219 35.722656 "/>
</g>
<g clip-path="url(#clip-7)">
<path fill="none" stroke-width="0.775984" stroke-linecap="butt" stroke-linejoin="round" stroke="rgb(92.156863%, 92.156863%, 92.156863%)" stroke-opacity="1" stroke-miterlimit="10" d="M 460.441406 274.195312 L 460.441406 35.722656 "/>
</g>
<g clip-path="url(#clip-8)">
<path fill="none" stroke-width="0.775984" stroke-linecap="butt" stroke-linejoin="round" stroke="rgb(92.156863%, 92.156863%, 92.156863%)" stroke-opacity="1" stroke-miterlimit="10" d="M 608.433594 274.195312 L 608.433594 35.722656 "/>
</g>
<g clip-path="url(#clip-9)">
<path fill="none" stroke-width="1.551969" stroke-linecap="butt" stroke-linejoin="round" stroke="rgb(92.156863%, 92.156863%, 92.156863%)" stroke-opacity="1" stroke-miterlimit="10" d="M 60.859375 263.355469 L 712.03125 263.355469 "/>
</g>
<g clip-path="url(#clip-10)">
<path fill="none" stroke-width="1.551969" stroke-linecap="butt" stroke-linejoin="round" stroke="rgb(92.156863%, 92.156863%, 92.156863%)" stroke-opacity="1" stroke-miterlimit="10" d="M 60.859375 209.15625 L 712.03125 209.15625 "/>
</g>
<g clip-path="url(#clip-11)">
<path fill="none" stroke-width="1.551969" stroke-linecap="butt" stroke-linejoin="round" stroke="rgb(92.156863%, 92.156863%, 92.156863%)" stroke-opacity="1" stroke-miterlimit="10" d="M 60.859375 154.960938 L 712.03125 154.960938 "/>
</g>
<g clip-path="url(#clip-12)">
<path fill="none" stroke-width="1.551969" stroke-linecap="butt" stroke-linejoin="round" stroke="rgb(92.156863%, 92.156863%, 92.156863%)" stroke-opacity="1" stroke-miterlimit="10" d="M 60.859375 100.761719 L 712.03125 100.761719 "/>
</g>
<g clip-path="url(#clip-13)">
<path fill="none" stroke-width="1.551969" stroke-linecap="butt" stroke-linejoin="round" stroke="rgb(92.156863%, 92.156863%, 92.156863%)" stroke-opacity="1" stroke-miterlimit="10" d="M 60.859375 46.5625 L 712.03125 46.5625 "/>
</g>
<g clip-path="url(#clip-14)">
<path fill="none" stroke-width="1.551969" stroke-linecap="butt" stroke-linejoin="round" stroke="rgb(92.156863%, 92.156863%, 92.156863%)" stroke-opacity="1" stroke-miterlimit="10" d="M 90.460938 274.195312 L 90.460938 35.722656 "/>
</g>
<g clip-path="url(#clip-15)">
<path fill="none" stroke-width="1.551969" stroke-linecap="butt" stroke-linejoin="round" stroke="rgb(92.156863%, 92.156863%, 92.156863%)" stroke-opacity="1" stroke-miterlimit="10" d="M 238.453125 274.195312 L 238.453125 35.722656 "/>
</g>
<g clip-path="url(#clip-16)">
<path fill="none" stroke-width="1.551969" stroke-linecap="butt" stroke-linejoin="round" stroke="rgb(92.156863%, 92.156863%, 92.156863%)" stroke-opacity="1" stroke-miterlimit="10" d="M 386.445312 274.195312 L 386.445312 35.722656 "/>
</g>
<g clip-path="url(#clip-17)">
<path fill="none" stroke-width="1.551969" stroke-linecap="butt" stroke-linejoin="round" stroke="rgb(92.156863%, 92.156863%, 92.156863%)" stroke-opacity="1" stroke-miterlimit="10" d="M 534.4375 274.195312 L 534.4375 35.722656 "/>
</g>
<g clip-path="url(#clip-18)">
<path fill="none" stroke-width="1.551969" stroke-linecap="butt" stroke-linejoin="round" stroke="rgb(92.156863%, 92.156863%, 92.156863%)" stroke-opacity="1" stroke-miterlimit="10" d="M 682.429688 274.195312 L 682.429688 35.722656 "/>
</g>
<path fill="none" stroke-width="3.200935" stroke-linecap="butt" stroke-linejoin="round" stroke="rgb(85.098039%, 1.960784%, 0.784314%)" stroke-opacity="1" stroke-miterlimit="10" d="M 90.460938 262.820312 L 92.441406 262.796875 L 94.417969 262.773438 L 98.378906 262.726562 L 100.359375 262.699219 L 102.339844 262.675781 L 104.320312 262.644531 L 106.296875 262.617188 L 112.238281 262.523438 L 116.199219 262.453125 L 118.175781 262.417969 L 122.136719 262.339844 L 128.078125 262.210938 L 130.054688 262.164062 L 135.996094 262.011719 L 137.976562 261.957031 L 139.957031 261.898438 L 141.933594 261.839844 L 145.894531 261.714844 L 147.875 261.648438 L 151.835938 261.507812 L 153.816406 261.433594 L 155.792969 261.355469 L 157.773438 261.273438 L 161.734375 261.101562 L 165.695312 260.914062 L 167.671875 260.816406 L 171.632812 260.605469 L 173.613281 260.496094 L 175.59375 260.378906 L 177.574219 260.257812 L 179.550781 260.132812 L 181.53125 260.003906 L 183.511719 259.867188 L 185.492188 259.726562 L 187.472656 259.582031 L 189.453125 259.429688 L 191.429688 259.273438 L 193.410156 259.109375 L 195.390625 258.9375 L 197.371094 258.761719 L 199.351562 258.578125 L 201.332031 258.386719 L 203.308594 258.1875 L 205.289062 257.980469 L 207.269531 257.765625 L 209.25 257.542969 L 211.230469 257.3125 L 213.210938 257.074219 L 215.191406 256.824219 L 217.167969 256.5625 L 219.148438 256.296875 L 221.128906 256.015625 L 223.109375 255.726562 L 225.089844 255.425781 L 227.070312 255.113281 L 229.046875 254.789062 L 231.027344 254.453125 L 233.007812 254.101562 L 234.988281 253.742188 L 236.96875 253.363281 L 238.949219 252.976562 L 240.925781 252.570312 L 242.90625 252.152344 L 244.886719 251.71875 L 246.867188 251.269531 L 248.847656 250.800781 L 250.828125 250.320312 L 252.804688 249.820312 L 254.785156 249.300781 L 256.765625 248.761719 L 258.746094 248.207031 L 260.726562 247.632812 L 262.707031 247.035156 L 264.683594 246.421875 L 266.664062 245.785156 L 268.644531 245.125 L 270.625 244.441406 L 272.605469 243.738281 L 274.585938 243.011719 L 276.566406 242.257812 L 278.542969 241.480469 L 280.523438 240.679688 L 282.503906 239.851562 L 284.484375 238.996094 L 286.464844 238.117188 L 288.445312 237.207031 L 290.421875 236.269531 L 292.402344 235.304688 L 294.382812 234.308594 L 296.363281 233.285156 L 298.34375 232.230469 L 300.324219 231.144531 L 302.300781 230.03125 L 304.28125 228.882812 L 306.261719 227.703125 L 308.242188 226.492188 L 310.222656 225.246094 L 312.203125 223.96875 L 314.179688 222.660156 L 316.160156 221.316406 L 318.140625 219.9375 L 320.121094 218.527344 L 322.101562 217.085938 L 324.082031 215.609375 L 326.058594 214.097656 L 328.039062 212.550781 L 330.019531 210.972656 L 332 209.363281 L 333.980469 207.71875 L 335.960938 206.042969 L 337.9375 204.335938 L 339.917969 202.597656 L 341.898438 200.824219 L 343.878906 199.023438 L 345.859375 197.195312 L 347.839844 195.335938 L 349.820312 193.449219 L 351.796875 191.535156 L 353.777344 189.59375 L 355.757812 187.628906 L 357.738281 185.640625 L 359.71875 183.625 L 361.699219 181.59375 L 363.675781 179.539062 L 365.65625 177.46875 L 367.636719 175.378906 L 369.617188 173.273438 L 371.597656 171.152344 L 373.578125 169.019531 L 375.554688 166.875 L 377.535156 164.722656 L 381.496094 160.394531 L 383.476562 158.222656 L 385.457031 156.046875 L 387.433594 153.871094 L 391.394531 149.527344 L 393.375 147.359375 L 395.355469 145.199219 L 397.335938 143.042969 L 399.3125 140.902344 L 401.292969 138.769531 L 403.273438 136.648438 L 405.253906 134.542969 L 407.234375 132.453125 L 409.214844 130.378906 L 411.195312 128.328125 L 413.171875 126.292969 L 415.152344 124.28125 L 417.132812 122.292969 L 419.113281 120.324219 L 421.09375 118.386719 L 423.074219 116.472656 L 425.050781 114.585938 L 427.03125 112.726562 L 429.011719 110.894531 L 430.992188 109.09375 L 432.972656 107.324219 L 434.953125 105.582031 L 436.929688 103.875 L 438.910156 102.199219 L 440.890625 100.554688 L 442.871094 98.945312 L 444.851562 97.367188 L 446.832031 95.824219 L 448.808594 94.3125 L 450.789062 92.835938 L 452.769531 91.390625 L 454.75 89.980469 L 456.730469 88.605469 L 458.710938 87.261719 L 460.6875 85.949219 L 462.667969 84.671875 L 464.648438 83.429688 L 466.628906 82.21875 L 468.609375 81.039062 L 470.589844 79.890625 L 472.570312 78.773438 L 474.546875 77.6875 L 476.527344 76.632812 L 478.507812 75.609375 L 480.488281 74.613281 L 482.46875 73.648438 L 484.449219 72.710938 L 486.425781 71.804688 L 488.40625 70.921875 L 490.386719 70.066406 L 492.367188 69.238281 L 494.347656 68.4375 L 496.328125 67.660156 L 498.304688 66.910156 L 500.285156 66.179688 L 502.265625 65.476562 L 504.246094 64.796875 L 506.226562 64.136719 L 508.207031 63.5 L 510.183594 62.882812 L 512.164062 62.289062 L 514.144531 61.710938 L 516.125 61.15625 L 518.105469 60.621094 L 520.085938 60.101562 L 522.0625 59.601562 L 524.042969 59.117188 L 526.023438 58.652344 L 528.003906 58.203125 L 529.984375 57.765625 L 531.964844 57.347656 L 533.945312 56.945312 L 535.921875 56.554688 L 537.902344 56.179688 L 539.882812 55.816406 L 541.863281 55.46875 L 543.84375 55.132812 L 545.824219 54.808594 L 547.800781 54.496094 L 549.78125 54.195312 L 551.761719 53.902344 L 553.742188 53.625 L 555.722656 53.355469 L 557.703125 53.097656 L 559.679688 52.847656 L 561.660156 52.605469 L 563.640625 52.375 L 565.621094 52.152344 L 567.601562 51.9375 L 569.582031 51.730469 L 571.558594 51.535156 L 573.539062 51.34375 L 575.519531 51.15625 L 577.5 50.980469 L 579.480469 50.8125 L 581.460938 50.648438 L 583.4375 50.488281 L 585.417969 50.335938 L 587.398438 50.191406 L 589.378906 50.050781 L 591.359375 49.914062 L 593.339844 49.785156 L 595.320312 49.660156 L 597.296875 49.539062 L 601.257812 49.3125 L 603.238281 49.207031 L 605.21875 49.105469 L 607.199219 49.007812 L 609.175781 48.910156 L 613.136719 48.730469 L 617.097656 48.566406 L 619.078125 48.488281 L 621.054688 48.414062 L 623.035156 48.339844 L 625.015625 48.269531 L 626.996094 48.203125 L 630.957031 48.078125 L 632.933594 48.019531 L 638.875 47.855469 L 640.855469 47.804688 L 642.835938 47.757812 L 644.8125 47.710938 L 646.792969 47.664062 L 648.773438 47.621094 L 650.753906 47.582031 L 652.734375 47.539062 L 654.714844 47.503906 L 656.695312 47.464844 L 658.671875 47.429688 L 660.652344 47.398438 L 662.632812 47.363281 L 666.59375 47.300781 L 668.574219 47.273438 L 670.550781 47.246094 L 674.511719 47.191406 L 680.453125 47.121094 L 682.429688 47.101562 "/>
<g clip-path="url(#clip-19)">
<path fill="none" stroke-width="1.551969" stroke-linecap="butt" stroke-linejoin="round" stroke="rgb(49.803922%, 49.803922%, 49.803922%)" stroke-opacity="1" stroke-dasharray="6.207874 6.207874" stroke-miterlimit="10" d="M 60.859375 263.355469 L 712.03125 263.355469 "/>
</g>
<g clip-path="url(#clip-20)">
<path fill="none" stroke-width="1.551969" stroke-linecap="butt" stroke-linejoin="round" stroke="rgb(49.803922%, 49.803922%, 49.803922%)" stroke-opacity="1" stroke-dasharray="6.207874 6.207874" stroke-miterlimit="10" d="M 60.859375 46.5625 L 712.03125 46.5625 "/>
</g>
<g clip-path="url(#clip-21)">
<path fill="none" stroke-width="1.551969" stroke-linecap="butt" stroke-linejoin="round" stroke="rgb(27.45098%, 50.980392%, 70.588235%)" stroke-opacity="1" stroke-dasharray="1.551969 4.655906" stroke-miterlimit="10" d="M 60.859375 154.960938 L 712.03125 154.960938 "/>
</g>
<g clip-path="url(#clip-22)">
<path fill="none" stroke-width="1.551969" stroke-linecap="butt" stroke-linejoin="round" stroke="rgb(27.45098%, 50.980392%, 70.588235%)" stroke-opacity="1" stroke-dasharray="1.551969 4.655906" stroke-miterlimit="10" d="M 386.445312 274.195312 L 386.445312 35.722656 "/>
</g>
<g clip-path="url(#clip-23)">
<path fill="none" stroke-width="1.551969" stroke-linecap="round" stroke-linejoin="round" stroke="rgb(20%, 20%, 20%)" stroke-opacity="1" stroke-miterlimit="10" d="M 60.859375 274.195312 L 712.027344 274.195312 L 712.027344 35.726562 L 60.859375 35.726562 Z M 60.859375 274.195312 "/>
</g>
<g fill="rgb(30.196078%, 30.196078%, 30.196078%)" fill-opacity="1">
<use xlink:href="#glyph-0-0" x="28.773438" y="268.4375"/>
<use xlink:href="#glyph-0-1" x="35.892187" y="268.4375"/>
<use xlink:href="#glyph-0-0" x="39.448437" y="268.4375"/>
<use xlink:href="#glyph-0-0" x="46.567187" y="268.4375"/>
</g>
<g fill="rgb(30.196078%, 30.196078%, 30.196078%)" fill-opacity="1">
<use xlink:href="#glyph-0-0" x="28.773438" y="214.238281"/>
<use xlink:href="#glyph-0-1" x="35.892187" y="214.238281"/>
<use xlink:href="#glyph-0-2" x="39.448437" y="214.238281"/>
<use xlink:href="#glyph-0-3" x="46.567187" y="214.238281"/>
</g>
<g fill="rgb(30.196078%, 30.196078%, 30.196078%)" fill-opacity="1">
<use xlink:href="#glyph-0-0" x="28.773438" y="160.042969"/>
<use xlink:href="#glyph-0-1" x="35.892187" y="160.042969"/>
<use xlink:href="#glyph-0-3" x="39.448437" y="160.042969"/>
<use xlink:href="#glyph-0-0" x="46.567187" y="160.042969"/>
</g>
<g fill="rgb(30.196078%, 30.196078%, 30.196078%)" fill-opacity="1">
<use xlink:href="#glyph-0-0" x="28.773438" y="105.84375"/>
<use xlink:href="#glyph-0-1" x="35.892187" y="105.84375"/>
<use xlink:href="#glyph-0-4" x="39.448437" y="105.84375"/>
<use xlink:href="#glyph-0-3" x="46.567187" y="105.84375"/>
</g>
<g fill="rgb(30.196078%, 30.196078%, 30.196078%)" fill-opacity="1">
<use xlink:href="#glyph-0-5" x="28.773438" y="51.644531"/>
<use xlink:href="#glyph-0-1" x="35.892187" y="51.644531"/>
<use xlink:href="#glyph-0-0" x="39.448437" y="51.644531"/>
<use xlink:href="#glyph-0-0" x="46.567187" y="51.644531"/>
</g>
<path fill="none" stroke-width="1.551969" stroke-linecap="butt" stroke-linejoin="round" stroke="rgb(20%, 20%, 20%)" stroke-opacity="1" stroke-miterlimit="10" d="M 56.875 263.355469 L 60.859375 263.355469 "/>
<path fill="none" stroke-width="1.551969" stroke-linecap="butt" stroke-linejoin="round" stroke="rgb(20%, 20%, 20%)" stroke-opacity="1" stroke-miterlimit="10" d="M 56.875 209.15625 L 60.859375 209.15625 "/>
<path fill="none" stroke-width="1.551969" stroke-linecap="butt" stroke-linejoin="round" stroke="rgb(20%, 20%, 20%)" stroke-opacity="1" stroke-miterlimit="10" d="M 56.875 154.960938 L 60.859375 154.960938 "/>
<path fill="none" stroke-width="1.551969" stroke-linecap="butt" stroke-linejoin="round" stroke="rgb(20%, 20%, 20%)" stroke-opacity="1" stroke-miterlimit="10" d="M 56.875 100.761719 L 60.859375 100.761719 "/>
<path fill="none" stroke-width="1.551969" stroke-linecap="butt" stroke-linejoin="round" stroke="rgb(20%, 20%, 20%)" stroke-opacity="1" stroke-miterlimit="10" d="M 56.875 46.5625 L 60.859375 46.5625 "/>
<path fill="none" stroke-width="1.551969" stroke-linecap="butt" stroke-linejoin="round" stroke="rgb(20%, 20%, 20%)" stroke-opacity="1" stroke-miterlimit="10" d="M 90.460938 278.179688 L 90.460938 274.195312 "/>
<path fill="none" stroke-width="1.551969" stroke-linecap="butt" stroke-linejoin="round" stroke="rgb(20%, 20%, 20%)" stroke-opacity="1" stroke-miterlimit="10" d="M 238.453125 278.179688 L 238.453125 274.195312 "/>
<path fill="none" stroke-width="1.551969" stroke-linecap="butt" stroke-linejoin="round" stroke="rgb(20%, 20%, 20%)" stroke-opacity="1" stroke-miterlimit="10" d="M 386.445312 278.179688 L 386.445312 274.195312 "/>
<path fill="none" stroke-width="1.551969" stroke-linecap="butt" stroke-linejoin="round" stroke="rgb(20%, 20%, 20%)" stroke-opacity="1" stroke-miterlimit="10" d="M 534.4375 278.179688 L 534.4375 274.195312 "/>
<path fill="none" stroke-width="1.551969" stroke-linecap="butt" stroke-linejoin="round" stroke="rgb(20%, 20%, 20%)" stroke-opacity="1" stroke-miterlimit="10" d="M 682.429688 278.179688 L 682.429688 274.195312 "/>
<g fill="rgb(30.196078%, 30.196078%, 30.196078%)" fill-opacity="1">
<use xlink:href="#glyph-0-6" x="84.769531" y="291.53125"/>
<use xlink:href="#glyph-0-7" x="89.032031" y="291.53125"/>
</g>
<g fill="rgb(30.196078%, 30.196078%, 30.196078%)" fill-opacity="1">
<use xlink:href="#glyph-0-6" x="232.761719" y="291.53125"/>
<use xlink:href="#glyph-0-8" x="237.024219" y="291.53125"/>
</g>
<g fill="rgb(30.196078%, 30.196078%, 30.196078%)" fill-opacity="1">
<use xlink:href="#glyph-0-0" x="382.886719" y="291.53125"/>
</g>
<g fill="rgb(30.196078%, 30.196078%, 30.196078%)" fill-opacity="1">
<use xlink:href="#glyph-0-8" x="530.878906" y="291.53125"/>
</g>
<g fill="rgb(30.196078%, 30.196078%, 30.196078%)" fill-opacity="1">
<use xlink:href="#glyph-0-7" x="678.871094" y="291.53125"/>
</g>
<g fill="rgb(0%, 0%, 0%)" fill-opacity="1">
<use xlink:href="#glyph-1-0" x="382.445312" y="311.664062"/>
</g>
<g fill="rgb(0%, 0%, 0%)" fill-opacity="1">
<use xlink:href="#glyph-2-0" x="20.421875" y="169.226562"/>
<use xlink:href="#glyph-2-1" x="20.421875" y="159.351562"/>
<use xlink:href="#glyph-2-2" x="20.421875" y="154.023438"/>
<use xlink:href="#glyph-2-3" x="20.421875" y="146.023438"/>
</g>
<g fill="rgb(0%, 0%, 0%)" fill-opacity="1">
<use xlink:href="#glyph-3-0" x="60.859375" y="22.714844"/>
<use xlink:href="#glyph-3-0" x="75.259375" y="22.714844"/>
<use xlink:href="#glyph-3-0" x="89.659375" y="22.714844"/>
<use xlink:href="#glyph-3-0" x="104.059375" y="22.714844"/>
<use xlink:href="#glyph-3-1" x="118.459375" y="22.714844"/>
<use xlink:href="#glyph-3-0" x="124.853125" y="22.714844"/>
<use xlink:href="#glyph-3-0" x="139.253125" y="22.714844"/>
<use xlink:href="#glyph-3-0" x="153.653125" y="22.714844"/>
<use xlink:href="#glyph-3-0" x="168.053125" y="22.714844"/>
<use xlink:href="#glyph-3-0" x="182.453125" y="22.714844"/>
<use xlink:href="#glyph-3-2" x="196.853125" y="22.714844"/>
<use xlink:href="#glyph-3-3" x="203.246875" y="22.714844"/>
<use xlink:href="#glyph-3-0" x="208.58125" y="22.714844"/>
<use xlink:href="#glyph-3-0" x="222.98125" y="22.714844"/>
</g>
</svg>
